<ttFont>
<head>
    <!-- Most of this table will be recalculated by the compiler -->
    <tableVersion value="1.0"/>
    <fontRevision value="1.0"/>
    <checkSumAdjustment value="0xa4a614c0"/>
    <magicNumber value="0x5f0f3cf5"/>
    <flags value="00000000 00011011"/>
    <unitsPerEm value="1000"/>
    <created value="Tue Jan  8 12:46:00 2013"/>
    <modified value="Thu Nov  6 12:32:34 2014"/>
    <xMin value="-66"/>
    <yMin value="-269"/>
    <xMax value="1228"/>
    <yMax value="1049"/>
    <macStyle value="00000000 00000000"/>
    <lowestRecPPEM value="9"/>
    <fontDirectionHint value="2"/>
    <indexToLocFormat value="0"/>
    <glyphDataFormat value="0"/>
  </head>
    <TTGlyph name=".notdef" xMin="65" yMin="0" xMax="529" yMax="650">
      <contour>
        <pt x="65" y="650" on="1"/>
        <pt x="529" y="650" on="1"/>
        <pt x="529" y="0" on="1"/>
        <pt x="65" y="0" on="1"/>
      </contour>
      <contour>
        <pt x="455" y="604" on="1"/>
        <pt x="139" y="604" on="1"/>
        <pt x="298" y="367" on="1"/>
      </contour>
      <contour>
        <pt x="483" y="88" on="1"/>
        <pt x="483" y="562" on="1"/>
        <pt x="325" y="325" on="1"/>
      </contour>
      <contour>
        <pt x="455" y="47" on="1"/>
        <pt x="298" y="283" on="1"/>
        <pt x="139" y="47" on="1"/>
      </contour>
      <contour>
        <pt x="112" y="88" on="1"/>
        <pt x="269" y="325" on="1"/>
        <pt x="112" y="562" on="1"/>
      </contour>
    </TTGlyph>
    <TTGlyph name="A" xMin="14" yMin="0" xMax="661" yMax="663">
      <contour>
        <pt x="500" y="156" on="1"/>
        <pt x="168" y="156" on="1"/>
        <pt x="112" y="10" on="1"/>
        <pt x="110" y="4" on="0"/>
        <pt x="104" y="0" on="0"/>
        <pt x="96" y="0" on="1"/>
        <pt x="14" y="0" on="1"/>
        <pt x="280" y="663" on="1"/>
        <pt x="371" y="663" on="1"/>
        <pt x="379" y="663" on="0"/>
        <pt x="385" y="659" on="0"/>
        <pt x="388" y="652" on="1"/>
        <pt x="661" y="0" on="1"/>
        <pt x="576" y="0" on="1"/>
        <pt x="564" y="0" on="0"/>
        <pt x="560" y="10" on="1"/>
      </contour>
      <contour>
        <pt x="196" y="230" on="1"/>
        <pt x="470" y="230" on="1"/>
        <pt x="415" y="368" on="1"/>
        <pt x="382" y="451" on="0"/>
        <pt x="341" y="554" on="0"/>
        <pt x="331" y="582" on="1"/>
        <pt x="330" y="582" on="1"/>
        <pt x="321" y="556" on="0"/>
        <pt x="281" y="449" on="0"/>
        <pt x="249" y="368" on="1"/>
      </contour>
    </TTGlyph>
    <TTGlyph name="AE" xMin="4" yMin="0" xMax="905" yMax="663">
      <contour>
        <pt x="113" y="10" on="1"/>
        <pt x="109" y="4" on="0"/>
        <pt x="103" y="0" on="0"/>
        <pt x="95" y="0" on="1"/>
        <pt x="4" y="0" on="1"/>
        <pt x="423" y="663" on="1"/>
        <pt x="894" y="663" on="1"/>
        <pt x="894" y="586" on="1"/>
        <pt x="551" y="586" on="1"/>
        <pt x="551" y="381" on="1"/>
        <pt x="858" y="381" on="1"/>
        <pt x="858" y="305" on="1"/>
        <pt x="551" y="305" on="1"/>
        <pt x="551" y="77" on="1"/>
        <pt x="905" y="77" on="1"/>
        <pt x="905" y="0" on="1"/>
        <pt x="458" y="0" on="1"/>
        <pt x="458" y="156" on="1"/>
        <pt x="203" y="156" on="1"/>
      </contour>
      <contour>
        <pt x="458" y="577" on="1"/>
        <pt x="434" y="531" on="0"/>
        <pt x="355" y="403" on="0"/>
        <pt x="309" y="329" on="1"/>
        <pt x="248" y="230" on="1"/>
        <pt x="458" y="230" on="1"/>
      </contour>
    </TTGlyph>
    <TTGlyph name="AEacute" xMin="4" yMin="0" xMax="905" yMax="903">
      <component glyphName="AE" x="0" y="0" flags="0x204"/>
      <component glyphName="acute.cap" x="400" y="0" flags="0x4"/>
    </TTGlyph>
    <TTGlyph name="Aacute" xMin="14" yMin="0" xMax="661" yMax="903">
      <component glyphName="A" x="0" y="0" flags="0x204"/>
      <component glyphName="acute.cap" x="138" y="0" flags="0x4"/>
    </TTGlyph>
    <TTGlyph name="Abreve" xMin="14" yMin="0" xMax="661" yMax="880">
      <component glyphName="A" x="0" y="0" flags="0x204"/>
      <component glyphName="breve.cap" x="133" y="0" flags="0x4"/>
    </TTGlyph>
    <TTGlyph name="Acaron" xMin="14" yMin="0" xMax="661" yMax="900">
      <component glyphName="A" x="0" y="0" flags="0x204"/>
      <component glyphName="caron.cap" x="132" y="0" flags="0x4"/>
    </TTGlyph>
    <TTGlyph name="Acircumflex" xMin="14" yMin="0" xMax="661" yMax="894">
      <component glyphName="A" x="0" y="0" flags="0x204"/>
      <component glyphName="circumflex.cap" x="133" y="0" flags="0x4"/>
    </TTGlyph>
    <TTGlyph name="Adieresis" xMin="14" yMin="0" xMax="661" yMax="847">
      <component glyphName="A" x="0" y="0" flags="0x204"/>
      <component glyphName="dieresis.cap" x="133" y="0" flags="0x4"/>
    </TTGlyph>
    <TTGlyph name="Agrave" xMin="14" yMin="0" xMax="661" yMax="903">
      <component glyphName="A" x="0" y="0" flags="0x204"/>
      <component glyphName="grave.cap" x="138" y="0" flags="0x4"/>
    </TTGlyph>
    <TTGlyph name="Amacron" xMin="14" yMin="0" xMax="661" yMax="831">
      <component glyphName="A" x="0" y="0" flags="0x204"/>
      <component glyphName="macron.cap" x="132" y="0" flags="0x4"/>
    </TTGlyph>
    <TTGlyph name="Aogonek" xMin="14" yMin="-203" xMax="666" yMax="663">
      <contour>
        <pt x="500" y="156" on="1"/>
        <pt x="168" y="156" on="1"/>
        <pt x="112" y="10" on="1"/>
        <pt x="110" y="4" on="0"/>
        <pt x="104" y="0" on="0"/>
        <pt x="96" y="0" on="1"/>
        <pt x="14" y="0" on="1"/>
        <pt x="280" y="663" on="1"/>
        <pt x="371" y="663" on="1"/>
        <pt x="379" y="663" on="0"/>
        <pt x="385" y="659" on="0"/>
        <pt x="388" y="652" on="1"/>
        <pt x="661" y="0" on="1"/>
        <pt x="632" y="0" on="1"/>
        <pt x="607" y="0" on="0"/>
        <pt x="574" y="-16" on="0"/>
        <pt x="557" y="-36" on="1"/>
        <pt x="546" y="-49" on="0"/>
        <pt x="533" y="-82" on="0"/>
        <pt x="533" y="-96" on="1"/>
        <pt x="533" y="-117" on="0"/>
        <pt x="559" y="-141" on="0"/>
        <pt x="586" y="-141" on="1"/>
        <pt x="594" y="-141" on="0"/>
        <pt x="617" y="-139" on="0"/>
        <pt x="628" y="-137" on="1"/>
        <pt x="651" y="-133" on="1"/>
        <pt x="666" y="-178" on="1"/>
        <pt x="645" y="-190" on="0"/>
        <pt x="594" y="-203" on="0"/>
        <pt x="571" y="-203" on="1"/>
        <pt x="520" y="-203" on="0"/>
        <pt x="455" y="-151" on="0"/>
        <pt x="455" y="-109" on="1"/>
        <pt x="455" y="-67" on="0"/>
        <pt x="513" y="-3" on="0"/>
        <pt x="555" y="21" on="1"/>
      </contour>
      <contour>
        <pt x="196" y="230" on="1"/>
        <pt x="470" y="230" on="1"/>
        <pt x="415" y="368" on="1"/>
        <pt x="382" y="451" on="0"/>
        <pt x="341" y="554" on="0"/>
        <pt x="331" y="582" on="1"/>
        <pt x="330" y="582" on="1"/>
        <pt x="321" y="556" on="0"/>
        <pt x="281" y="449" on="0"/>
        <pt x="249" y="368" on="1"/>
      </contour>
    </TTGlyph>
    <TTGlyph name="Aring" xMin="14" yMin="0" xMax="661" yMax="856">
      <contour>
        <pt x="661" y="0" on="1"/>
        <pt x="576" y="0" on="1"/>
        <pt x="564" y="0" on="0"/>
        <pt x="560" y="10" on="1"/>
        <pt x="500" y="156" on="1"/>
        <pt x="168" y="156" on="1"/>
        <pt x="112" y="10" on="1"/>
        <pt x="110" y="4" on="0"/>
        <pt x="104" y="0" on="0"/>
        <pt x="96" y="0" on="1"/>
        <pt x="14" y="0" on="1"/>
        <pt x="275" y="650" on="1"/>
        <pt x="250" y="663" on="0"/>
        <pt x="221" y="712" on="0"/>
        <pt x="221" y="745" on="1"/>
        <pt x="221" y="770" on="0"/>
        <pt x="239" y="812" on="0"/>
        <pt x="271" y="840" on="0"/>
        <pt x="313" y="856" on="0"/>
        <pt x="336" y="856" on="1"/>
        <pt x="359" y="856" on="0"/>
        <pt x="401" y="840" on="0"/>
        <pt x="432" y="812" on="0"/>
        <pt x="451" y="770" on="0"/>
        <pt x="451" y="745" on="1"/>
        <pt x="451" y="710" on="0"/>
        <pt x="417" y="659" on="0"/>
        <pt x="390" y="647" on="1"/>
      </contour>
      <contour>
        <pt x="392" y="745" on="1"/>
        <pt x="392" y="773" on="0"/>
        <pt x="362" y="800" on="0"/>
        <pt x="336" y="800" on="1"/>
        <pt x="310" y="800" on="0"/>
        <pt x="280" y="773" on="0"/>
        <pt x="280" y="745" on="1"/>
        <pt x="280" y="717" on="0"/>
        <pt x="310" y="690" on="0"/>
        <pt x="336" y="690" on="1"/>
        <pt x="362" y="690" on="0"/>
        <pt x="392" y="717" on="0"/>
      </contour>
      <contour>
        <pt x="196" y="230" on="1"/>
        <pt x="470" y="230" on="1"/>
        <pt x="415" y="368" on="1"/>
        <pt x="382" y="451" on="0"/>
        <pt x="341" y="554" on="0"/>
        <pt x="331" y="582" on="1"/>
        <pt x="330" y="582" on="1"/>
        <pt x="321" y="556" on="0"/>
        <pt x="281" y="449" on="0"/>
        <pt x="249" y="368" on="1"/>
      </contour>
    </TTGlyph>
    <TTGlyph name="Aringacute" xMin="14" yMin="0" xMax="661" yMax="1049">
      <component glyphName="acute.cap" x="142" y="146" flags="0x4"/>
      <component glyphName="Aring" x="0" y="0" flags="0x4"/>
    </TTGlyph>
    <TTGlyph name="Atilde" xMin="14" yMin="0" xMax="661" yMax="859">
      <component glyphName="A" x="0" y="0" flags="0x204"/>
      <component glyphName="tilde.cap" x="131" y="0" flags="0x4"/>
    </TTGlyph>
    <TTGlyph name="B" xMin="74" yMin="0" xMax="578" yMax="663">
      <contour>
        <pt x="74" y="663" on="1"/>
        <pt x="323" y="663" on="1"/>
        <pt x="432" y="663" on="0"/>
        <pt x="483" y="622" on="1"/>
        <pt x="534" y="582" on="0"/>
        <pt x="534" y="502" on="1"/>
        <pt x="534" y="459" on="0"/>
        <pt x="498" y="382" on="0"/>
        <pt x="467" y="350" on="1"/>
        <pt x="515" y="333" on="0"/>
        <pt x="578" y="255" on="0"/>
        <pt x="578" y="191" on="1"/>
        <pt x="578" y="106" on="0"/>
        <pt x="525" y="56" on="1"/>
        <pt x="496" y="29" on="0"/>
        <pt x="410" y="0" on="0"/>
        <pt x="350" y="0" on="1"/>
        <pt x="74" y="0" on="1"/>
      </contour>
      <contour>
        <pt x="167" y="77" on="1"/>
        <pt x="345" y="77" on="1"/>
        <pt x="426" y="77" on="0"/>
        <pt x="457" y="111" on="1"/>
        <pt x="483" y="139" on="0"/>
        <pt x="483" y="192" on="1"/>
        <pt x="483" y="245" on="0"/>
        <pt x="460" y="269" on="1"/>
        <pt x="446" y="284" on="0"/>
        <pt x="396" y="299" on="0"/>
        <pt x="356" y="299" on="1"/>
        <pt x="167" y="299" on="1"/>
      </contour>
      <contour>
        <pt x="369" y="373" on="1"/>
        <pt x="385" y="373" on="0"/>
        <pt x="402" y="381" on="0"/>
        <pt x="410" y="390" on="1"/>
        <pt x="424" y="407" on="0"/>
        <pt x="443" y="462" on="0"/>
        <pt x="443" y="492" on="1"/>
        <pt x="443" y="539" on="0"/>
        <pt x="422" y="560" on="1"/>
        <pt x="397" y="586" on="0"/>
        <pt x="327" y="586" on="1"/>
        <pt x="167" y="586" on="1"/>
        <pt x="167" y="373" on="1"/>
      </contour>
    </TTGlyph>
    <TTGlyph name="C" xMin="37" yMin="-10" xMax="639" yMax="673">
      <contour>
        <pt x="639" y="119" on="1"/>
        <pt x="585" y="60" on="0"/>
        <pt x="433" y="-10" on="0"/>
        <pt x="352" y="-10" on="1"/>
        <pt x="283" y="-10" on="0"/>
        <pt x="167" y="40" on="0"/>
        <pt x="84" y="130" on="0"/>
        <pt x="37" y="256" on="0"/>
        <pt x="37" y="332" on="1"/>
        <pt x="37" y="402" on="0"/>
        <pt x="83" y="526" on="0"/>
        <pt x="167" y="619" on="0"/>
        <pt x="284" y="673" on="0"/>
        <pt x="355" y="673" on="1"/>
        <pt x="450" y="673" on="0"/>
        <pt x="590" y="572" on="0"/>
        <pt x="624" y="489" on="1"/>
        <pt x="562" y="452" on="1"/>
        <pt x="499" y="515" on="1"/>
        <pt x="464" y="550" on="0"/>
        <pt x="396" y="585" on="0"/>
        <pt x="349" y="585" on="1"/>
        <pt x="298" y="585" on="0"/>
        <pt x="217" y="548" on="0"/>
        <pt x="162" y="480" on="0"/>
        <pt x="133" y="387" on="0"/>
        <pt x="133" y="331" on="1"/>
        <pt x="133" y="211" on="0"/>
        <pt x="252" y="78" on="0"/>
        <pt x="364" y="78" on="1"/>
        <pt x="399" y="78" on="0"/>
        <pt x="476" y="101" on="0"/>
        <pt x="516" y="121" on="1"/>
        <pt x="603" y="166" on="1"/>
      </contour>
    </TTGlyph>
    <TTGlyph name="Cacute" xMin="37" yMin="-10" xMax="639" yMax="903">
      <component glyphName="C" x="0" y="0" flags="0x204"/>
      <component glyphName="acute.cap" x="155" y="0" flags="0x4"/>
    </TTGlyph>
    <TTGlyph name="Ccaron" xMin="37" yMin="-10" xMax="639" yMax="900">
      <component glyphName="C" x="0" y="0" flags="0x204"/>
      <component glyphName="caron.cap" x="154" y="0" flags="0x4"/>
    </TTGlyph>
    <TTGlyph name="Ccedilla" xMin="37" yMin="-228" xMax="639" yMax="673">
      <contour>
        <pt x="639" y="119" on="1"/>
        <pt x="586" y="62" on="0"/>
        <pt x="440" y="-8" on="0"/>
        <pt x="361" y="-10" on="1"/>
        <pt x="353" y="-23" on="0"/>
        <pt x="353" y="-32" on="1"/>
        <pt x="353" y="-43" on="0"/>
        <pt x="388" y="-55" on="0"/>
        <pt x="430" y="-72" on="0"/>
        <pt x="465" y="-102" on="0"/>
        <pt x="465" y="-132" on="1"/>
        <pt x="465" y="-174" on="0"/>
        <pt x="380" y="-228" on="0"/>
        <pt x="292" y="-228" on="1"/>
        <pt x="282" y="-178" on="1"/>
        <pt x="344" y="-166" on="1"/>
        <pt x="367" y="-161" on="0"/>
        <pt x="386" y="-148" on="0"/>
        <pt x="386" y="-139" on="1"/>
        <pt x="386" y="-129" on="0"/>
        <pt x="354" y="-116" on="0"/>
        <pt x="315" y="-101" on="0"/>
        <pt x="283" y="-79" on="0"/>
        <pt x="283" y="-60" on="1"/>
        <pt x="283" y="-48" on="0"/>
        <pt x="298" y="-21" on="0"/>
        <pt x="309" y="-7" on="1"/>
        <pt x="249" y="0" on="0"/>
        <pt x="149" y="55" on="0"/>
        <pt x="77" y="144" on="0"/>
        <pt x="37" y="262" on="0"/>
        <pt x="37" y="332" on="1"/>
        <pt x="37" y="402" on="0"/>
        <pt x="83" y="526" on="0"/>
        <pt x="167" y="619" on="0"/>
        <pt x="284" y="673" on="0"/>
        <pt x="355" y="673" on="1"/>
        <pt x="450" y="673" on="0"/>
        <pt x="590" y="572" on="0"/>
        <pt x="624" y="489" on="1"/>
        <pt x="562" y="452" on="1"/>
        <pt x="499" y="515" on="1"/>
        <pt x="464" y="550" on="0"/>
        <pt x="396" y="585" on="0"/>
        <pt x="349" y="585" on="1"/>
        <pt x="298" y="585" on="0"/>
        <pt x="217" y="548" on="0"/>
        <pt x="162" y="480" on="0"/>
        <pt x="133" y="387" on="0"/>
        <pt x="133" y="331" on="1"/>
        <pt x="133" y="211" on="0"/>
        <pt x="252" y="78" on="0"/>
        <pt x="364" y="78" on="1"/>
        <pt x="399" y="78" on="0"/>
        <pt x="476" y="101" on="0"/>
        <pt x="516" y="121" on="1"/>
        <pt x="603" y="166" on="1"/>
      </contour>
    </TTGlyph>
    <TTGlyph name="Ccircumflex" xMin="37" yMin="-10" xMax="639" yMax="894">
      <component glyphName="C" x="0" y="0" flags="0x204"/>
      <component glyphName="circumflex.cap" x="154" y="0" flags="0x4"/>
    </TTGlyph>
    <TTGlyph name="Cdotaccent" xMin="37" yMin="-10" xMax="639" yMax="840">
      <component glyphName="C" x="0" y="0" flags="0x204"/>
      <component glyphName="dotaccent.cap" x="154" y="0" flags="0x4"/>
    </TTGlyph>
    <TTGlyph name="D" xMin="74" yMin="0" xMax="658" yMax="663">
      <contour>
        <pt x="253" y="78" on="1"/>
        <pt x="336" y="78" on="0"/>
        <pt x="460" y="104" on="0"/>
        <pt x="499" y="142" on="1"/>
        <pt x="529" y="171" on="0"/>
        <pt x="562" y="266" on="0"/>
        <pt x="562" y="332" on="1"/>
        <pt x="562" y="398" on="0"/>
        <pt x="529" y="492" on="0"/>
        <pt x="499" y="521" on="1"/>
        <pt x="460" y="559" on="0"/>
        <pt x="336" y="585" on="0"/>
        <pt x="253" y="585" on="1"/>
        <pt x="167" y="585" on="1"/>
        <pt x="167" y="78" on="1"/>
      </contour>
      <contour>
        <pt x="74" y="0" on="1"/>
        <pt x="74" y="663" on="1"/>
        <pt x="271" y="663" on="1"/>
        <pt x="371" y="663" on="0"/>
        <pt x="518" y="621" on="0"/>
        <pt x="568" y="575" on="1"/>
        <pt x="612" y="534" on="0"/>
        <pt x="658" y="413" on="0"/>
        <pt x="658" y="332" on="1"/>
        <pt x="658" y="251" on="0"/>
        <pt x="612" y="129" on="0"/>
        <pt x="568" y="88" on="1"/>
        <pt x="518" y="42" on="0"/>
        <pt x="371" y="0" on="0"/>
        <pt x="271" y="0" on="1"/>
      </contour>
    </TTGlyph>
    <TTGlyph name="Dcaron" xMin="74" yMin="0" xMax="658" yMax="900">
      <component glyphName="D" x="0" y="0" flags="0x204"/>
      <component glyphName="caron.cap" x="152" y="0" flags="0x4"/>
    </TTGlyph>
    <TTGlyph name="Dcroat" xMin="0" yMin="0" xMax="674" yMax="663">
      <contour>
        <pt x="90" y="375" on="1"/>
        <pt x="90" y="663" on="1"/>
        <pt x="287" y="663" on="1"/>
        <pt x="387" y="663" on="0"/>
        <pt x="534" y="621" on="0"/>
        <pt x="584" y="575" on="1"/>
        <pt x="628" y="534" on="0"/>
        <pt x="674" y="413" on="0"/>
        <pt x="674" y="332" on="1"/>
        <pt x="674" y="251" on="0"/>
        <pt x="628" y="129" on="0"/>
        <pt x="584" y="88" on="1"/>
        <pt x="534" y="42" on="0"/>
        <pt x="387" y="0" on="0"/>
        <pt x="287" y="0" on="1"/>
        <pt x="90" y="0" on="1"/>
        <pt x="90" y="304" on="1"/>
        <pt x="0" y="304" on="1"/>
        <pt x="0" y="375" on="1"/>
      </contour>
      <contour>
        <pt x="270" y="78" on="1"/>
        <pt x="353" y="78" on="0"/>
        <pt x="476" y="104" on="0"/>
        <pt x="515" y="142" on="1"/>
        <pt x="545" y="171" on="0"/>
        <pt x="578" y="266" on="0"/>
        <pt x="578" y="332" on="1"/>
        <pt x="578" y="398" on="0"/>
        <pt x="545" y="492" on="0"/>
        <pt x="515" y="521" on="1"/>
        <pt x="476" y="559" on="0"/>
        <pt x="353" y="585" on="0"/>
        <pt x="270" y="585" on="1"/>
        <pt x="183" y="585" on="1"/>
        <pt x="183" y="375" on="1"/>
        <pt x="343" y="375" on="1"/>
        <pt x="343" y="304" on="1"/>
        <pt x="183" y="304" on="1"/>
        <pt x="183" y="78" on="1"/>
      </contour>
    </TTGlyph>
    <TTGlyph name="Delta" xMin="37" yMin="0" xMax="625" yMax="663">
      <contour>
        <pt x="430" y="77" on="1"/>
        <pt x="452" y="77" on="0"/>
        <pt x="511" y="76" on="0"/>
        <pt x="532" y="74" on="1"/>
        <pt x="528" y="81" on="0"/>
        <pt x="516" y="106" on="0"/>
        <pt x="503" y="137" on="0"/>
        <pt x="489" y="170" on="0"/>
        <pt x="483" y="185" on="1"/>
        <pt x="402" y="388" on="1"/>
        <pt x="393" y="410" on="0"/>
        <pt x="371" y="464" on="0"/>
        <pt x="350" y="517" on="0"/>
        <pt x="331" y="566" on="0"/>
        <pt x="325" y="583" on="1"/>
        <pt x="320" y="566" on="0"/>
        <pt x="301" y="516" on="0"/>
        <pt x="280" y="462" on="0"/>
        <pt x="260" y="410" on="0"/>
        <pt x="253" y="391" on="1"/>
        <pt x="164" y="159" on="1"/>
        <pt x="156" y="139" on="0"/>
        <pt x="136" y="88" on="0"/>
        <pt x="128" y="74" on="1"/>
        <pt x="149" y="76" on="0"/>
        <pt x="208" y="77" on="0"/>
        <pt x="230" y="77" on="1"/>
      </contour>
      <contour>
        <pt x="625" y="0" on="1"/>
        <pt x="37" y="0" on="1"/>
        <pt x="37" y="49" on="1"/>
        <pt x="37" y="63" on="0"/>
        <pt x="40" y="78" on="0"/>
        <pt x="46" y="92" on="1"/>
        <pt x="275" y="663" on="1"/>
        <pt x="365" y="663" on="1"/>
        <pt x="373" y="663" on="0"/>
        <pt x="380" y="658" on="0"/>
        <pt x="382" y="652" on="1"/>
        <pt x="616" y="93" on="1"/>
        <pt x="622" y="79" on="0"/>
        <pt x="625" y="64" on="0"/>
        <pt x="625" y="50" on="1"/>
      </contour>
    </TTGlyph>
    <TTGlyph name="E" xMin="74" yMin="0" xMax="521" yMax="663">
      <contour>
        <pt x="510" y="663" on="1"/>
        <pt x="510" y="586" on="1"/>
        <pt x="167" y="586" on="1"/>
        <pt x="167" y="381" on="1"/>
        <pt x="474" y="381" on="1"/>
        <pt x="474" y="305" on="1"/>
        <pt x="167" y="305" on="1"/>
        <pt x="167" y="77" on="1"/>
        <pt x="521" y="77" on="1"/>
        <pt x="521" y="0" on="1"/>
        <pt x="74" y="0" on="1"/>
        <pt x="74" y="663" on="1"/>
      </contour>
    </TTGlyph>
    <TTGlyph name="Eacute" xMin="74" yMin="0" xMax="521" yMax="903">
      <component glyphName="E" x="0" y="0" flags="0x204"/>
      <component glyphName="acute.cap" x="101" y="0" flags="0x4"/>
    </TTGlyph>
    <TTGlyph name="Ebreve" xMin="74" yMin="0" xMax="521" yMax="880">
      <component glyphName="E" x="0" y="0" flags="0x204"/>
      <component glyphName="breve.cap" x="101" y="0" flags="0x4"/>
    </TTGlyph>
    <TTGlyph name="Ecaron" xMin="74" yMin="0" xMax="521" yMax="900">
      <component glyphName="E" x="0" y="0" flags="0x204"/>
      <component glyphName="caron.cap" x="105" y="0" flags="0x4"/>
    </TTGlyph>
    <TTGlyph name="Ecircumflex" xMin="74" yMin="0" xMax="521" yMax="894">
      <component glyphName="E" x="0" y="0" flags="0x204"/>
      <component glyphName="circumflex.cap" x="93" y="0" flags="0x4"/>
    </TTGlyph>
    <TTGlyph name="Edieresis" xMin="74" yMin="0" xMax="521" yMax="847">
      <component glyphName="E" x="0" y="0" flags="0x204"/>
      <component glyphName="dieresis.cap" x="97" y="0" flags="0x4"/>
    </TTGlyph>
    <TTGlyph name="Edotaccent" xMin="74" yMin="0" xMax="521" yMax="840">
      <component glyphName="E" x="0" y="0" flags="0x204"/>
      <component glyphName="dotaccent.cap" x="102" y="0" flags="0x4"/>
    </TTGlyph>
    <TTGlyph name="Egrave" xMin="74" yMin="0" xMax="521" yMax="903">
      <component glyphName="E" x="0" y="0" flags="0x204"/>
      <component glyphName="grave.cap" x="99" y="0" flags="0x4"/>
    </TTGlyph>
    <TTGlyph name="Emacron" xMin="74" yMin="0" xMax="521" yMax="831">
      <component glyphName="E" x="0" y="0" flags="0x204"/>
      <component glyphName="macron.cap" x="95" y="0" flags="0x4"/>
    </TTGlyph>
    <TTGlyph name="Eng" xMin="74" yMin="-222" xMax="655" yMax="663">
      <contour>
        <pt x="284" y="368" on="1"/>
        <pt x="267" y="389" on="0"/>
        <pt x="232" y="434" on="0"/>
        <pt x="199" y="476" on="0"/>
        <pt x="171" y="512" on="0"/>
        <pt x="163" y="523" on="1"/>
        <pt x="163" y="0" on="1"/>
        <pt x="74" y="0" on="1"/>
        <pt x="74" y="663" on="1"/>
        <pt x="138" y="663" on="1"/>
        <pt x="146" y="663" on="0"/>
        <pt x="154" y="660" on="0"/>
        <pt x="160" y="653" on="1"/>
        <pt x="446" y="295" on="1"/>
        <pt x="463" y="274" on="0"/>
        <pt x="498" y="230" on="0"/>
        <pt x="530" y="188" on="0"/>
        <pt x="557" y="153" on="0"/>
        <pt x="566" y="141" on="1"/>
        <pt x="566" y="663" on="1"/>
        <pt x="655" y="663" on="1"/>
        <pt x="655" y="-25" on="1"/>
        <pt x="655" y="-76" on="0"/>
        <pt x="633" y="-147" on="0"/>
        <pt x="610" y="-173" on="1"/>
        <pt x="566" y="-222" on="0"/>
        <pt x="482" y="-222" on="1"/>
        <pt x="449" y="-222" on="0"/>
        <pt x="387" y="-207" on="0"/>
        <pt x="366" y="-195" on="1"/>
        <pt x="380" y="-139" on="1"/>
        <pt x="400" y="-142" on="0"/>
        <pt x="447" y="-145" on="0"/>
        <pt x="461" y="-145" on="1"/>
        <pt x="520" y="-145" on="0"/>
        <pt x="566" y="-93" on="0"/>
        <pt x="566" y="-31" on="1"/>
        <pt x="566" y="15" on="1"/>
      </contour>
    </TTGlyph>
    <TTGlyph name="Eogonek" xMin="74" yMin="-203" xMax="527" yMax="663">
      <contour>
        <pt x="510" y="663" on="1"/>
        <pt x="510" y="586" on="1"/>
        <pt x="167" y="586" on="1"/>
        <pt x="167" y="381" on="1"/>
        <pt x="474" y="381" on="1"/>
        <pt x="474" y="305" on="1"/>
        <pt x="167" y="305" on="1"/>
        <pt x="167" y="77" on="1"/>
        <pt x="521" y="77" on="1"/>
        <pt x="521" y="0" on="1"/>
        <pt x="489" y="0" on="1"/>
        <pt x="466" y="0" on="0"/>
        <pt x="434" y="-17" on="0"/>
        <pt x="418" y="-36" on="1"/>
        <pt x="407" y="-49" on="0"/>
        <pt x="394" y="-82" on="0"/>
        <pt x="394" y="-96" on="1"/>
        <pt x="394" y="-117" on="0"/>
        <pt x="420" y="-141" on="0"/>
        <pt x="447" y="-141" on="1"/>
        <pt x="455" y="-141" on="0"/>
        <pt x="478" y="-139" on="0"/>
        <pt x="489" y="-137" on="1"/>
        <pt x="512" y="-133" on="1"/>
        <pt x="527" y="-178" on="1"/>
        <pt x="506" y="-190" on="0"/>
        <pt x="455" y="-203" on="0"/>
        <pt x="432" y="-203" on="1"/>
        <pt x="381" y="-203" on="0"/>
        <pt x="316" y="-151" on="0"/>
        <pt x="316" y="-109" on="1"/>
        <pt x="316" y="-78" on="0"/>
        <pt x="353" y="-22" on="0"/>
        <pt x="381" y="0" on="1"/>
        <pt x="74" y="0" on="1"/>
        <pt x="74" y="663" on="1"/>
      </contour>
    </TTGlyph>
    <TTGlyph name="Eth" xMin="0" yMin="0" xMax="674" yMax="663">
      <contour>
        <pt x="90" y="375" on="1"/>
        <pt x="90" y="663" on="1"/>
        <pt x="287" y="663" on="1"/>
        <pt x="387" y="663" on="0"/>
        <pt x="534" y="621" on="0"/>
        <pt x="584" y="575" on="1"/>
        <pt x="628" y="534" on="0"/>
        <pt x="674" y="413" on="0"/>
        <pt x="674" y="332" on="1"/>
        <pt x="674" y="251" on="0"/>
        <pt x="628" y="129" on="0"/>
        <pt x="584" y="88" on="1"/>
        <pt x="534" y="42" on="0"/>
        <pt x="387" y="0" on="0"/>
        <pt x="287" y="0" on="1"/>
        <pt x="90" y="0" on="1"/>
        <pt x="90" y="304" on="1"/>
        <pt x="0" y="304" on="1"/>
        <pt x="0" y="375" on="1"/>
      </contour>
      <contour>
        <pt x="270" y="78" on="1"/>
        <pt x="353" y="78" on="0"/>
        <pt x="476" y="104" on="0"/>
        <pt x="515" y="142" on="1"/>
        <pt x="545" y="171" on="0"/>
        <pt x="578" y="266" on="0"/>
        <pt x="578" y="332" on="1"/>
        <pt x="578" y="398" on="0"/>
        <pt x="545" y="492" on="0"/>
        <pt x="515" y="521" on="1"/>
        <pt x="476" y="559" on="0"/>
        <pt x="353" y="585" on="0"/>
        <pt x="270" y="585" on="1"/>
        <pt x="183" y="585" on="1"/>
        <pt x="183" y="375" on="1"/>
        <pt x="343" y="375" on="1"/>
        <pt x="343" y="304" on="1"/>
        <pt x="183" y="304" on="1"/>
        <pt x="183" y="78" on="1"/>
      </contour>
    </TTGlyph>
    <TTGlyph name="Euro" xMin="28" yMin="-10" xMax="584" yMax="673">
      <contour>
        <pt x="102" y="414" on="1"/>
        <pt x="111" y="472" on="0"/>
        <pt x="156" y="567" on="0"/>
        <pt x="224" y="635" on="0"/>
        <pt x="310" y="673" on="0"/>
        <pt x="361" y="673" on="1"/>
        <pt x="435" y="673" on="0"/>
        <pt x="549" y="592" on="0"/>
        <pt x="579" y="526" on="1"/>
        <pt x="526" y="494" on="1"/>
        <pt x="477" y="540" on="1"/>
        <pt x="448" y="567" on="0"/>
        <pt x="397" y="594" on="0"/>
        <pt x="360" y="594" on="1"/>
        <pt x="297" y="594" on="0"/>
        <pt x="205" y="506" on="0"/>
        <pt x="192" y="416" on="1"/>
        <pt x="402" y="416" on="1"/>
        <pt x="402" y="357" on="1"/>
        <pt x="186" y="357" on="1"/>
        <pt x="185" y="349" on="0"/>
        <pt x="185" y="337" on="0"/>
        <pt x="185" y="330" on="1"/>
        <pt x="185" y="320" on="0"/>
        <pt x="185" y="304" on="0"/>
        <pt x="186" y="296" on="1"/>
        <pt x="402" y="296" on="1"/>
        <pt x="402" y="236" on="1"/>
        <pt x="195" y="236" on="1"/>
        <pt x="207" y="158" on="0"/>
        <pt x="302" y="70" on="0"/>
        <pt x="372" y="70" on="1"/>
        <pt x="433" y="70" on="0"/>
        <pt x="496" y="105" on="1"/>
        <pt x="550" y="135" on="1"/>
        <pt x="584" y="94" on="1"/>
        <pt x="544" y="46" on="0"/>
        <pt x="425" y="-10" on="0"/>
        <pt x="364" y="-10" on="1"/>
        <pt x="313" y="-10" on="0"/>
        <pt x="225" y="25" on="0"/>
        <pt x="157" y="90" on="0"/>
        <pt x="112" y="181" on="0"/>
        <pt x="104" y="237" on="1"/>
        <pt x="28" y="237" on="1"/>
        <pt x="28" y="285" on="1"/>
        <pt x="97" y="294" on="1"/>
        <pt x="96" y="304" on="0"/>
        <pt x="95" y="321" on="0"/>
        <pt x="95" y="332" on="1"/>
        <pt x="95" y="337" on="0"/>
        <pt x="95" y="352" on="0"/>
        <pt x="96" y="357" on="1"/>
        <pt x="28" y="357" on="1"/>
        <pt x="28" y="405" on="1"/>
      </contour>
    </TTGlyph>
    <TTGlyph name="Euro.lprop" xMin="33" yMin="-10" xMax="589" yMax="673">
      <component glyphName="Euro" x="5" y="0" flags="0x4"/>
    </TTGlyph>
    <TTGlyph name="Euro.oprop" xMin="40" yMin="-8" xMax="554" yMax="496">
      <contour>
        <pt x="40" y="214" on="1"/>
        <pt x="107" y="224" on="1"/>
        <pt x="107" y="257" on="1"/>
        <pt x="40" y="257" on="1"/>
        <pt x="40" y="295" on="1"/>
        <pt x="113" y="305" on="1"/>
        <pt x="121" y="347" on="0"/>
        <pt x="161" y="418" on="0"/>
        <pt x="219" y="468" on="0"/>
        <pt x="293" y="496" on="0"/>
        <pt x="337" y="496" on="1"/>
        <pt x="373" y="496" on="0"/>
        <pt x="438" y="474" on="0"/>
        <pt x="491" y="435" on="0"/>
        <pt x="531" y="382" on="0"/>
        <pt x="542" y="351" on="1"/>
        <pt x="486" y="325" on="1"/>
        <pt x="454" y="358" on="1"/>
        <pt x="422" y="392" on="0"/>
        <pt x="366" y="421" on="0"/>
        <pt x="331" y="421" on="1"/>
        <pt x="284" y="421" on="0"/>
        <pt x="213" y="361" on="0"/>
        <pt x="201" y="307" on="1"/>
        <pt x="379" y="307" on="1"/>
        <pt x="379" y="257" on="1"/>
        <pt x="194" y="257" on="1"/>
        <pt x="194" y="245" on="0"/>
        <pt x="194" y="232" on="0"/>
        <pt x="195" y="227" on="1"/>
        <pt x="379" y="227" on="1"/>
        <pt x="379" y="176" on="1"/>
        <pt x="203" y="176" on="1"/>
        <pt x="232" y="69" on="0"/>
        <pt x="351" y="69" on="1"/>
        <pt x="378" y="69" on="0"/>
        <pt x="435" y="86" on="0"/>
        <pt x="469" y="101" on="1"/>
        <pt x="524" y="126" on="1"/>
        <pt x="554" y="81" on="1"/>
        <pt x="509" y="41" on="0"/>
        <pt x="398" y="-8" on="0"/>
        <pt x="342" y="-8" on="1"/>
        <pt x="251" y="-8" on="0"/>
        <pt x="132" y="91" on="0"/>
        <pt x="114" y="176" on="1"/>
        <pt x="40" y="176" on="1"/>
      </contour>
    </TTGlyph>
    <TTGlyph name="Euro.otab" xMin="37" yMin="-8" xMax="551" yMax="496">
      <contour>
        <pt x="37" y="214" on="1"/>
        <pt x="104" y="224" on="1"/>
        <pt x="104" y="257" on="1"/>
        <pt x="37" y="257" on="1"/>
        <pt x="37" y="295" on="1"/>
        <pt x="110" y="305" on="1"/>
        <pt x="118" y="347" on="0"/>
        <pt x="158" y="418" on="0"/>
        <pt x="216" y="468" on="0"/>
        <pt x="290" y="496" on="0"/>
        <pt x="334" y="496" on="1"/>
        <pt x="370" y="496" on="0"/>
        <pt x="435" y="474" on="0"/>
        <pt x="488" y="435" on="0"/>
        <pt x="528" y="382" on="0"/>
        <pt x="539" y="351" on="1"/>
        <pt x="483" y="325" on="1"/>
        <pt x="451" y="358" on="1"/>
        <pt x="419" y="392" on="0"/>
        <pt x="363" y="421" on="0"/>
        <pt x="328" y="421" on="1"/>
        <pt x="281" y="421" on="0"/>
        <pt x="210" y="361" on="0"/>
        <pt x="198" y="307" on="1"/>
        <pt x="376" y="307" on="1"/>
        <pt x="376" y="257" on="1"/>
        <pt x="191" y="257" on="1"/>
        <pt x="191" y="245" on="0"/>
        <pt x="191" y="232" on="0"/>
        <pt x="192" y="227" on="1"/>
        <pt x="376" y="227" on="1"/>
        <pt x="376" y="176" on="1"/>
        <pt x="200" y="176" on="1"/>
        <pt x="229" y="69" on="0"/>
        <pt x="348" y="69" on="1"/>
        <pt x="375" y="69" on="0"/>
        <pt x="432" y="86" on="0"/>
        <pt x="466" y="101" on="1"/>
        <pt x="521" y="126" on="1"/>
        <pt x="551" y="81" on="1"/>
        <pt x="506" y="41" on="0"/>
        <pt x="395" y="-8" on="0"/>
        <pt x="339" y="-8" on="1"/>
        <pt x="248" y="-8" on="0"/>
        <pt x="129" y="91" on="0"/>
        <pt x="111" y="176" on="1"/>
        <pt x="37" y="176" on="1"/>
      </contour>
    </TTGlyph>
    <TTGlyph name="F" xMin="74" yMin="0" xMax="500" yMax="663">
      <contour>
        <pt x="500" y="663" on="1"/>
        <pt x="500" y="586" on="1"/>
        <pt x="167" y="586" on="1"/>
        <pt x="167" y="381" on="1"/>
        <pt x="464" y="381" on="1"/>
        <pt x="464" y="305" on="1"/>
        <pt x="167" y="305" on="1"/>
        <pt x="167" y="0" on="1"/>
        <pt x="74" y="0" on="1"/>
        <pt x="74" y="663" on="1"/>
      </contour>
    </TTGlyph>
    <TTGlyph name="G" xMin="38" yMin="-10" xMax="661" yMax="673">
      <contour>
        <pt x="581" y="464" on="1"/>
        <pt x="515" y="521" on="1"/>
        <pt x="477" y="553" on="0"/>
        <pt x="408" y="586" on="0"/>
        <pt x="359" y="586" on="1"/>
        <pt x="305" y="586" on="0"/>
        <pt x="222" y="550" on="0"/>
        <pt x="164" y="484" on="0"/>
        <pt x="134" y="390" on="0"/>
        <pt x="134" y="332" on="1"/>
        <pt x="134" y="204" on="0"/>
        <pt x="260" y="77" on="0"/>
        <pt x="367" y="77" on="1"/>
        <pt x="408" y="77" on="0"/>
        <pt x="513" y="102" on="0"/>
        <pt x="558" y="126" on="1"/>
        <pt x="567" y="131" on="0"/>
        <pt x="571" y="139" on="0"/>
        <pt x="571" y="148" on="1"/>
        <pt x="571" y="267" on="1"/>
        <pt x="442" y="267" on="1"/>
        <pt x="442" y="338" on="1"/>
        <pt x="645" y="338" on="1"/>
        <pt x="655" y="338" on="0"/>
        <pt x="661" y="333" on="0"/>
        <pt x="661" y="325" on="1"/>
        <pt x="661" y="0" on="1"/>
        <pt x="595" y="0" on="1"/>
        <pt x="578" y="61" on="1"/>
        <pt x="522" y="33" on="1"/>
        <pt x="478" y="11" on="0"/>
        <pt x="400" y="-10" on="0"/>
        <pt x="353" y="-10" on="1"/>
        <pt x="281" y="-10" on="0"/>
        <pt x="165" y="42" on="0"/>
        <pt x="82" y="133" on="0"/>
        <pt x="38" y="258" on="0"/>
        <pt x="38" y="330" on="1"/>
        <pt x="38" y="408" on="0"/>
        <pt x="89" y="534" on="0"/>
        <pt x="177" y="624" on="0"/>
        <pt x="295" y="673" on="0"/>
        <pt x="363" y="673" on="1"/>
        <pt x="411" y="673" on="0"/>
        <pt x="496" y="647" on="0"/>
        <pt x="567" y="601" on="0"/>
        <pt x="622" y="540" on="0"/>
        <pt x="640" y="504" on="1"/>
      </contour>
    </TTGlyph>
    <TTGlyph name="Gbreve" xMin="38" yMin="-10" xMax="661" yMax="880">
      <component glyphName="G" x="0" y="0" flags="0x204"/>
      <component glyphName="breve.cap" x="163" y="0" flags="0x4"/>
    </TTGlyph>
    <TTGlyph name="Gcircumflex" xMin="38" yMin="-10" xMax="661" yMax="894">
      <component glyphName="G" x="0" y="0" flags="0x204"/>
      <component glyphName="circumflex.cap" x="163" y="0" flags="0x4"/>
    </TTGlyph>
    <TTGlyph name="Gcommaaccent" xMin="38" yMin="-269" xMax="661" yMax="673">
      <component glyphName="G" x="0" y="0" flags="0x204"/>
      <component glyphName="commaaccent" x="163" y="0" flags="0x4"/>
    </TTGlyph>
    <TTGlyph name="Gdotaccent" xMin="38" yMin="-10" xMax="661" yMax="840">
      <component glyphName="G" x="0" y="0" flags="0x204"/>
      <component glyphName="dotaccent.cap" x="164" y="0" flags="0x4"/>
    </TTGlyph>
    <TTGlyph name="H" xMin="74" yMin="0" xMax="626" yMax="663">
      <contour>
        <pt x="533" y="305" on="1"/>
        <pt x="167" y="305" on="1"/>
        <pt x="167" y="0" on="1"/>
        <pt x="74" y="0" on="1"/>
        <pt x="74" y="663" on="1"/>
        <pt x="167" y="663" on="1"/>
        <pt x="167" y="384" on="1"/>
        <pt x="533" y="384" on="1"/>
        <pt x="533" y="663" on="1"/>
        <pt x="626" y="663" on="1"/>
        <pt x="626" y="0" on="1"/>
        <pt x="533" y="0" on="1"/>
      </contour>
    </TTGlyph>
    <TTGlyph name="Hbar" xMin="8" yMin="0" xMax="708" yMax="663">
      <contour>
        <pt x="541" y="305" on="1"/>
        <pt x="175" y="305" on="1"/>
        <pt x="175" y="0" on="1"/>
        <pt x="82" y="0" on="1"/>
        <pt x="82" y="493" on="1"/>
        <pt x="8" y="493" on="1"/>
        <pt x="8" y="561" on="1"/>
        <pt x="82" y="561" on="1"/>
        <pt x="82" y="663" on="1"/>
        <pt x="175" y="663" on="1"/>
        <pt x="175" y="561" on="1"/>
        <pt x="541" y="561" on="1"/>
        <pt x="541" y="663" on="1"/>
        <pt x="634" y="663" on="1"/>
        <pt x="634" y="561" on="1"/>
        <pt x="708" y="561" on="1"/>
        <pt x="708" y="493" on="1"/>
        <pt x="634" y="493" on="1"/>
        <pt x="634" y="0" on="1"/>
        <pt x="541" y="0" on="1"/>
      </contour>
      <contour>
        <pt x="541" y="384" on="1"/>
        <pt x="541" y="493" on="1"/>
        <pt x="175" y="493" on="1"/>
        <pt x="175" y="384" on="1"/>
      </contour>
    </TTGlyph>
    <TTGlyph name="Hcircumflex" xMin="74" yMin="0" xMax="626" yMax="894">
      <component glyphName="H" x="0" y="0" flags="0x204"/>
      <component glyphName="circumflex.cap" x="151" y="0" flags="0x4"/>
    </TTGlyph>
    <TTGlyph name="I" xMin="78" yMin="0" xMax="171" yMax="663">
      <contour>
        <pt x="78" y="663" on="1"/>
        <pt x="171" y="663" on="1"/>
        <pt x="171" y="0" on="1"/>
        <pt x="78" y="0" on="1"/>
      </contour>
    </TTGlyph>
    <TTGlyph name="IJ" xMin="78" yMin="-10" xMax="665" yMax="663">
      <component glyphName="I" x="0" y="0" flags="0x4"/>
      <component glyphName="J" x="244" y="0" flags="0x4"/>
    </TTGlyph>
    <TTGlyph name="Iacute" xMin="0" yMin="0" xMax="246" yMax="903">
      <component glyphName="I" x="-4" y="0" flags="0x204"/>
      <component glyphName="acute.cap" x="-76" y="0" flags="0x4"/>
    </TTGlyph>
    <TTGlyph name="Ibreve" xMin="-31" yMin="0" xMax="280" yMax="880">
      <component glyphName="I" x="0" y="0" flags="0x204"/>
      <component glyphName="breve.cap" x="-74" y="0" flags="0x4"/>
    </TTGlyph>
    <TTGlyph name="Icircumflex" xMin="-40" yMin="0" xMax="289" yMax="894">
      <component glyphName="I" x="0" y="0" flags="0x204"/>
      <component glyphName="circumflex.cap" x="-74" y="0" flags="0x4"/>
    </TTGlyph>
    <TTGlyph name="Idieresis" xMin="-19" yMin="0" xMax="268" yMax="847">
      <component glyphName="I" x="0" y="0" flags="0x204"/>
      <component glyphName="dieresis.cap" x="-74" y="0" flags="0x4"/>
    </TTGlyph>
    <TTGlyph name="Idotaccent" xMin="72" yMin="0" xMax="178" yMax="840">
      <component glyphName="I" x="1" y="0" flags="0x204"/>
      <component glyphName="dotaccent.cap" x="-74" y="0" flags="0x4"/>
    </TTGlyph>
    <TTGlyph name="Igrave" xMin="0" yMin="0" xMax="246" yMax="903">
      <component glyphName="I" x="-4" y="0" flags="0x204"/>
      <component glyphName="grave.cap" x="-76" y="0" flags="0x4"/>
    </TTGlyph>
    <TTGlyph name="Imacron" xMin="-26" yMin="0" xMax="274" yMax="831">
      <component glyphName="I" x="0" y="0" flags="0x204"/>
      <component glyphName="macron.cap" x="-75" y="0" flags="0x4"/>
    </TTGlyph>
    <TTGlyph name="Iogonek" xMin="7" yMin="-203" xMax="218" yMax="663">
      <contour>
        <pt x="7" y="-109" on="1"/>
        <pt x="7" y="-70" on="0"/>
        <pt x="50" y="-12" on="0"/>
        <pt x="78" y="2" on="1"/>
        <pt x="78" y="663" on="1"/>
        <pt x="171" y="663" on="1"/>
        <pt x="171" y="0" on="1"/>
        <pt x="129" y="-11" on="0"/>
        <pt x="85" y="-67" on="0"/>
        <pt x="85" y="-96" on="1"/>
        <pt x="85" y="-117" on="0"/>
        <pt x="111" y="-141" on="0"/>
        <pt x="138" y="-141" on="1"/>
        <pt x="146" y="-141" on="0"/>
        <pt x="169" y="-139" on="0"/>
        <pt x="180" y="-137" on="1"/>
        <pt x="203" y="-133" on="1"/>
        <pt x="218" y="-178" on="1"/>
        <pt x="197" y="-190" on="0"/>
        <pt x="146" y="-203" on="0"/>
        <pt x="123" y="-203" on="1"/>
        <pt x="72" y="-203" on="0"/>
        <pt x="7" y="-151" on="0"/>
      </contour>
    </TTGlyph>
    <TTGlyph name="Itilde" xMin="-44" yMin="0" xMax="294" yMax="859">
      <component glyphName="I" x="0" y="0" flags="0x204"/>
      <component glyphName="tilde.cap" x="-74" y="0" flags="0x4"/>
    </TTGlyph>
    <TTGlyph name="J" xMin="23" yMin="-10" xMax="421" yMax="663">
      <contour>
        <pt x="43" y="102" on="1"/>
        <pt x="97" y="89" on="1"/>
        <pt x="169" y="71" on="0"/>
        <pt x="219" y="71" on="1"/>
        <pt x="278" y="71" on="0"/>
        <pt x="304" y="100" on="1"/>
        <pt x="318" y="115" on="0"/>
        <pt x="328" y="161" on="0"/>
        <pt x="328" y="195" on="1"/>
        <pt x="328" y="663" on="1"/>
        <pt x="421" y="663" on="1"/>
        <pt x="421" y="202" on="1"/>
        <pt x="421" y="145" on="0"/>
        <pt x="395" y="69" on="0"/>
        <pt x="369" y="42" on="1"/>
        <pt x="344" y="17" on="0"/>
        <pt x="273" y="-10" on="0"/>
        <pt x="226" y="-10" on="1"/>
        <pt x="174" y="-10" on="0"/>
        <pt x="67" y="21" on="0"/>
        <pt x="23" y="47" on="1"/>
      </contour>
    </TTGlyph>
    <TTGlyph name="Jcircumflex" xMin="23" yMin="-10" xMax="539" yMax="894">
      <component glyphName="J" x="0" y="0" flags="0x4"/>
      <component glyphName="circumflex.cap" x="176" y="0" flags="0x4"/>
    </TTGlyph>
    <TTGlyph name="K" xMin="74" yMin="0" xMax="625" yMax="668">
      <contour>
        <pt x="279" y="338" on="1"/>
        <pt x="269" y="329" on="0"/>
        <pt x="239" y="305" on="0"/>
        <pt x="208" y="281" on="0"/>
        <pt x="178" y="260" on="0"/>
        <pt x="167" y="254" on="1"/>
        <pt x="167" y="0" on="1"/>
        <pt x="74" y="0" on="1"/>
        <pt x="74" y="663" on="1"/>
        <pt x="167" y="663" on="1"/>
        <pt x="167" y="336" on="1"/>
        <pt x="544" y="668" on="1"/>
        <pt x="597" y="611" on="1"/>
        <pt x="345" y="393" on="1"/>
        <pt x="625" y="0" on="1"/>
        <pt x="533" y="0" on="1"/>
        <pt x="524" y="0" on="0"/>
        <pt x="515" y="4" on="0"/>
        <pt x="510" y="10" on="1"/>
      </contour>
    </TTGlyph>
    <TTGlyph name="Kcommaaccent" xMin="74" yMin="-269" xMax="625" yMax="668">
      <component glyphName="K" x="0" y="0" flags="0x204"/>
      <component glyphName="commaaccent" x="114" y="0" flags="0x4"/>
    </TTGlyph>
    <TTGlyph name="L" xMin="74" yMin="0" xMax="491" yMax="663">
      <contour>
        <pt x="74" y="663" on="1"/>
        <pt x="167" y="663" on="1"/>
        <pt x="167" y="77" on="1"/>
        <pt x="491" y="77" on="1"/>
        <pt x="491" y="0" on="1"/>
        <pt x="74" y="0" on="1"/>
      </contour>
    </TTGlyph>
    <TTGlyph name="Lacute" xMin="40" yMin="0" xMax="491" yMax="903">
      <component glyphName="L" x="0" y="0" flags="0x204"/>
      <component glyphName="acute.cap" x="-36" y="0" flags="0x4"/>
    </TTGlyph>
    <TTGlyph name="Lcaron" xMin="74" yMin="0" xMax="491" yMax="663">
      <component glyphName="L" x="0" y="0" flags="0x204"/>
      <component glyphName="commaaccent" x="125" y="721" flags="0x4"/>
    </TTGlyph>
    <TTGlyph name="Lcommaaccent" xMin="74" yMin="-269" xMax="491" yMax="663">
      <component glyphName="L" x="0" y="0" flags="0x204"/>
      <component glyphName="commaaccent" x="91" y="0" flags="0x4"/>
    </TTGlyph>
    <TTGlyph name="Ldot" xMin="74" yMin="0" xMax="491" yMax="663">
      <component glyphName="L" x="0" y="0" flags="0x204"/>
      <component glyphName="dotaccent" x="172" y="-260" flags="0x4"/>
    </TTGlyph>
    <TTGlyph name="Lslash" xMin="4" yMin="0" xMax="544" yMax="663">
      <contour>
        <pt x="379" y="508" on="1"/>
        <pt x="421" y="447" on="1"/>
        <pt x="220" y="312" on="1"/>
        <pt x="220" y="77" on="1"/>
        <pt x="544" y="77" on="1"/>
        <pt x="544" y="0" on="1"/>
        <pt x="127" y="0" on="1"/>
        <pt x="127" y="263" on="1"/>
        <pt x="46" y="209" on="1"/>
        <pt x="4" y="271" on="1"/>
        <pt x="127" y="353" on="1"/>
        <pt x="127" y="663" on="1"/>
        <pt x="220" y="663" on="1"/>
        <pt x="220" y="402" on="1"/>
      </contour>
    </TTGlyph>
    <TTGlyph name="M" xMin="74" yMin="0" xMax="759" yMax="663">
      <contour>
        <pt x="759" y="0" on="1"/>
        <pt x="669" y="0" on="1"/>
        <pt x="669" y="521" on="1"/>
        <pt x="668" y="521" on="1"/>
        <pt x="662" y="511" on="0"/>
        <pt x="640" y="481" on="0"/>
        <pt x="615" y="447" on="0"/>
        <pt x="589" y="413" on="0"/>
        <pt x="577" y="398" on="1"/>
        <pt x="448" y="235" on="1"/>
        <pt x="396" y="235" on="1"/>
        <pt x="388" y="235" on="0"/>
        <pt x="381" y="240" on="0"/>
        <pt x="376" y="245" on="1"/>
        <pt x="254" y="398" on="1"/>
        <pt x="243" y="412" on="0"/>
        <pt x="217" y="446" on="0"/>
        <pt x="193" y="479" on="0"/>
        <pt x="172" y="509" on="0"/>
        <pt x="165" y="521" on="1"/>
        <pt x="164" y="521" on="1"/>
        <pt x="164" y="0" on="1"/>
        <pt x="74" y="0" on="1"/>
        <pt x="74" y="663" on="1"/>
        <pt x="143" y="663" on="1"/>
        <pt x="151" y="663" on="0"/>
        <pt x="159" y="660" on="0"/>
        <pt x="165" y="652" on="1"/>
        <pt x="419" y="327" on="1"/>
        <pt x="420" y="327" on="1"/>
        <pt x="672" y="652" on="1"/>
        <pt x="677" y="659" on="0"/>
        <pt x="686" y="663" on="0"/>
        <pt x="694" y="663" on="1"/>
        <pt x="759" y="663" on="1"/>
      </contour>
    </TTGlyph>
    <TTGlyph name="N" xMin="74" yMin="0" xMax="655" yMax="663">
      <contour>
        <pt x="163" y="0" on="1"/>
        <pt x="74" y="0" on="1"/>
        <pt x="74" y="663" on="1"/>
        <pt x="138" y="663" on="1"/>
        <pt x="146" y="663" on="0"/>
        <pt x="154" y="660" on="0"/>
        <pt x="160" y="653" on="1"/>
        <pt x="446" y="295" on="1"/>
        <pt x="463" y="274" on="0"/>
        <pt x="498" y="230" on="0"/>
        <pt x="530" y="188" on="0"/>
        <pt x="557" y="153" on="0"/>
        <pt x="566" y="141" on="1"/>
        <pt x="566" y="663" on="1"/>
        <pt x="655" y="663" on="1"/>
        <pt x="655" y="0" on="1"/>
        <pt x="592" y="0" on="1"/>
        <pt x="584" y="0" on="0"/>
        <pt x="576" y="3" on="0"/>
        <pt x="570" y="10" on="1"/>
        <pt x="284" y="368" on="1"/>
        <pt x="267" y="389" on="0"/>
        <pt x="232" y="434" on="0"/>
        <pt x="199" y="476" on="0"/>
        <pt x="171" y="512" on="0"/>
        <pt x="163" y="523" on="1"/>
      </contour>
    </TTGlyph>
    <TTGlyph name="Nacute" xMin="74" yMin="0" xMax="655" yMax="903">
      <component glyphName="N" x="0" y="0" flags="0x204"/>
      <component glyphName="acute.cap" x="185" y="0" flags="0x4"/>
    </TTGlyph>
    <TTGlyph name="Ncaron" xMin="74" yMin="0" xMax="655" yMax="900">
      <component glyphName="N" x="0" y="0" flags="0x204"/>
      <component glyphName="caron.cap" x="166" y="0" flags="0x4"/>
    </TTGlyph>
    <TTGlyph name="Ncommaaccent" xMin="74" yMin="-269" xMax="655" yMax="663">
      <component glyphName="N" x="0" y="0" flags="0x204"/>
      <component glyphName="commaaccent" x="156" y="0" flags="0x4"/>
    </TTGlyph>
    <TTGlyph name="Ntilde" xMin="74" yMin="0" xMax="655" yMax="859">
      <component glyphName="N" x="0" y="0" flags="0x204"/>
      <component glyphName="tilde.cap" x="165" y="0" flags="0x4"/>
    </TTGlyph>
    <TTGlyph name="O" xMin="37" yMin="-10" xMax="689" yMax="673">
      <contour>
        <pt x="689" y="331" on="1"/>
        <pt x="689" y="255" on="0"/>
        <pt x="637" y="130" on="0"/>
        <pt x="547" y="40" on="0"/>
        <pt x="429" y="-10" on="0"/>
        <pt x="363" y="-10" on="1"/>
        <pt x="297" y="-10" on="0"/>
        <pt x="179" y="40" on="0"/>
        <pt x="89" y="130" on="0"/>
        <pt x="37" y="255" on="0"/>
        <pt x="37" y="331" on="1"/>
        <pt x="37" y="407" on="0"/>
        <pt x="89" y="533" on="0"/>
        <pt x="179" y="623" on="0"/>
        <pt x="297" y="673" on="0"/>
        <pt x="363" y="673" on="1"/>
        <pt x="429" y="673" on="0"/>
        <pt x="547" y="623" on="0"/>
        <pt x="637" y="533" on="0"/>
        <pt x="689" y="407" on="0"/>
      </contour>
      <contour>
        <pt x="593" y="331" on="1"/>
        <pt x="593" y="392" on="0"/>
        <pt x="560" y="486" on="0"/>
        <pt x="499" y="551" on="0"/>
        <pt x="414" y="584" on="0"/>
        <pt x="363" y="584" on="1"/>
        <pt x="312" y="584" on="0"/>
        <pt x="227" y="551" on="0"/>
        <pt x="166" y="486" on="0"/>
        <pt x="133" y="392" on="0"/>
        <pt x="133" y="331" on="1"/>
        <pt x="133" y="270" on="0"/>
        <pt x="166" y="176" on="0"/>
        <pt x="227" y="112" on="0"/>
        <pt x="312" y="79" on="0"/>
        <pt x="363" y="79" on="1"/>
        <pt x="414" y="79" on="0"/>
        <pt x="499" y="112" on="0"/>
        <pt x="560" y="176" on="0"/>
        <pt x="593" y="270" on="0"/>
      </contour>
    </TTGlyph>
    <TTGlyph name="OE" xMin="37" yMin="-10" xMax="1034" yMax="673">
      <contour>
        <pt x="1023" y="663" on="1"/>
        <pt x="1023" y="586" on="1"/>
        <pt x="680" y="586" on="1"/>
        <pt x="680" y="381" on="1"/>
        <pt x="993" y="381" on="1"/>
        <pt x="993" y="305" on="1"/>
        <pt x="680" y="305" on="1"/>
        <pt x="680" y="77" on="1"/>
        <pt x="1034" y="77" on="1"/>
        <pt x="1034" y="0" on="1"/>
        <pt x="587" y="0" on="1"/>
        <pt x="587" y="103" on="1"/>
        <pt x="552" y="54" on="0"/>
        <pt x="435" y="-10" on="0"/>
        <pt x="363" y="-10" on="1"/>
        <pt x="297" y="-10" on="0"/>
        <pt x="179" y="40" on="0"/>
        <pt x="89" y="130" on="0"/>
        <pt x="37" y="255" on="0"/>
        <pt x="37" y="331" on="1"/>
        <pt x="37" y="407" on="0"/>
        <pt x="89" y="533" on="0"/>
        <pt x="179" y="623" on="0"/>
        <pt x="297" y="673" on="0"/>
        <pt x="363" y="673" on="1"/>
        <pt x="435" y="673" on="0"/>
        <pt x="552" y="608" on="0"/>
        <pt x="587" y="560" on="1"/>
        <pt x="587" y="663" on="1"/>
      </contour>
      <contour>
        <pt x="593" y="331" on="1"/>
        <pt x="593" y="392" on="0"/>
        <pt x="560" y="486" on="0"/>
        <pt x="499" y="551" on="0"/>
        <pt x="414" y="584" on="0"/>
        <pt x="363" y="584" on="1"/>
        <pt x="312" y="584" on="0"/>
        <pt x="227" y="551" on="0"/>
        <pt x="166" y="486" on="0"/>
        <pt x="133" y="392" on="0"/>
        <pt x="133" y="331" on="1"/>
        <pt x="133" y="270" on="0"/>
        <pt x="166" y="176" on="0"/>
        <pt x="227" y="112" on="0"/>
        <pt x="312" y="79" on="0"/>
        <pt x="363" y="79" on="1"/>
        <pt x="414" y="79" on="0"/>
        <pt x="499" y="112" on="0"/>
        <pt x="560" y="176" on="0"/>
        <pt x="593" y="270" on="0"/>
      </contour>
    </TTGlyph>
    <TTGlyph name="Oacute" xMin="37" yMin="-10" xMax="689" yMax="903">
      <component glyphName="O" x="0" y="0" flags="0x204"/>
      <component glyphName="acute.cap" x="174" y="0" flags="0x4"/>
    </TTGlyph>
    <TTGlyph name="Obreve" xMin="37" yMin="-10" xMax="689" yMax="880">
      <component glyphName="O" x="0" y="0" flags="0x204"/>
      <component glyphName="breve.cap" x="164" y="0" flags="0x4"/>
    </TTGlyph>
    <TTGlyph name="Ocircumflex" xMin="37" yMin="-10" xMax="689" yMax="894">
      <component glyphName="O" x="0" y="0" flags="0x204"/>
      <component glyphName="circumflex.cap" x="164" y="0" flags="0x4"/>
    </TTGlyph>
    <TTGlyph name="Odieresis" xMin="37" yMin="-10" xMax="689" yMax="847">
      <component glyphName="O" x="0" y="0" flags="0x204"/>
      <component glyphName="dieresis.cap" x="164" y="0" flags="0x4"/>
    </TTGlyph>
    <TTGlyph name="Ograve" xMin="37" yMin="-10" xMax="689" yMax="903">
      <component glyphName="O" x="0" y="0" flags="0x204"/>
      <component glyphName="grave.cap" x="174" y="0" flags="0x4"/>
    </TTGlyph>
    <TTGlyph name="Ohungarumlaut" xMin="37" yMin="-10" xMax="689" yMax="944">
      <component glyphName="O" x="0" y="0" flags="0x204"/>
      <component glyphName="hungarumlaut.cap" x="174" y="0" flags="0x4"/>
    </TTGlyph>
    <TTGlyph name="Omacron" xMin="37" yMin="-10" xMax="689" yMax="831">
      <component glyphName="O" x="0" y="0" flags="0x204"/>
      <component glyphName="macron.cap" x="164" y="0" flags="0x4"/>
    </TTGlyph>
    <TTGlyph name="Omega" xMin="55" yMin="0" xMax="663" yMax="673">
      <contour>
        <pt x="410" y="32" on="1"/>
        <pt x="410" y="40" on="0"/>
        <pt x="411" y="50" on="0"/>
        <pt x="414" y="61" on="0"/>
        <pt x="422" y="73" on="0"/>
        <pt x="428" y="82" on="1"/>
        <pt x="471" y="144" on="1"/>
        <pt x="496" y="181" on="0"/>
        <pt x="534" y="243" on="0"/>
        <pt x="559" y="301" on="0"/>
        <pt x="571" y="359" on="0"/>
        <pt x="571" y="394" on="1"/>
        <pt x="571" y="443" on="0"/>
        <pt x="537" y="516" on="0"/>
        <pt x="479" y="564" on="0"/>
        <pt x="402" y="588" on="0"/>
        <pt x="359" y="588" on="1"/>
        <pt x="316" y="588" on="0"/>
        <pt x="239" y="564" on="0"/>
        <pt x="181" y="516" on="0"/>
        <pt x="147" y="443" on="0"/>
        <pt x="147" y="394" on="1"/>
        <pt x="147" y="359" on="0"/>
        <pt x="159" y="301" on="0"/>
        <pt x="184" y="243" on="0"/>
        <pt x="221" y="181" on="0"/>
        <pt x="247" y="144" on="1"/>
        <pt x="290" y="82" on="1"/>
        <pt x="296" y="73" on="0"/>
        <pt x="304" y="61" on="0"/>
        <pt x="307" y="50" on="0"/>
        <pt x="308" y="40" on="0"/>
        <pt x="308" y="32" on="1"/>
        <pt x="308" y="0" on="1"/>
        <pt x="78" y="0" on="1"/>
        <pt x="78" y="73" on="1"/>
        <pt x="215" y="73" on="1"/>
        <pt x="183" y="111" on="1"/>
        <pt x="150" y="151" on="0"/>
        <pt x="101" y="222" on="0"/>
        <pt x="70" y="291" on="0"/>
        <pt x="55" y="359" on="0"/>
        <pt x="55" y="397" on="1"/>
        <pt x="55" y="453" on="0"/>
        <pt x="99" y="554" on="0"/>
        <pt x="180" y="629" on="0"/>
        <pt x="291" y="673" on="0"/>
        <pt x="359" y="673" on="1"/>
        <pt x="426" y="673" on="0"/>
        <pt x="538" y="629" on="0"/>
        <pt x="619" y="554" on="0"/>
        <pt x="663" y="453" on="0"/>
        <pt x="663" y="397" on="1"/>
        <pt x="663" y="359" on="0"/>
        <pt x="649" y="291" on="0"/>
        <pt x="618" y="223" on="0"/>
        <pt x="569" y="151" on="0"/>
        <pt x="535" y="111" on="1"/>
        <pt x="503" y="73" on="1"/>
        <pt x="640" y="73" on="1"/>
        <pt x="640" y="0" on="1"/>
        <pt x="410" y="0" on="1"/>
      </contour>
    </TTGlyph>
    <TTGlyph name="Oslash" xMin="37" yMin="-46" xMax="689" yMax="711">
      <contour>
        <pt x="130" y="88" on="1"/>
        <pt x="87" y="133" on="0"/>
        <pt x="37" y="256" on="0"/>
        <pt x="37" y="331" on="1"/>
        <pt x="37" y="407" on="0"/>
        <pt x="89" y="533" on="0"/>
        <pt x="179" y="623" on="0"/>
        <pt x="297" y="673" on="0"/>
        <pt x="363" y="673" on="1"/>
        <pt x="457" y="673" on="0"/>
        <pt x="534" y="624" on="1"/>
        <pt x="599" y="711" on="1"/>
        <pt x="658" y="670" on="1"/>
        <pt x="590" y="580" on="1"/>
        <pt x="635" y="534" on="0"/>
        <pt x="689" y="408" on="0"/>
        <pt x="689" y="331" on="1"/>
        <pt x="689" y="255" on="0"/>
        <pt x="637" y="130" on="0"/>
        <pt x="547" y="40" on="0"/>
        <pt x="429" y="-10" on="0"/>
        <pt x="363" y="-10" on="1"/>
        <pt x="265" y="-10" on="0"/>
        <pt x="185" y="42" on="1"/>
        <pt x="119" y="-46" on="1"/>
        <pt x="60" y="-5" on="1"/>
      </contour>
      <contour>
        <pt x="593" y="331" on="1"/>
        <pt x="593" y="389" on="0"/>
        <pt x="564" y="478" on="0"/>
        <pt x="538" y="510" on="1"/>
        <pt x="238" y="111" on="1"/>
        <pt x="290" y="79" on="0"/>
        <pt x="363" y="79" on="1"/>
        <pt x="414" y="79" on="0"/>
        <pt x="499" y="112" on="0"/>
        <pt x="560" y="176" on="0"/>
        <pt x="593" y="270" on="0"/>
      </contour>
      <contour>
        <pt x="133" y="331" on="1"/>
        <pt x="133" y="276" on="0"/>
        <pt x="160" y="191" on="0"/>
        <pt x="184" y="159" on="1"/>
        <pt x="482" y="556" on="1"/>
        <pt x="461" y="569" on="0"/>
        <pt x="396" y="584" on="0"/>
        <pt x="363" y="584" on="1"/>
        <pt x="312" y="584" on="0"/>
        <pt x="227" y="551" on="0"/>
        <pt x="166" y="486" on="0"/>
        <pt x="133" y="392" on="0"/>
      </contour>
    </TTGlyph>
    <TTGlyph name="Oslashacute" xMin="37" yMin="-46" xMax="689" yMax="903">
      <component glyphName="Oslash" x="0" y="0" flags="0x204"/>
      <component glyphName="acute.cap" x="172" y="0" flags="0x4"/>
    </TTGlyph>
    <TTGlyph name="Otilde" xMin="37" yMin="-10" xMax="689" yMax="859">
      <component glyphName="O" x="0" y="0" flags="0x204"/>
      <component glyphName="tilde.cap" x="164" y="0" flags="0x4"/>
    </TTGlyph>
    <TTGlyph name="P" xMin="74" yMin="0" xMax="571" yMax="663">
      <contour>
        <pt x="167" y="0" on="1"/>
        <pt x="74" y="0" on="1"/>
        <pt x="74" y="663" on="1"/>
        <pt x="316" y="663" on="1"/>
        <pt x="381" y="663" on="0"/>
        <pt x="481" y="636" on="0"/>
        <pt x="516" y="602" on="1"/>
        <pt x="542" y="577" on="0"/>
        <pt x="571" y="500" on="0"/>
        <pt x="571" y="451" on="1"/>
        <pt x="571" y="397" on="0"/>
        <pt x="538" y="307" on="0"/>
        <pt x="506" y="276" on="1"/>
        <pt x="481" y="252" on="0"/>
        <pt x="420" y="228" on="0"/>
        <pt x="367" y="228" on="1"/>
        <pt x="167" y="228" on="1"/>
      </contour>
      <contour>
        <pt x="167" y="304" on="1"/>
        <pt x="387" y="304" on="1"/>
        <pt x="408" y="304" on="0"/>
        <pt x="432" y="314" on="0"/>
        <pt x="441" y="325" on="1"/>
        <pt x="458" y="345" on="0"/>
        <pt x="477" y="413" on="0"/>
        <pt x="477" y="450" on="1"/>
        <pt x="477" y="515" on="0"/>
        <pt x="446" y="548" on="1"/>
        <pt x="426" y="569" on="0"/>
        <pt x="359" y="586" on="0"/>
        <pt x="314" y="586" on="1"/>
        <pt x="167" y="586" on="1"/>
      </contour>
    </TTGlyph>
    <TTGlyph name="Q" xMin="37" yMin="-178" xMax="689" yMax="673">
      <contour>
        <pt x="689" y="331" on="1"/>
        <pt x="689" y="277" on="0"/>
        <pt x="662" y="182" on="0"/>
        <pt x="614" y="104" on="0"/>
        <pt x="547" y="44" on="0"/>
        <pt x="508" y="24" on="1"/>
        <pt x="624" y="-136" on="1"/>
        <pt x="531" y="-178" on="1"/>
        <pt x="424" y="-4" on="1"/>
        <pt x="394" y="-10" on="0"/>
        <pt x="363" y="-10" on="1"/>
        <pt x="297" y="-10" on="0"/>
        <pt x="179" y="40" on="0"/>
        <pt x="89" y="130" on="0"/>
        <pt x="37" y="255" on="0"/>
        <pt x="37" y="331" on="1"/>
        <pt x="37" y="407" on="0"/>
        <pt x="89" y="533" on="0"/>
        <pt x="179" y="623" on="0"/>
        <pt x="297" y="673" on="0"/>
        <pt x="363" y="673" on="1"/>
        <pt x="429" y="673" on="0"/>
        <pt x="547" y="623" on="0"/>
        <pt x="637" y="533" on="0"/>
        <pt x="689" y="407" on="0"/>
      </contour>
      <contour>
        <pt x="593" y="331" on="1"/>
        <pt x="593" y="392" on="0"/>
        <pt x="560" y="486" on="0"/>
        <pt x="499" y="551" on="0"/>
        <pt x="414" y="584" on="0"/>
        <pt x="363" y="584" on="1"/>
        <pt x="312" y="584" on="0"/>
        <pt x="227" y="551" on="0"/>
        <pt x="166" y="486" on="0"/>
        <pt x="133" y="392" on="0"/>
        <pt x="133" y="331" on="1"/>
        <pt x="133" y="270" on="0"/>
        <pt x="166" y="176" on="0"/>
        <pt x="227" y="112" on="0"/>
        <pt x="312" y="79" on="0"/>
        <pt x="363" y="79" on="1"/>
        <pt x="414" y="79" on="0"/>
        <pt x="499" y="112" on="0"/>
        <pt x="560" y="176" on="0"/>
        <pt x="593" y="270" on="0"/>
      </contour>
    </TTGlyph>
    <TTGlyph name="R" xMin="74" yMin="0" xMax="610" yMax="663">
      <contour>
        <pt x="374" y="233" on="1"/>
        <pt x="370" y="240" on="0"/>
        <pt x="363" y="243" on="0"/>
        <pt x="355" y="243" on="1"/>
        <pt x="167" y="243" on="1"/>
        <pt x="167" y="0" on="1"/>
        <pt x="74" y="0" on="1"/>
        <pt x="74" y="663" on="1"/>
        <pt x="314" y="663" on="1"/>
        <pt x="387" y="663" on="0"/>
        <pt x="484" y="634" on="0"/>
        <pt x="517" y="601" on="1"/>
        <pt x="542" y="575" on="0"/>
        <pt x="571" y="503" on="0"/>
        <pt x="571" y="458" on="1"/>
        <pt x="571" y="389" on="0"/>
        <pt x="505" y="287" on="0"/>
        <pt x="457" y="258" on="1"/>
        <pt x="610" y="0" on="1"/>
        <pt x="523" y="0" on="1"/>
        <pt x="514" y="0" on="0"/>
        <pt x="506" y="5" on="0"/>
        <pt x="502" y="11" on="1"/>
      </contour>
      <contour>
        <pt x="167" y="319" on="1"/>
        <pt x="386" y="319" on="1"/>
        <pt x="406" y="319" on="0"/>
        <pt x="430" y="330" on="0"/>
        <pt x="439" y="340" on="1"/>
        <pt x="456" y="359" on="0"/>
        <pt x="477" y="425" on="0"/>
        <pt x="477" y="454" on="1"/>
        <pt x="477" y="486" on="0"/>
        <pt x="460" y="533" on="0"/>
        <pt x="445" y="549" on="1"/>
        <pt x="425" y="569" on="0"/>
        <pt x="366" y="586" on="0"/>
        <pt x="320" y="586" on="1"/>
        <pt x="167" y="586" on="1"/>
      </contour>
    </TTGlyph>
    <TTGlyph name="Racute" xMin="74" yMin="0" xMax="610" yMax="903">
      <component glyphName="R" x="0" y="0" flags="0x204"/>
      <component glyphName="acute.cap" x="137" y="0" flags="0x4"/>
    </TTGlyph>
    <TTGlyph name="Rcaron" xMin="74" yMin="0" xMax="610" yMax="900">
      <component glyphName="R" x="0" y="0" flags="0x204"/>
      <component glyphName="caron.cap" x="123" y="0" flags="0x4"/>
    </TTGlyph>
    <TTGlyph name="Rcommaaccent" xMin="74" yMin="-269" xMax="610" yMax="663">
      <component glyphName="R" x="0" y="0" flags="0x204"/>
      <component glyphName="commaaccent" x="119" y="0" flags="0x4"/>
    </TTGlyph>
    <TTGlyph name="S" xMin="45" yMin="-10" xMax="525" yMax="673">
      <contour>
        <pt x="133" y="96" on="1"/>
        <pt x="178" y="85" on="0"/>
        <pt x="253" y="72" on="0"/>
        <pt x="287" y="72" on="1"/>
        <pt x="359" y="72" on="0"/>
        <pt x="437" y="132" on="0"/>
        <pt x="437" y="187" on="1"/>
        <pt x="437" y="209" on="0"/>
        <pt x="425" y="241" on="0"/>
        <pt x="396" y="268" on="0"/>
        <pt x="349" y="291" on="0"/>
        <pt x="315" y="303" on="1"/>
        <pt x="238" y="330" on="1"/>
        <pt x="195" y="345" on="0"/>
        <pt x="127" y="378" on="0"/>
        <pt x="81" y="420" on="0"/>
        <pt x="56" y="473" on="0"/>
        <pt x="56" y="508" on="1"/>
        <pt x="56" y="548" on="0"/>
        <pt x="91" y="610" on="0"/>
        <pt x="154" y="652" on="0"/>
        <pt x="240" y="673" on="0"/>
        <pt x="290" y="673" on="1"/>
        <pt x="338" y="673" on="0"/>
        <pt x="446" y="652" on="0"/>
        <pt x="494" y="632" on="1"/>
        <pt x="479" y="573" on="1"/>
        <pt x="419" y="581" on="1"/>
        <pt x="385" y="586" on="0"/>
        <pt x="317" y="591" on="0"/>
        <pt x="291" y="591" on="1"/>
        <pt x="219" y="591" on="0"/>
        <pt x="142" y="555" on="0"/>
        <pt x="142" y="511" on="1"/>
        <pt x="142" y="493" on="0"/>
        <pt x="155" y="466" on="0"/>
        <pt x="184" y="443" on="0"/>
        <pt x="231" y="421" on="0"/>
        <pt x="265" y="409" on="1"/>
        <pt x="339" y="383" on="1"/>
        <pt x="384" y="367" on="0"/>
        <pt x="453" y="333" on="0"/>
        <pt x="500" y="288" on="0"/>
        <pt x="525" y="228" on="0"/>
        <pt x="525" y="188" on="1"/>
        <pt x="525" y="143" on="0"/>
        <pt x="491" y="70" on="0"/>
        <pt x="429" y="18" on="0"/>
        <pt x="341" y="-10" on="0"/>
        <pt x="286" y="-10" on="1"/>
        <pt x="255" y="-10" on="0"/>
        <pt x="190" y="0" on="0"/>
        <pt x="127" y="18" on="0"/>
        <pt x="69" y="42" on="0"/>
        <pt x="45" y="56" on="1"/>
        <pt x="68" y="112" on="1"/>
      </contour>
    </TTGlyph>
    <TTGlyph name="Sacute" xMin="45" yMin="-10" xMax="525" yMax="903">
      <component glyphName="S" x="0" y="0" flags="0x204"/>
      <component glyphName="acute.cap" x="103" y="0" flags="0x4"/>
    </TTGlyph>
    <TTGlyph name="Scaron" xMin="45" yMin="-10" xMax="525" yMax="900">
      <component glyphName="S" x="0" y="0" flags="0x204"/>
      <component glyphName="caron.cap" x="93" y="0" flags="0x4"/>
    </TTGlyph>
    <TTGlyph name="Scedilla" xMin="45" yMin="-228" xMax="525" yMax="673">
      <contour>
        <pt x="133" y="96" on="1"/>
        <pt x="178" y="85" on="0"/>
        <pt x="253" y="72" on="0"/>
        <pt x="287" y="72" on="1"/>
        <pt x="359" y="72" on="0"/>
        <pt x="437" y="132" on="0"/>
        <pt x="437" y="187" on="1"/>
        <pt x="437" y="209" on="0"/>
        <pt x="424" y="241" on="0"/>
        <pt x="395" y="268" on="0"/>
        <pt x="347" y="291" on="0"/>
        <pt x="313" y="303" on="1"/>
        <pt x="236" y="330" on="1"/>
        <pt x="193" y="345" on="0"/>
        <pt x="125" y="378" on="0"/>
        <pt x="79" y="420" on="0"/>
        <pt x="54" y="473" on="0"/>
        <pt x="54" y="508" on="1"/>
        <pt x="54" y="548" on="0"/>
        <pt x="89" y="610" on="0"/>
        <pt x="152" y="652" on="0"/>
        <pt x="238" y="673" on="0"/>
        <pt x="288" y="673" on="1"/>
        <pt x="336" y="673" on="0"/>
        <pt x="444" y="652" on="0"/>
        <pt x="492" y="632" on="1"/>
        <pt x="477" y="573" on="1"/>
        <pt x="417" y="581" on="1"/>
        <pt x="383" y="586" on="0"/>
        <pt x="315" y="591" on="0"/>
        <pt x="289" y="591" on="1"/>
        <pt x="217" y="591" on="0"/>
        <pt x="140" y="555" on="0"/>
        <pt x="140" y="511" on="1"/>
        <pt x="140" y="493" on="0"/>
        <pt x="153" y="466" on="0"/>
        <pt x="182" y="443" on="0"/>
        <pt x="229" y="421" on="0"/>
        <pt x="263" y="409" on="1"/>
        <pt x="337" y="383" on="1"/>
        <pt x="382" y="367" on="0"/>
        <pt x="452" y="333" on="0"/>
        <pt x="500" y="288" on="0"/>
        <pt x="525" y="228" on="0"/>
        <pt x="525" y="188" on="1"/>
        <pt x="525" y="145" on="0"/>
        <pt x="494" y="75" on="0"/>
        <pt x="437" y="23" on="0"/>
        <pt x="355" y="-7" on="0"/>
        <pt x="304" y="-9" on="1"/>
        <pt x="296" y="-23" on="0"/>
        <pt x="296" y="-32" on="1"/>
        <pt x="296" y="-43" on="0"/>
        <pt x="331" y="-55" on="0"/>
        <pt x="373" y="-72" on="0"/>
        <pt x="408" y="-102" on="0"/>
        <pt x="408" y="-132" on="1"/>
        <pt x="408" y="-174" on="0"/>
        <pt x="323" y="-228" on="0"/>
        <pt x="235" y="-228" on="1"/>
        <pt x="225" y="-178" on="1"/>
        <pt x="287" y="-166" on="1"/>
        <pt x="310" y="-161" on="0"/>
        <pt x="329" y="-148" on="0"/>
        <pt x="329" y="-139" on="1"/>
        <pt x="329" y="-129" on="0"/>
        <pt x="297" y="-116" on="0"/>
        <pt x="258" y="-101" on="0"/>
        <pt x="226" y="-79" on="0"/>
        <pt x="226" y="-60" on="1"/>
        <pt x="226" y="-48" on="0"/>
        <pt x="239" y="-22" on="0"/>
        <pt x="250" y="-8" on="1"/>
        <pt x="195" y="-3" on="0"/>
        <pt x="86" y="33" on="0"/>
        <pt x="45" y="57" on="1"/>
        <pt x="68" y="112" on="1"/>
      </contour>
    </TTGlyph>
    <TTGlyph name="Scircumflex" xMin="45" yMin="-10" xMax="525" yMax="894">
      <component glyphName="S" x="0" y="0" flags="0x204"/>
      <component glyphName="circumflex.cap" x="92" y="0" flags="0x4"/>
    </TTGlyph>
    <TTGlyph name="Scommaaccent" xMin="45" yMin="-269" xMax="525" yMax="673">
      <component glyphName="S" x="0" y="0" flags="0x204"/>
      <component glyphName="commaaccent" x="89" y="0" flags="0x4"/>
    </TTGlyph>
    <TTGlyph name="T" xMin="21" yMin="0" xMax="564" yMax="663">
      <contour>
        <pt x="246" y="586" on="1"/>
        <pt x="21" y="586" on="1"/>
        <pt x="21" y="663" on="1"/>
        <pt x="564" y="663" on="1"/>
        <pt x="564" y="586" on="1"/>
        <pt x="339" y="586" on="1"/>
        <pt x="339" y="0" on="1"/>
        <pt x="246" y="0" on="1"/>
      </contour>
    </TTGlyph>
    <TTGlyph name="Tbar" xMin="21" yMin="0" xMax="564" yMax="663">
      <contour>
        <pt x="246" y="586" on="1"/>
        <pt x="21" y="586" on="1"/>
        <pt x="21" y="663" on="1"/>
        <pt x="564" y="663" on="1"/>
        <pt x="564" y="586" on="1"/>
        <pt x="339" y="586" on="1"/>
        <pt x="339" y="368" on="1"/>
        <pt x="491" y="368" on="1"/>
        <pt x="491" y="297" on="1"/>
        <pt x="339" y="297" on="1"/>
        <pt x="339" y="0" on="1"/>
        <pt x="246" y="0" on="1"/>
        <pt x="246" y="297" on="1"/>
        <pt x="94" y="297" on="1"/>
        <pt x="94" y="368" on="1"/>
        <pt x="246" y="368" on="1"/>
      </contour>
    </TTGlyph>
    <TTGlyph name="Tcaron" xMin="21" yMin="0" xMax="564" yMax="900">
      <component glyphName="T" x="0" y="0" flags="0x204"/>
      <component glyphName="caron.cap" x="94" y="0" flags="0x4"/>
    </TTGlyph>
    <TTGlyph name="Tcommaaccent" xMin="21" yMin="-269" xMax="564" yMax="663">
      <component glyphName="T" x="0" y="0" flags="0x204"/>
      <component glyphName="commaaccent" x="81" y="0" flags="0x4"/>
    </TTGlyph>
    <TTGlyph name="Thorn" xMin="74" yMin="0" xMax="571" yMax="663">
      <contour>
        <pt x="167" y="0" on="1"/>
        <pt x="74" y="0" on="1"/>
        <pt x="74" y="663" on="1"/>
        <pt x="167" y="663" on="1"/>
        <pt x="167" y="553" on="1"/>
        <pt x="316" y="553" on="1"/>
        <pt x="381" y="553" on="0"/>
        <pt x="481" y="526" on="0"/>
        <pt x="516" y="492" on="1"/>
        <pt x="542" y="467" on="0"/>
        <pt x="571" y="390" on="0"/>
        <pt x="571" y="341" on="1"/>
        <pt x="571" y="287" on="0"/>
        <pt x="538" y="197" on="0"/>
        <pt x="506" y="166" on="1"/>
        <pt x="481" y="142" on="0"/>
        <pt x="420" y="118" on="0"/>
        <pt x="367" y="118" on="1"/>
        <pt x="167" y="118" on="1"/>
      </contour>
      <contour>
        <pt x="167" y="196" on="1"/>
        <pt x="387" y="196" on="1"/>
        <pt x="408" y="196" on="0"/>
        <pt x="432" y="206" on="0"/>
        <pt x="441" y="217" on="1"/>
        <pt x="458" y="237" on="0"/>
        <pt x="477" y="303" on="0"/>
        <pt x="477" y="340" on="1"/>
        <pt x="477" y="374" on="0"/>
        <pt x="461" y="421" on="0"/>
        <pt x="446" y="437" on="1"/>
        <pt x="426" y="458" on="0"/>
        <pt x="359" y="475" on="0"/>
        <pt x="314" y="475" on="1"/>
        <pt x="167" y="475" on="1"/>
      </contour>
    </TTGlyph>
    <TTGlyph name="U" xMin="70" yMin="-10" xMax="621" yMax="663">
      <contour>
        <pt x="621" y="253" on="1"/>
        <pt x="621" y="131" on="0"/>
        <pt x="556" y="67" on="1"/>
        <pt x="521" y="32" on="0"/>
        <pt x="412" y="-10" on="0"/>
        <pt x="346" y="-10" on="1"/>
        <pt x="280" y="-10" on="0"/>
        <pt x="170" y="31" on="0"/>
        <pt x="135" y="66" on="1"/>
        <pt x="102" y="98" on="0"/>
        <pt x="70" y="189" on="0"/>
        <pt x="70" y="252" on="1"/>
        <pt x="70" y="663" on="1"/>
        <pt x="163" y="663" on="1"/>
        <pt x="163" y="254" on="1"/>
        <pt x="163" y="209" on="0"/>
        <pt x="181" y="149" on="0"/>
        <pt x="201" y="127" on="1"/>
        <pt x="223" y="104" on="0"/>
        <pt x="297" y="78" on="0"/>
        <pt x="346" y="78" on="1"/>
        <pt x="395" y="78" on="0"/>
        <pt x="469" y="104" on="0"/>
        <pt x="491" y="127" on="1"/>
        <pt x="511" y="149" on="0"/>
        <pt x="530" y="209" on="0"/>
        <pt x="530" y="254" on="1"/>
        <pt x="530" y="663" on="1"/>
        <pt x="621" y="663" on="1"/>
      </contour>
    </TTGlyph>
    <TTGlyph name="Uacute" xMin="70" yMin="-10" xMax="621" yMax="903">
      <component glyphName="U" x="0" y="0" flags="0x204"/>
      <component glyphName="acute.cap" x="173" y="0" flags="0x4"/>
    </TTGlyph>
    <TTGlyph name="Ubreve" xMin="70" yMin="-10" xMax="621" yMax="880">
      <component glyphName="U" x="0" y="0" flags="0x204"/>
      <component glyphName="breve.cap" x="148" y="0" flags="0x4"/>
    </TTGlyph>
    <TTGlyph name="Ucircumflex" xMin="70" yMin="-10" xMax="621" yMax="894">
      <component glyphName="U" x="0" y="0" flags="0x204"/>
      <component glyphName="circumflex.cap" x="148" y="0" flags="0x4"/>
    </TTGlyph>
    <TTGlyph name="Udieresis" xMin="70" yMin="-10" xMax="621" yMax="847">
      <component glyphName="U" x="0" y="0" flags="0x204"/>
      <component glyphName="dieresis.cap" x="148" y="0" flags="0x4"/>
    </TTGlyph>
    <TTGlyph name="Ugrave" xMin="70" yMin="-10" xMax="621" yMax="903">
      <component glyphName="U" x="0" y="0" flags="0x204"/>
      <component glyphName="grave.cap" x="130" y="0" flags="0x4"/>
    </TTGlyph>
    <TTGlyph name="Uhungarumlaut" xMin="70" yMin="-10" xMax="621" yMax="944">
      <component glyphName="U" x="0" y="0" flags="0x204"/>
      <component glyphName="hungarumlaut.cap" x="179" y="0" flags="0x4"/>
    </TTGlyph>
    <TTGlyph name="Umacron" xMin="70" yMin="-10" xMax="621" yMax="831">
      <component glyphName="U" x="0" y="0" flags="0x204"/>
      <component glyphName="macron.cap" x="147" y="0" flags="0x4"/>
    </TTGlyph>
    <TTGlyph name="Uogonek" xMin="70" yMin="-202" xMax="621" yMax="663">
      <contour>
        <pt x="621" y="663" on="1"/>
        <pt x="621" y="257" on="1"/>
        <pt x="621" y="185" on="0"/>
        <pt x="581" y="96" on="0"/>
        <pt x="549" y="66" on="1"/>
        <pt x="526" y="44" on="0"/>
        <pt x="464" y="8" on="0"/>
        <pt x="407" y="-29" on="0"/>
        <pt x="367" y="-69" on="0"/>
        <pt x="367" y="-95" on="1"/>
        <pt x="367" y="-115" on="0"/>
        <pt x="394" y="-140" on="0"/>
        <pt x="421" y="-140" on="1"/>
        <pt x="429" y="-140" on="0"/>
        <pt x="451" y="-138" on="0"/>
        <pt x="462" y="-136" on="1"/>
        <pt x="485" y="-132" on="1"/>
        <pt x="500" y="-177" on="1"/>
        <pt x="479" y="-189" on="0"/>
        <pt x="428" y="-202" on="0"/>
        <pt x="405" y="-202" on="1"/>
        <pt x="354" y="-202" on="0"/>
        <pt x="289" y="-150" on="0"/>
        <pt x="289" y="-108" on="1"/>
        <pt x="289" y="-80" on="0"/>
        <pt x="321" y="-26" on="0"/>
        <pt x="347" y="-9" on="1"/>
        <pt x="281" y="-8" on="0"/>
        <pt x="170" y="32" on="0"/>
        <pt x="135" y="67" on="1"/>
        <pt x="102" y="99" on="0"/>
        <pt x="70" y="190" on="0"/>
        <pt x="70" y="253" on="1"/>
        <pt x="70" y="663" on="1"/>
        <pt x="163" y="663" on="1"/>
        <pt x="163" y="254" on="1"/>
        <pt x="163" y="209" on="0"/>
        <pt x="181" y="149" on="0"/>
        <pt x="201" y="127" on="1"/>
        <pt x="223" y="104" on="0"/>
        <pt x="297" y="78" on="0"/>
        <pt x="346" y="78" on="1"/>
        <pt x="395" y="78" on="0"/>
        <pt x="469" y="104" on="0"/>
        <pt x="491" y="127" on="1"/>
        <pt x="511" y="149" on="0"/>
        <pt x="530" y="209" on="0"/>
        <pt x="530" y="254" on="1"/>
        <pt x="530" y="663" on="1"/>
      </contour>
    </TTGlyph>
    <TTGlyph name="Uring" xMin="70" yMin="-10" xMax="621" yMax="947">
      <component glyphName="U" x="0" y="0" flags="0x204"/>
      <component glyphName="ring.cap" x="147" y="0" flags="0x4"/>
    </TTGlyph>
    <TTGlyph name="Utilde" xMin="70" yMin="-10" xMax="621" yMax="859">
      <component glyphName="U" x="0" y="0" flags="0x204"/>
      <component glyphName="tilde.cap" x="148" y="0" flags="0x4"/>
    </TTGlyph>
    <TTGlyph name="V" xMin="10" yMin="0" xMax="646" yMax="663">
      <contour>
        <pt x="646" y="663" on="1"/>
        <pt x="386" y="0" on="1"/>
        <pt x="293" y="0" on="1"/>
        <pt x="284" y="0" on="0"/>
        <pt x="277" y="4" on="0"/>
        <pt x="274" y="11" on="1"/>
        <pt x="10" y="663" on="1"/>
        <pt x="96" y="663" on="1"/>
        <pt x="102" y="663" on="0"/>
        <pt x="108" y="660" on="0"/>
        <pt x="110" y="654" on="1"/>
        <pt x="250" y="302" on="1"/>
        <pt x="262" y="271" on="0"/>
        <pt x="287" y="208" on="0"/>
        <pt x="309" y="148" on="0"/>
        <pt x="327" y="95" on="0"/>
        <pt x="333" y="76" on="1"/>
        <pt x="335" y="76" on="1"/>
        <pt x="340" y="94" on="0"/>
        <pt x="358" y="146" on="0"/>
        <pt x="380" y="206" on="0"/>
        <pt x="403" y="269" on="0"/>
        <pt x="414" y="298" on="1"/>
        <pt x="549" y="654" on="1"/>
        <pt x="551" y="659" on="0"/>
        <pt x="556" y="663" on="0"/>
        <pt x="562" y="663" on="1"/>
      </contour>
    </TTGlyph>
    <TTGlyph name="W" xMin="10" yMin="0" xMax="983" yMax="663">
      <contour>
        <pt x="647" y="320" on="1"/>
        <pt x="656" y="293" on="0"/>
        <pt x="674" y="231" on="0"/>
        <pt x="692" y="170" on="0"/>
        <pt x="708" y="113" on="0"/>
        <pt x="714" y="91" on="1"/>
        <pt x="716" y="91" on="1"/>
        <pt x="725" y="134" on="0"/>
        <pt x="760" y="252" on="0"/>
        <pt x="780" y="316" on="1"/>
        <pt x="888" y="654" on="1"/>
        <pt x="890" y="660" on="0"/>
        <pt x="896" y="663" on="0"/>
        <pt x="902" y="663" on="1"/>
        <pt x="983" y="663" on="1"/>
        <pt x="766" y="0" on="1"/>
        <pt x="673" y="0" on="1"/>
        <pt x="659" y="0" on="0"/>
        <pt x="655" y="11" on="1"/>
        <pt x="559" y="314" on="1"/>
        <pt x="549" y="345" on="0"/>
        <pt x="529" y="412" on="0"/>
        <pt x="511" y="474" on="0"/>
        <pt x="497" y="528" on="0"/>
        <pt x="493" y="547" on="1"/>
        <pt x="491" y="547" on="1"/>
        <pt x="486" y="528" on="0"/>
        <pt x="472" y="472" on="0"/>
        <pt x="455" y="407" on="0"/>
        <pt x="437" y="340" on="0"/>
        <pt x="428" y="310" on="1"/>
        <pt x="338" y="0" on="1"/>
        <pt x="244" y="0" on="1"/>
        <pt x="230" y="0" on="0"/>
        <pt x="226" y="11" on="1"/>
        <pt x="10" y="663" on="1"/>
        <pt x="93" y="663" on="1"/>
        <pt x="100" y="663" on="0"/>
        <pt x="106" y="660" on="0"/>
        <pt x="108" y="654" on="1"/>
        <pt x="215" y="321" on="1"/>
        <pt x="225" y="288" on="0"/>
        <pt x="246" y="222" on="0"/>
        <pt x="264" y="162" on="0"/>
        <pt x="279" y="110" on="0"/>
        <pt x="283" y="91" on="1"/>
        <pt x="285" y="91" on="1"/>
        <pt x="288" y="109" on="0"/>
        <pt x="301" y="161" on="0"/>
        <pt x="316" y="221" on="0"/>
        <pt x="335" y="285" on="0"/>
        <pt x="344" y="317" on="1"/>
        <pt x="446" y="663" on="1"/>
        <pt x="525" y="663" on="1"/>
        <pt x="533" y="663" on="0"/>
        <pt x="540" y="660" on="0"/>
        <pt x="542" y="652" on="1"/>
      </contour>
    </TTGlyph>
    <TTGlyph name="Wacute" xMin="10" yMin="0" xMax="983" yMax="903">
      <component glyphName="W" x="0" y="0" flags="0x204"/>
      <component glyphName="acute.cap" x="297" y="0" flags="0x4"/>
    </TTGlyph>
    <TTGlyph name="Wcircumflex" xMin="10" yMin="0" xMax="983" yMax="894">
      <component glyphName="W" x="0" y="0" flags="0x204"/>
      <component glyphName="circumflex.cap" x="298" y="0" flags="0x4"/>
    </TTGlyph>
    <TTGlyph name="Wdieresis" xMin="10" yMin="0" xMax="983" yMax="847">
      <component glyphName="W" x="0" y="0" flags="0x204"/>
      <component glyphName="dieresis.cap" x="298" y="0" flags="0x4"/>
    </TTGlyph>
    <TTGlyph name="Wgrave" xMin="10" yMin="0" xMax="983" yMax="903">
      <component glyphName="W" x="0" y="0" flags="0x204"/>
      <component glyphName="grave.cap" x="297" y="0" flags="0x4"/>
    </TTGlyph>
    <TTGlyph name="X" xMin="8" yMin="0" xMax="638" yMax="663">
      <contour>
        <pt x="8" y="0" on="1"/>
        <pt x="265" y="346" on="1"/>
        <pt x="22" y="663" on="1"/>
        <pt x="112" y="663" on="1"/>
        <pt x="121" y="663" on="0"/>
        <pt x="128" y="660" on="0"/>
        <pt x="133" y="654" on="1"/>
        <pt x="320" y="411" on="1"/>
        <pt x="499" y="654" on="1"/>
        <pt x="504" y="660" on="0"/>
        <pt x="511" y="663" on="0"/>
        <pt x="520" y="663" on="1"/>
        <pt x="604" y="663" on="1"/>
        <pt x="372" y="348" on="1"/>
        <pt x="638" y="0" on="1"/>
        <pt x="549" y="0" on="1"/>
        <pt x="541" y="0" on="0"/>
        <pt x="534" y="4" on="0"/>
        <pt x="529" y="9" on="1"/>
        <pt x="318" y="284" on="1"/>
        <pt x="116" y="9" on="1"/>
        <pt x="112" y="4" on="0"/>
        <pt x="104" y="0" on="0"/>
        <pt x="94" y="0" on="1"/>
      </contour>
    </TTGlyph>
    <TTGlyph name="Y" xMin="2" yMin="0" xMax="619" yMax="663">
      <contour>
        <pt x="358" y="217" on="1"/>
        <pt x="358" y="0" on="1"/>
        <pt x="265" y="0" on="1"/>
        <pt x="265" y="217" on="1"/>
        <pt x="2" y="663" on="1"/>
        <pt x="92" y="663" on="1"/>
        <pt x="98" y="663" on="0"/>
        <pt x="104" y="660" on="0"/>
        <pt x="108" y="654" on="1"/>
        <pt x="212" y="473" on="1"/>
        <pt x="247" y="412" on="0"/>
        <pt x="298" y="319" on="0"/>
        <pt x="312" y="290" on="1"/>
        <pt x="314" y="290" on="1"/>
        <pt x="328" y="319" on="0"/>
        <pt x="379" y="413" on="0"/>
        <pt x="413" y="473" on="1"/>
        <pt x="516" y="654" on="1"/>
        <pt x="521" y="663" on="0"/>
        <pt x="533" y="663" on="1"/>
        <pt x="619" y="663" on="1"/>
      </contour>
    </TTGlyph>
    <TTGlyph name="Yacute" xMin="2" yMin="0" xMax="619" yMax="903">
      <component glyphName="Y" x="0" y="0" flags="0x204"/>
      <component glyphName="acute.cap" x="138" y="0" flags="0x4"/>
    </TTGlyph>
    <TTGlyph name="Ycircumflex" xMin="2" yMin="0" xMax="619" yMax="894">
      <component glyphName="Y" x="0" y="0" flags="0x204"/>
      <component glyphName="circumflex.cap" x="114" y="0" flags="0x4"/>
    </TTGlyph>
    <TTGlyph name="Ydieresis" xMin="2" yMin="0" xMax="619" yMax="847">
      <component glyphName="Y" x="0" y="0" flags="0x204"/>
      <component glyphName="dieresis.cap" x="112" y="0" flags="0x4"/>
    </TTGlyph>
    <TTGlyph name="Ygrave" xMin="2" yMin="0" xMax="619" yMax="903">
      <component glyphName="Y" x="0" y="0" flags="0x204"/>
      <component glyphName="grave.cap" x="77" y="0" flags="0x4"/>
    </TTGlyph>
    <TTGlyph name="Z" xMin="42" yMin="0" xMax="533" yMax="663">
      <contour>
        <pt x="43" y="586" on="1"/>
        <pt x="43" y="663" on="1"/>
        <pt x="528" y="663" on="1"/>
        <pt x="528" y="617" on="1"/>
        <pt x="528" y="604" on="0"/>
        <pt x="517" y="588" on="1"/>
        <pt x="264" y="226" on="1"/>
        <pt x="226" y="172" on="0"/>
        <pt x="167" y="94" on="0"/>
        <pt x="155" y="77" on="1"/>
        <pt x="533" y="77" on="1"/>
        <pt x="533" y="0" on="1"/>
        <pt x="42" y="0" on="1"/>
        <pt x="42" y="45" on="1"/>
        <pt x="42" y="53" on="0"/>
        <pt x="47" y="65" on="0"/>
        <pt x="53" y="74" on="1"/>
        <pt x="307" y="436" on="1"/>
        <pt x="344" y="488" on="0"/>
        <pt x="399" y="563" on="0"/>
        <pt x="416" y="586" on="1"/>
      </contour>
    </TTGlyph>
    <TTGlyph name="Zacute" xMin="42" yMin="0" xMax="533" yMax="903">
      <component glyphName="Z" x="0" y="0" flags="0x204"/>
      <component glyphName="acute.cap" x="98" y="0" flags="0x4"/>
    </TTGlyph>
    <TTGlyph name="Zcaron" xMin="42" yMin="0" xMax="533" yMax="900">
      <component glyphName="Z" x="0" y="0" flags="0x204"/>
      <component glyphName="caron.cap" x="93" y="0" flags="0x4"/>
    </TTGlyph>
    <TTGlyph name="Zdotaccent" xMin="42" yMin="0" xMax="533" yMax="840">
      <component glyphName="Z" x="0" y="0" flags="0x204"/>
      <component glyphName="dotaccent.cap" x="88" y="0" flags="0x4"/>
    </TTGlyph>
    <TTGlyph name="a" xMin="33" yMin="-8" xMax="524" yMax="496">
      <contour>
        <pt x="365" y="313" on="1"/>
        <pt x="365" y="342" on="0"/>
        <pt x="355" y="375" on="0"/>
        <pt x="344" y="387" on="1"/>
        <pt x="330" y="403" on="0"/>
        <pt x="283" y="417" on="0"/>
        <pt x="253" y="417" on="1"/>
        <pt x="226" y="417" on="0"/>
        <pt x="167" y="405" on="0"/>
        <pt x="138" y="394" on="1"/>
        <pt x="88" y="376" on="1"/>
        <pt x="60" y="424" on="1"/>
        <pt x="110" y="460" on="0"/>
        <pt x="211" y="496" on="0"/>
        <pt x="261" y="496" on="1"/>
        <pt x="305" y="496" on="0"/>
        <pt x="382" y="469" on="0"/>
        <pt x="409" y="440" on="1"/>
        <pt x="430" y="417" on="0"/>
        <pt x="453" y="357" on="0"/>
        <pt x="453" y="310" on="1"/>
        <pt x="453" y="72" on="1"/>
        <pt x="524" y="59" on="1"/>
        <pt x="524" y="14" on="1"/>
        <pt x="509" y="7" on="0"/>
        <pt x="469" y="-2" on="0"/>
        <pt x="450" y="-2" on="1"/>
        <pt x="424" y="-2" on="0"/>
        <pt x="385" y="22" on="0"/>
        <pt x="374" y="43" on="1"/>
        <pt x="341" y="26" on="1"/>
        <pt x="313" y="12" on="0"/>
        <pt x="247" y="-8" on="0"/>
        <pt x="214" y="-8" on="1"/>
        <pt x="172" y="-8" on="0"/>
        <pt x="106" y="18" on="0"/>
        <pt x="82" y="41" on="1"/>
        <pt x="59" y="63" on="0"/>
        <pt x="33" y="121" on="0"/>
        <pt x="33" y="154" on="1"/>
        <pt x="33" y="218" on="0"/>
        <pt x="120" y="286" on="0"/>
        <pt x="200" y="286" on="1"/>
        <pt x="208" y="286" on="1"/>
        <pt x="223" y="286" on="0"/>
        <pt x="262" y="284" on="0"/>
        <pt x="305" y="281" on="0"/>
        <pt x="347" y="276" on="0"/>
        <pt x="365" y="274" on="1"/>
      </contour>
      <contour>
        <pt x="365" y="207" on="1"/>
        <pt x="365" y="212" on="0"/>
        <pt x="361" y="217" on="0"/>
        <pt x="353" y="217" on="1"/>
        <pt x="183" y="217" on="1"/>
        <pt x="165" y="217" on="0"/>
        <pt x="143" y="210" on="0"/>
        <pt x="136" y="203" on="1"/>
        <pt x="121" y="188" on="0"/>
        <pt x="121" y="157" on="1"/>
        <pt x="121" y="119" on="0"/>
        <pt x="175" y="67" on="0"/>
        <pt x="227" y="67" on="1"/>
        <pt x="259" y="67" on="0"/>
        <pt x="330" y="86" on="0"/>
        <pt x="356" y="100" on="1"/>
        <pt x="365" y="105" on="0"/>
        <pt x="365" y="116" on="1"/>
      </contour>
    </TTGlyph>
    <TTGlyph name="aacute" xMin="33" yMin="-8" xMax="524" yMax="723">
      <component glyphName="a" x="0" y="0" flags="0x204"/>
      <component glyphName="acute" x="69" y="0" flags="0x4"/>
    </TTGlyph>
    <TTGlyph name="abreve" xMin="33" yMin="-8" xMax="524" yMax="700">
      <component glyphName="a" x="0" y="0" flags="0x204"/>
      <component glyphName="breve" x="63" y="0" flags="0x4"/>
    </TTGlyph>
    <TTGlyph name="acaron" xMin="33" yMin="-8" xMax="524" yMax="720">
      <component glyphName="a" x="0" y="0" flags="0x204"/>
      <component glyphName="caron" x="63" y="0" flags="0x4"/>
    </TTGlyph>
    <TTGlyph name="acircumflex" xMin="33" yMin="-8" xMax="524" yMax="714">
      <component glyphName="a" x="0" y="0" flags="0x204"/>
      <component glyphName="circumflex" x="64" y="0" flags="0x4"/>
    </TTGlyph>
    <TTGlyph name="acute" xMin="76" yMin="539" xMax="322" yMax="723">
      <contour>
        <pt x="106" y="539" on="1"/>
        <pt x="76" y="579" on="1"/>
        <pt x="263" y="718" on="1"/>
        <pt x="270" y="723" on="0"/>
        <pt x="277" y="722" on="0"/>
        <pt x="282" y="715" on="1"/>
        <pt x="322" y="656" on="1"/>
      </contour>
    </TTGlyph>
    <TTGlyph name="acute.cap" xMin="76" yMin="719" xMax="322" yMax="903">
      <contour>
        <pt x="106" y="719" on="1"/>
        <pt x="76" y="759" on="1"/>
        <pt x="263" y="898" on="1"/>
        <pt x="270" y="903" on="0"/>
        <pt x="277" y="902" on="0"/>
        <pt x="282" y="895" on="1"/>
        <pt x="322" y="836" on="1"/>
      </contour>
    </TTGlyph>
    <TTGlyph name="adieresis" xMin="33" yMin="-8" xMax="524" yMax="667">
      <component glyphName="a" x="0" y="0" flags="0x204"/>
      <component glyphName="dieresis" x="63" y="0" flags="0x4"/>
    </TTGlyph>
    <TTGlyph name="ae" xMin="36" yMin="-8" xMax="821" yMax="496">
      <contour>
        <pt x="811" y="73" on="1"/>
        <pt x="765" y="37" on="0"/>
        <pt x="655" y="-8" on="0"/>
        <pt x="601" y="-8" on="1"/>
        <pt x="544" y="-8" on="0"/>
        <pt x="455" y="30" on="0"/>
        <pt x="423" y="65" on="1"/>
        <pt x="390" y="45" on="1"/>
        <pt x="352" y="22" on="0"/>
        <pt x="268" y="-8" on="0"/>
        <pt x="217" y="-8" on="1"/>
        <pt x="182" y="-8" on="0"/>
        <pt x="117" y="16" on="0"/>
        <pt x="66" y="59" on="0"/>
        <pt x="36" y="120" on="0"/>
        <pt x="36" y="158" on="1"/>
        <pt x="36" y="222" on="0"/>
        <pt x="123" y="290" on="0"/>
        <pt x="203" y="290" on="1"/>
        <pt x="211" y="290" on="1"/>
        <pt x="240" y="290" on="0"/>
        <pt x="325" y="283" on="0"/>
        <pt x="360" y="278" on="1"/>
        <pt x="360" y="313" on="1"/>
        <pt x="360" y="342" on="0"/>
        <pt x="350" y="375" on="0"/>
        <pt x="339" y="387" on="1"/>
        <pt x="325" y="403" on="0"/>
        <pt x="278" y="417" on="0"/>
        <pt x="248" y="417" on="1"/>
        <pt x="221" y="417" on="0"/>
        <pt x="164" y="405" on="0"/>
        <pt x="135" y="394" on="1"/>
        <pt x="86" y="376" on="1"/>
        <pt x="57" y="424" on="1"/>
        <pt x="156" y="496" on="0"/>
        <pt x="256" y="496" on="1"/>
        <pt x="304" y="496" on="0"/>
        <pt x="392" y="460" on="0"/>
        <pt x="420" y="418" on="1"/>
        <pt x="452" y="455" on="0"/>
        <pt x="541" y="496" on="0"/>
        <pt x="594" y="496" on="1"/>
        <pt x="644" y="496" on="0"/>
        <pt x="728" y="460" on="0"/>
        <pt x="788" y="397" on="0"/>
        <pt x="821" y="313" on="0"/>
        <pt x="821" y="265" on="1"/>
        <pt x="821" y="240" on="0"/>
        <pt x="810" y="221" on="0"/>
        <pt x="799" y="221" on="1"/>
        <pt x="450" y="221" on="1"/>
        <pt x="455" y="155" on="0"/>
        <pt x="532" y="72" on="0"/>
        <pt x="608" y="72" on="1"/>
        <pt x="637" y="72" on="0"/>
        <pt x="700" y="87" on="0"/>
        <pt x="728" y="98" on="1"/>
        <pt x="782" y="119" on="1"/>
      </contour>
      <contour>
        <pt x="230" y="67" on="1"/>
        <pt x="272" y="67" on="0"/>
        <pt x="359" y="98" on="0"/>
        <pt x="386" y="119" on="1"/>
        <pt x="375" y="141" on="0"/>
        <pt x="362" y="194" on="0"/>
        <pt x="360" y="221" on="1"/>
        <pt x="186" y="221" on="1"/>
        <pt x="168" y="221" on="0"/>
        <pt x="146" y="214" on="0"/>
        <pt x="139" y="207" on="1"/>
        <pt x="124" y="192" on="0"/>
        <pt x="124" y="161" on="1"/>
        <pt x="124" y="123" on="0"/>
        <pt x="178" y="67" on="0"/>
      </contour>
      <contour>
        <pt x="734" y="289" on="1"/>
        <pt x="730" y="346" on="0"/>
        <pt x="657" y="417" on="0"/>
        <pt x="594" y="417" on="1"/>
        <pt x="532" y="417" on="0"/>
        <pt x="456" y="350" on="0"/>
        <pt x="450" y="289" on="1"/>
      </contour>
    </TTGlyph>
    <TTGlyph name="aeacute" xMin="36" yMin="-8" xMax="821" yMax="723">
      <component glyphName="ae" x="0" y="0" flags="0x204"/>
      <component glyphName="acute" x="265" y="0" flags="0x4"/>
    </TTGlyph>
    <TTGlyph name="agrave" xMin="33" yMin="-8" xMax="524" yMax="723">
      <component glyphName="a" x="0" y="0" flags="0x204"/>
      <component glyphName="grave" x="59" y="0" flags="0x4"/>
    </TTGlyph>
    <TTGlyph name="amacron" xMin="33" yMin="-8" xMax="524" yMax="651">
      <component glyphName="a" x="0" y="0" flags="0x204"/>
      <component glyphName="macron" x="62" y="0" flags="0x4"/>
    </TTGlyph>
    <TTGlyph name="ampersand" xMin="37" yMin="-10" xMax="703" yMax="673">
      <contour>
        <pt x="703" y="17" on="1"/>
        <pt x="689" y="9" on="0"/>
        <pt x="646" y="-4" on="0"/>
        <pt x="628" y="-4" on="1"/>
        <pt x="615" y="-4" on="0"/>
        <pt x="594" y="0" on="0"/>
        <pt x="573" y="10" on="0"/>
        <pt x="550" y="28" on="0"/>
        <pt x="536" y="42" on="1"/>
        <pt x="506" y="72" on="1"/>
        <pt x="462" y="34" on="0"/>
        <pt x="357" y="-10" on="0"/>
        <pt x="296" y="-10" on="1"/>
        <pt x="243" y="-10" on="0"/>
        <pt x="149" y="25" on="0"/>
        <pt x="79" y="85" on="0"/>
        <pt x="37" y="167" on="0"/>
        <pt x="37" y="214" on="1"/>
        <pt x="37" y="281" on="0"/>
        <pt x="118" y="371" on="0"/>
        <pt x="180" y="405" on="1"/>
        <pt x="163" y="430" on="0"/>
        <pt x="143" y="479" on="0"/>
        <pt x="143" y="508" on="1"/>
        <pt x="143" y="545" on="0"/>
        <pt x="172" y="606" on="0"/>
        <pt x="222" y="650" on="0"/>
        <pt x="289" y="673" on="0"/>
        <pt x="326" y="673" on="1"/>
        <pt x="360" y="673" on="0"/>
        <pt x="423" y="649" on="0"/>
        <pt x="471" y="607" on="0"/>
        <pt x="499" y="549" on="0"/>
        <pt x="499" y="515" on="1"/>
        <pt x="499" y="464" on="0"/>
        <pt x="436" y="371" on="0"/>
        <pt x="367" y="326" on="1"/>
        <pt x="507" y="186" on="1"/>
        <pt x="524" y="210" on="0"/>
        <pt x="557" y="267" on="0"/>
        <pt x="572" y="298" on="1"/>
        <pt x="623" y="403" on="1"/>
        <pt x="684" y="382" on="1"/>
        <pt x="664" y="313" on="0"/>
        <pt x="604" y="185" on="0"/>
        <pt x="562" y="132" on="1"/>
        <pt x="622" y="72" on="1"/>
        <pt x="703" y="60" on="1"/>
      </contour>
      <contour>
        <pt x="202" y="345" on="1"/>
        <pt x="184" y="328" on="0"/>
        <pt x="156" y="298" on="0"/>
        <pt x="138" y="270" on="0"/>
        <pt x="129" y="239" on="0"/>
        <pt x="129" y="221" on="1"/>
        <pt x="129" y="191" on="0"/>
        <pt x="154" y="137" on="0"/>
        <pt x="200" y="96" on="0"/>
        <pt x="265" y="72" on="0"/>
        <pt x="306" y="72" on="1"/>
        <pt x="350" y="72" on="0"/>
        <pt x="421" y="100" on="0"/>
        <pt x="451" y="126" on="1"/>
        <pt x="270" y="308" on="1"/>
        <pt x="218" y="360" on="1"/>
      </contour>
      <contour>
        <pt x="361" y="403" on="1"/>
        <pt x="393" y="436" on="0"/>
        <pt x="419" y="486" on="0"/>
        <pt x="419" y="515" on="1"/>
        <pt x="419" y="550" on="0"/>
        <pt x="365" y="598" on="0"/>
        <pt x="323" y="598" on="1"/>
        <pt x="278" y="598" on="0"/>
        <pt x="227" y="549" on="0"/>
        <pt x="227" y="512" on="1"/>
        <pt x="227" y="480" on="0"/>
        <pt x="276" y="416" on="0"/>
        <pt x="326" y="367" on="1"/>
      </contour>
    </TTGlyph>
    <TTGlyph name="aogonek" xMin="33" yMin="-203" xMax="529" yMax="496">
      <contour>
        <pt x="365" y="313" on="1"/>
        <pt x="365" y="342" on="0"/>
        <pt x="355" y="375" on="0"/>
        <pt x="344" y="387" on="1"/>
        <pt x="330" y="403" on="0"/>
        <pt x="283" y="417" on="0"/>
        <pt x="253" y="417" on="1"/>
        <pt x="226" y="417" on="0"/>
        <pt x="167" y="405" on="0"/>
        <pt x="138" y="394" on="1"/>
        <pt x="88" y="376" on="1"/>
        <pt x="60" y="424" on="1"/>
        <pt x="110" y="460" on="0"/>
        <pt x="211" y="496" on="0"/>
        <pt x="261" y="496" on="1"/>
        <pt x="305" y="496" on="0"/>
        <pt x="382" y="469" on="0"/>
        <pt x="409" y="440" on="1"/>
        <pt x="430" y="417" on="0"/>
        <pt x="453" y="357" on="0"/>
        <pt x="453" y="310" on="1"/>
        <pt x="453" y="72" on="1"/>
        <pt x="524" y="59" on="1"/>
        <pt x="524" y="14" on="1"/>
        <pt x="518" y="11" on="1"/>
        <pt x="461" y="-15" on="0"/>
        <pt x="396" y="-67" on="0"/>
        <pt x="396" y="-99" on="1"/>
        <pt x="396" y="-141" on="0"/>
        <pt x="450" y="-141" on="1"/>
        <pt x="458" y="-141" on="0"/>
        <pt x="480" y="-139" on="0"/>
        <pt x="491" y="-137" on="1"/>
        <pt x="514" y="-133" on="1"/>
        <pt x="529" y="-178" on="1"/>
        <pt x="508" y="-190" on="0"/>
        <pt x="457" y="-203" on="0"/>
        <pt x="434" y="-203" on="1"/>
        <pt x="383" y="-203" on="0"/>
        <pt x="318" y="-151" on="0"/>
        <pt x="318" y="-109" on="1"/>
        <pt x="318" y="-71" on="0"/>
        <pt x="369" y="-17" on="0"/>
        <pt x="416" y="4" on="1"/>
        <pt x="388" y="14" on="0"/>
        <pt x="374" y="43" on="1"/>
        <pt x="341" y="26" on="1"/>
        <pt x="313" y="12" on="0"/>
        <pt x="247" y="-8" on="0"/>
        <pt x="214" y="-8" on="1"/>
        <pt x="172" y="-8" on="0"/>
        <pt x="106" y="18" on="0"/>
        <pt x="82" y="41" on="1"/>
        <pt x="59" y="63" on="0"/>
        <pt x="33" y="121" on="0"/>
        <pt x="33" y="154" on="1"/>
        <pt x="33" y="218" on="0"/>
        <pt x="120" y="286" on="0"/>
        <pt x="200" y="286" on="1"/>
        <pt x="208" y="286" on="1"/>
        <pt x="223" y="286" on="0"/>
        <pt x="262" y="284" on="0"/>
        <pt x="305" y="281" on="0"/>
        <pt x="347" y="276" on="0"/>
        <pt x="365" y="274" on="1"/>
      </contour>
      <contour>
        <pt x="365" y="207" on="1"/>
        <pt x="365" y="212" on="0"/>
        <pt x="361" y="217" on="0"/>
        <pt x="353" y="217" on="1"/>
        <pt x="183" y="217" on="1"/>
        <pt x="165" y="217" on="0"/>
        <pt x="143" y="210" on="0"/>
        <pt x="136" y="203" on="1"/>
        <pt x="121" y="188" on="0"/>
        <pt x="121" y="157" on="1"/>
        <pt x="121" y="119" on="0"/>
        <pt x="175" y="67" on="0"/>
        <pt x="227" y="67" on="1"/>
        <pt x="259" y="67" on="0"/>
        <pt x="330" y="86" on="0"/>
        <pt x="356" y="100" on="1"/>
        <pt x="365" y="105" on="0"/>
        <pt x="365" y="116" on="1"/>
      </contour>
    </TTGlyph>
    <TTGlyph name="apple" xMin="78" yMin="0" xMax="466" yMax="650">
      <contour>
        <pt x="208" y="357" on="1"/>
        <pt x="208" y="370" on="0"/>
        <pt x="227" y="388" on="0"/>
        <pt x="239" y="388" on="1"/>
        <pt x="252" y="388" on="0"/>
        <pt x="269" y="370" on="0"/>
        <pt x="269" y="357" on="1"/>
        <pt x="269" y="344" on="0"/>
        <pt x="252" y="327" on="0"/>
        <pt x="239" y="327" on="1"/>
        <pt x="227" y="327" on="0"/>
        <pt x="208" y="344" on="0"/>
      </contour>
      <contour>
        <pt x="405" y="357" on="1"/>
        <pt x="405" y="370" on="0"/>
        <pt x="424" y="388" on="0"/>
        <pt x="436" y="388" on="1"/>
        <pt x="449" y="388" on="0"/>
        <pt x="466" y="370" on="0"/>
        <pt x="466" y="357" on="1"/>
        <pt x="466" y="344" on="0"/>
        <pt x="449" y="327" on="0"/>
        <pt x="436" y="327" on="1"/>
        <pt x="424" y="327" on="0"/>
        <pt x="405" y="344" on="0"/>
      </contour>
      <contour>
        <pt x="78" y="161" on="1"/>
        <pt x="78" y="174" on="0"/>
        <pt x="95" y="191" on="0"/>
        <pt x="108" y="191" on="1"/>
        <pt x="120" y="191" on="0"/>
        <pt x="139" y="174" on="0"/>
        <pt x="139" y="161" on="1"/>
        <pt x="139" y="148" on="0"/>
        <pt x="120" y="130" on="0"/>
        <pt x="108" y="130" on="1"/>
        <pt x="95" y="130" on="0"/>
        <pt x="78" y="148" on="0"/>
      </contour>
      <contour>
        <pt x="78" y="357" on="1"/>
        <pt x="78" y="370" on="0"/>
        <pt x="95" y="388" on="0"/>
        <pt x="108" y="388" on="1"/>
        <pt x="120" y="388" on="0"/>
        <pt x="139" y="370" on="0"/>
        <pt x="139" y="357" on="1"/>
        <pt x="139" y="344" on="0"/>
        <pt x="120" y="327" on="0"/>
        <pt x="108" y="327" on="1"/>
        <pt x="95" y="327" on="0"/>
        <pt x="78" y="344" on="0"/>
      </contour>
      <contour>
        <pt x="275" y="357" on="1"/>
        <pt x="275" y="370" on="0"/>
        <pt x="292" y="388" on="0"/>
        <pt x="305" y="388" on="1"/>
        <pt x="317" y="388" on="0"/>
        <pt x="336" y="370" on="0"/>
        <pt x="336" y="357" on="1"/>
        <pt x="336" y="344" on="0"/>
        <pt x="317" y="327" on="0"/>
        <pt x="305" y="327" on="1"/>
        <pt x="292" y="327" on="0"/>
        <pt x="275" y="344" on="0"/>
      </contour>
      <contour>
        <pt x="340" y="620" on="1"/>
        <pt x="340" y="632" on="0"/>
        <pt x="357" y="650" on="0"/>
        <pt x="371" y="650" on="1"/>
        <pt x="382" y="650" on="0"/>
        <pt x="401" y="632" on="0"/>
        <pt x="401" y="620" on="1"/>
        <pt x="401" y="606" on="0"/>
        <pt x="382" y="589" on="0"/>
        <pt x="371" y="589" on="1"/>
        <pt x="357" y="589" on="0"/>
        <pt x="340" y="606" on="0"/>
      </contour>
      <contour>
        <pt x="78" y="620" on="1"/>
        <pt x="78" y="632" on="0"/>
        <pt x="95" y="650" on="0"/>
        <pt x="108" y="650" on="1"/>
        <pt x="120" y="650" on="0"/>
        <pt x="139" y="632" on="0"/>
        <pt x="139" y="620" on="1"/>
        <pt x="139" y="606" on="0"/>
        <pt x="120" y="589" on="0"/>
        <pt x="108" y="589" on="1"/>
        <pt x="95" y="589" on="0"/>
        <pt x="78" y="606" on="0"/>
      </contour>
      <contour>
        <pt x="275" y="620" on="1"/>
        <pt x="275" y="632" on="0"/>
        <pt x="292" y="650" on="0"/>
        <pt x="305" y="650" on="1"/>
        <pt x="317" y="650" on="0"/>
        <pt x="336" y="632" on="0"/>
        <pt x="336" y="620" on="1"/>
        <pt x="336" y="606" on="0"/>
        <pt x="317" y="589" on="0"/>
        <pt x="305" y="589" on="1"/>
        <pt x="292" y="589" on="0"/>
        <pt x="275" y="606" on="0"/>
      </contour>
      <contour>
        <pt x="405" y="620" on="1"/>
        <pt x="405" y="632" on="0"/>
        <pt x="424" y="650" on="0"/>
        <pt x="436" y="650" on="1"/>
        <pt x="449" y="650" on="0"/>
        <pt x="466" y="632" on="0"/>
        <pt x="466" y="620" on="1"/>
        <pt x="466" y="606" on="0"/>
        <pt x="449" y="589" on="0"/>
        <pt x="436" y="589" on="1"/>
        <pt x="424" y="589" on="0"/>
        <pt x="405" y="606" on="0"/>
      </contour>
      <contour>
        <pt x="208" y="620" on="1"/>
        <pt x="208" y="632" on="0"/>
        <pt x="227" y="650" on="0"/>
        <pt x="239" y="650" on="1"/>
        <pt x="252" y="650" on="0"/>
        <pt x="269" y="632" on="0"/>
        <pt x="269" y="620" on="1"/>
        <pt x="269" y="606" on="0"/>
        <pt x="252" y="589" on="0"/>
        <pt x="239" y="589" on="1"/>
        <pt x="227" y="589" on="0"/>
        <pt x="208" y="606" on="0"/>
      </contour>
      <contour>
        <pt x="340" y="357" on="1"/>
        <pt x="340" y="370" on="0"/>
        <pt x="357" y="388" on="0"/>
        <pt x="371" y="388" on="1"/>
        <pt x="382" y="388" on="0"/>
        <pt x="401" y="370" on="0"/>
        <pt x="401" y="357" on="1"/>
        <pt x="401" y="344" on="0"/>
        <pt x="382" y="327" on="0"/>
        <pt x="371" y="327" on="1"/>
        <pt x="357" y="327" on="0"/>
        <pt x="340" y="344" on="0"/>
      </contour>
      <contour>
        <pt x="208" y="30" on="1"/>
        <pt x="208" y="42" on="0"/>
        <pt x="227" y="61" on="0"/>
        <pt x="239" y="61" on="1"/>
        <pt x="252" y="61" on="0"/>
        <pt x="269" y="42" on="0"/>
        <pt x="269" y="30" on="1"/>
        <pt x="269" y="17" on="0"/>
        <pt x="252" y="0" on="0"/>
        <pt x="239" y="0" on="1"/>
        <pt x="227" y="0" on="0"/>
        <pt x="208" y="17" on="0"/>
      </contour>
      <contour>
        <pt x="78" y="30" on="1"/>
        <pt x="78" y="42" on="0"/>
        <pt x="95" y="61" on="0"/>
        <pt x="108" y="61" on="1"/>
        <pt x="120" y="61" on="0"/>
        <pt x="139" y="42" on="0"/>
        <pt x="139" y="30" on="1"/>
        <pt x="139" y="17" on="0"/>
        <pt x="120" y="0" on="0"/>
        <pt x="108" y="0" on="1"/>
        <pt x="95" y="0" on="0"/>
        <pt x="78" y="17" on="0"/>
      </contour>
      <contour>
        <pt x="208" y="95" on="1"/>
        <pt x="208" y="109" on="0"/>
        <pt x="227" y="125" on="0"/>
        <pt x="239" y="125" on="1"/>
        <pt x="252" y="125" on="0"/>
        <pt x="269" y="109" on="0"/>
        <pt x="269" y="95" on="1"/>
        <pt x="269" y="82" on="0"/>
        <pt x="252" y="65" on="0"/>
        <pt x="239" y="65" on="1"/>
        <pt x="227" y="65" on="0"/>
        <pt x="208" y="82" on="0"/>
      </contour>
      <contour>
        <pt x="78" y="95" on="1"/>
        <pt x="78" y="109" on="0"/>
        <pt x="95" y="125" on="0"/>
        <pt x="108" y="125" on="1"/>
        <pt x="120" y="125" on="0"/>
        <pt x="139" y="109" on="0"/>
        <pt x="139" y="95" on="1"/>
        <pt x="139" y="82" on="0"/>
        <pt x="120" y="65" on="0"/>
        <pt x="108" y="65" on="1"/>
        <pt x="95" y="65" on="0"/>
        <pt x="78" y="82" on="0"/>
      </contour>
      <contour>
        <pt x="144" y="620" on="1"/>
        <pt x="144" y="632" on="0"/>
        <pt x="162" y="650" on="0"/>
        <pt x="174" y="650" on="1"/>
        <pt x="187" y="650" on="0"/>
        <pt x="204" y="632" on="0"/>
        <pt x="204" y="620" on="1"/>
        <pt x="204" y="606" on="0"/>
        <pt x="187" y="589" on="0"/>
        <pt x="174" y="589" on="1"/>
        <pt x="162" y="589" on="0"/>
        <pt x="144" y="606" on="0"/>
      </contour>
      <contour>
        <pt x="78" y="489" on="1"/>
        <pt x="78" y="501" on="0"/>
        <pt x="95" y="518" on="0"/>
        <pt x="108" y="518" on="1"/>
        <pt x="120" y="518" on="0"/>
        <pt x="139" y="501" on="0"/>
        <pt x="139" y="489" on="1"/>
        <pt x="139" y="476" on="0"/>
        <pt x="120" y="458" on="0"/>
        <pt x="108" y="458" on="1"/>
        <pt x="95" y="458" on="0"/>
        <pt x="78" y="476" on="0"/>
      </contour>
      <contour>
        <pt x="275" y="489" on="1"/>
        <pt x="275" y="501" on="0"/>
        <pt x="292" y="518" on="0"/>
        <pt x="305" y="518" on="1"/>
        <pt x="317" y="518" on="0"/>
        <pt x="336" y="501" on="0"/>
        <pt x="336" y="489" on="1"/>
        <pt x="336" y="476" on="0"/>
        <pt x="317" y="458" on="0"/>
        <pt x="305" y="458" on="1"/>
        <pt x="292" y="458" on="0"/>
        <pt x="275" y="476" on="0"/>
      </contour>
      <contour>
        <pt x="208" y="489" on="1"/>
        <pt x="208" y="501" on="0"/>
        <pt x="227" y="518" on="0"/>
        <pt x="239" y="518" on="1"/>
        <pt x="252" y="518" on="0"/>
        <pt x="269" y="501" on="0"/>
        <pt x="269" y="489" on="1"/>
        <pt x="269" y="476" on="0"/>
        <pt x="252" y="458" on="0"/>
        <pt x="239" y="458" on="1"/>
        <pt x="227" y="458" on="0"/>
        <pt x="208" y="476" on="0"/>
      </contour>
      <contour>
        <pt x="405" y="489" on="1"/>
        <pt x="405" y="501" on="0"/>
        <pt x="424" y="518" on="0"/>
        <pt x="436" y="518" on="1"/>
        <pt x="449" y="518" on="0"/>
        <pt x="466" y="501" on="0"/>
        <pt x="466" y="489" on="1"/>
        <pt x="466" y="476" on="0"/>
        <pt x="449" y="458" on="0"/>
        <pt x="436" y="458" on="1"/>
        <pt x="424" y="458" on="0"/>
        <pt x="405" y="476" on="0"/>
      </contour>
      <contour>
        <pt x="340" y="489" on="1"/>
        <pt x="340" y="501" on="0"/>
        <pt x="357" y="518" on="0"/>
        <pt x="371" y="518" on="1"/>
        <pt x="382" y="518" on="0"/>
        <pt x="401" y="501" on="0"/>
        <pt x="401" y="489" on="1"/>
        <pt x="401" y="476" on="0"/>
        <pt x="382" y="458" on="0"/>
        <pt x="371" y="458" on="1"/>
        <pt x="357" y="458" on="0"/>
        <pt x="340" y="476" on="0"/>
      </contour>
      <contour>
        <pt x="144" y="30" on="1"/>
        <pt x="144" y="42" on="0"/>
        <pt x="162" y="61" on="0"/>
        <pt x="174" y="61" on="1"/>
        <pt x="187" y="61" on="0"/>
        <pt x="204" y="42" on="0"/>
        <pt x="204" y="30" on="1"/>
        <pt x="204" y="17" on="0"/>
        <pt x="187" y="0" on="0"/>
        <pt x="174" y="0" on="1"/>
        <pt x="162" y="0" on="0"/>
        <pt x="144" y="17" on="0"/>
      </contour>
      <contour>
        <pt x="78" y="292" on="1"/>
        <pt x="78" y="304" on="0"/>
        <pt x="95" y="322" on="0"/>
        <pt x="108" y="322" on="1"/>
        <pt x="120" y="322" on="0"/>
        <pt x="139" y="304" on="0"/>
        <pt x="139" y="292" on="1"/>
        <pt x="139" y="279" on="0"/>
        <pt x="120" y="262" on="0"/>
        <pt x="108" y="262" on="1"/>
        <pt x="95" y="262" on="0"/>
        <pt x="78" y="279" on="0"/>
      </contour>
      <contour>
        <pt x="78" y="554" on="1"/>
        <pt x="78" y="566" on="0"/>
        <pt x="95" y="584" on="0"/>
        <pt x="108" y="584" on="1"/>
        <pt x="120" y="584" on="0"/>
        <pt x="139" y="566" on="0"/>
        <pt x="139" y="554" on="1"/>
        <pt x="139" y="541" on="0"/>
        <pt x="120" y="524" on="0"/>
        <pt x="108" y="524" on="1"/>
        <pt x="95" y="524" on="0"/>
        <pt x="78" y="541" on="0"/>
      </contour>
      <contour>
        <pt x="405" y="292" on="1"/>
        <pt x="405" y="304" on="0"/>
        <pt x="424" y="322" on="0"/>
        <pt x="436" y="322" on="1"/>
        <pt x="449" y="322" on="0"/>
        <pt x="466" y="304" on="0"/>
        <pt x="466" y="292" on="1"/>
        <pt x="466" y="279" on="0"/>
        <pt x="449" y="262" on="0"/>
        <pt x="436" y="262" on="1"/>
        <pt x="424" y="262" on="0"/>
        <pt x="405" y="279" on="0"/>
      </contour>
      <contour>
        <pt x="78" y="423" on="1"/>
        <pt x="78" y="436" on="0"/>
        <pt x="95" y="453" on="0"/>
        <pt x="108" y="453" on="1"/>
        <pt x="120" y="453" on="0"/>
        <pt x="139" y="436" on="0"/>
        <pt x="139" y="423" on="1"/>
        <pt x="139" y="410" on="0"/>
        <pt x="120" y="394" on="0"/>
        <pt x="108" y="394" on="1"/>
        <pt x="95" y="394" on="0"/>
        <pt x="78" y="410" on="0"/>
      </contour>
      <contour>
        <pt x="208" y="423" on="1"/>
        <pt x="208" y="436" on="0"/>
        <pt x="227" y="453" on="0"/>
        <pt x="239" y="453" on="1"/>
        <pt x="252" y="453" on="0"/>
        <pt x="269" y="436" on="0"/>
        <pt x="269" y="423" on="1"/>
        <pt x="269" y="410" on="0"/>
        <pt x="252" y="394" on="0"/>
        <pt x="239" y="394" on="1"/>
        <pt x="227" y="394" on="0"/>
        <pt x="208" y="410" on="0"/>
      </contour>
      <contour>
        <pt x="208" y="227" on="1"/>
        <pt x="208" y="239" on="0"/>
        <pt x="227" y="256" on="0"/>
        <pt x="239" y="256" on="1"/>
        <pt x="252" y="256" on="0"/>
        <pt x="269" y="239" on="0"/>
        <pt x="269" y="227" on="1"/>
        <pt x="269" y="214" on="0"/>
        <pt x="252" y="197" on="0"/>
        <pt x="239" y="197" on="1"/>
        <pt x="227" y="197" on="0"/>
        <pt x="208" y="214" on="0"/>
      </contour>
      <contour>
        <pt x="405" y="227" on="1"/>
        <pt x="405" y="239" on="0"/>
        <pt x="424" y="256" on="0"/>
        <pt x="436" y="256" on="1"/>
        <pt x="449" y="256" on="0"/>
        <pt x="466" y="239" on="0"/>
        <pt x="466" y="227" on="1"/>
        <pt x="466" y="214" on="0"/>
        <pt x="449" y="197" on="0"/>
        <pt x="436" y="197" on="1"/>
        <pt x="424" y="197" on="0"/>
        <pt x="405" y="214" on="0"/>
      </contour>
      <contour>
        <pt x="78" y="227" on="1"/>
        <pt x="78" y="239" on="0"/>
        <pt x="95" y="256" on="0"/>
        <pt x="108" y="256" on="1"/>
        <pt x="120" y="256" on="0"/>
        <pt x="139" y="239" on="0"/>
        <pt x="139" y="227" on="1"/>
        <pt x="139" y="214" on="0"/>
        <pt x="120" y="197" on="0"/>
        <pt x="108" y="197" on="1"/>
        <pt x="95" y="197" on="0"/>
        <pt x="78" y="214" on="0"/>
      </contour>
      <contour>
        <pt x="275" y="227" on="1"/>
        <pt x="275" y="239" on="0"/>
        <pt x="292" y="256" on="0"/>
        <pt x="305" y="256" on="1"/>
        <pt x="317" y="256" on="0"/>
        <pt x="336" y="239" on="0"/>
        <pt x="336" y="227" on="1"/>
        <pt x="336" y="214" on="0"/>
        <pt x="317" y="197" on="0"/>
        <pt x="305" y="197" on="1"/>
        <pt x="292" y="197" on="0"/>
        <pt x="275" y="214" on="0"/>
      </contour>
      <contour>
        <pt x="340" y="227" on="1"/>
        <pt x="340" y="239" on="0"/>
        <pt x="357" y="256" on="0"/>
        <pt x="371" y="256" on="1"/>
        <pt x="382" y="256" on="0"/>
        <pt x="401" y="239" on="0"/>
        <pt x="401" y="227" on="1"/>
        <pt x="401" y="214" on="0"/>
        <pt x="382" y="197" on="0"/>
        <pt x="371" y="197" on="1"/>
        <pt x="357" y="197" on="0"/>
        <pt x="340" y="214" on="0"/>
      </contour>
    </TTGlyph>
    <TTGlyph name="approxequal" xMin="63" yMin="89" xMax="468" yMax="401">
      <contour>
        <pt x="468" y="384" on="1"/>
        <pt x="455" y="338" on="0"/>
        <pt x="387" y="280" on="0"/>
        <pt x="345" y="280" on="1"/>
        <pt x="322" y="280" on="0"/>
        <pt x="281" y="294" on="0"/>
        <pt x="241" y="310" on="0"/>
        <pt x="204" y="324" on="0"/>
        <pt x="186" y="324" on="1"/>
        <pt x="160" y="324" on="0"/>
        <pt x="127" y="302" on="0"/>
        <pt x="111" y="277" on="1"/>
        <pt x="63" y="294" on="1"/>
        <pt x="76" y="340" on="0"/>
        <pt x="144" y="398" on="0"/>
        <pt x="186" y="398" on="1"/>
        <pt x="208" y="398" on="0"/>
        <pt x="250" y="384" on="0"/>
        <pt x="290" y="368" on="0"/>
        <pt x="327" y="354" on="0"/>
        <pt x="345" y="354" on="1"/>
        <pt x="371" y="354" on="0"/>
        <pt x="404" y="376" on="0"/>
        <pt x="420" y="401" on="1"/>
      </contour>
      <contour>
        <pt x="468" y="195" on="1"/>
        <pt x="455" y="149" on="0"/>
        <pt x="387" y="91" on="0"/>
        <pt x="345" y="91" on="1"/>
        <pt x="322" y="91" on="0"/>
        <pt x="281" y="105" on="0"/>
        <pt x="241" y="122" on="0"/>
        <pt x="204" y="136" on="0"/>
        <pt x="186" y="136" on="1"/>
        <pt x="160" y="136" on="0"/>
        <pt x="127" y="113" on="0"/>
        <pt x="111" y="89" on="1"/>
        <pt x="63" y="106" on="1"/>
        <pt x="76" y="152" on="0"/>
        <pt x="144" y="210" on="0"/>
        <pt x="186" y="210" on="1"/>
        <pt x="208" y="210" on="0"/>
        <pt x="250" y="196" on="0"/>
        <pt x="290" y="179" on="0"/>
        <pt x="327" y="165" on="0"/>
        <pt x="345" y="165" on="1"/>
        <pt x="371" y="165" on="0"/>
        <pt x="404" y="188" on="0"/>
        <pt x="420" y="212" on="1"/>
      </contour>
    </TTGlyph>
    <TTGlyph name="aring" xMin="33" yMin="-8" xMax="524" yMax="767">
      <component glyphName="a" x="0" y="0" flags="0x204"/>
      <component glyphName="ring" x="62" y="0" flags="0x4"/>
    </TTGlyph>
    <TTGlyph name="aringacute" xMin="33" yMin="-8" xMax="524" yMax="946">
      <component glyphName="a" x="0" y="0" flags="0x204"/>
      <component glyphName="ring" x="62" y="-14" flags="0x4"/>
      <component glyphName="acute" x="62" y="223" flags="0x4"/>
    </TTGlyph>
    <TTGlyph name="arrowdown" xMin="165" yMin="-82" xMax="615" yMax="569">
      <contour>
        <pt x="357" y="-74" on="1"/>
        <pt x="165" y="118" on="1"/>
        <pt x="203" y="157" on="1"/>
        <pt x="350" y="24" on="1"/>
        <pt x="350" y="569" on="1"/>
        <pt x="426" y="569" on="1"/>
        <pt x="426" y="23" on="1"/>
        <pt x="576" y="157" on="1"/>
        <pt x="615" y="119" on="1"/>
        <pt x="415" y="-82" on="1"/>
        <pt x="376" y="-82" on="1"/>
        <pt x="369" y="-82" on="0"/>
        <pt x="362" y="-79" on="0"/>
      </contour>
    </TTGlyph>
    <TTGlyph name="arrowdown.cap" xMin="165" yMin="4" xMax="615" yMax="655">
      <contour>
        <pt x="357" y="12" on="1"/>
        <pt x="165" y="204" on="1"/>
        <pt x="203" y="243" on="1"/>
        <pt x="350" y="110" on="1"/>
        <pt x="350" y="655" on="1"/>
        <pt x="426" y="655" on="1"/>
        <pt x="426" y="109" on="1"/>
        <pt x="576" y="243" on="1"/>
        <pt x="615" y="205" on="1"/>
        <pt x="415" y="4" on="1"/>
        <pt x="376" y="4" on="1"/>
        <pt x="369" y="4" on="0"/>
        <pt x="362" y="7" on="0"/>
      </contour>
    </TTGlyph>
    <TTGlyph name="arrowleft" xMin="64" yMin="19" xMax="715" yMax="469">
      <contour>
        <pt x="264" y="469" on="1"/>
        <pt x="303" y="430" on="1"/>
        <pt x="170" y="281" on="1"/>
        <pt x="715" y="281" on="1"/>
        <pt x="715" y="210" on="1"/>
        <pt x="169" y="210" on="1"/>
        <pt x="303" y="58" on="1"/>
        <pt x="264" y="19" on="1"/>
        <pt x="64" y="219" on="1"/>
        <pt x="64" y="258" on="1"/>
        <pt x="64" y="270" on="0"/>
        <pt x="71" y="277" on="1"/>
      </contour>
    </TTGlyph>
    <TTGlyph name="arrowleft.cap" xMin="64" yMin="105" xMax="715" yMax="555">
      <contour>
        <pt x="264" y="555" on="1"/>
        <pt x="303" y="516" on="1"/>
        <pt x="170" y="367" on="1"/>
        <pt x="715" y="367" on="1"/>
        <pt x="715" y="296" on="1"/>
        <pt x="169" y="296" on="1"/>
        <pt x="303" y="144" on="1"/>
        <pt x="264" y="105" on="1"/>
        <pt x="64" y="305" on="1"/>
        <pt x="64" y="344" on="1"/>
        <pt x="64" y="356" on="0"/>
        <pt x="71" y="363" on="1"/>
      </contour>
    </TTGlyph>
    <TTGlyph name="arrowright" xMin="64" yMin="22" xMax="715" yMax="472">
      <contour>
        <pt x="708" y="214" on="1"/>
        <pt x="515" y="22" on="1"/>
        <pt x="476" y="61" on="1"/>
        <pt x="609" y="210" on="1"/>
        <pt x="64" y="210" on="1"/>
        <pt x="64" y="281" on="1"/>
        <pt x="610" y="281" on="1"/>
        <pt x="476" y="433" on="1"/>
        <pt x="515" y="472" on="1"/>
        <pt x="715" y="272" on="1"/>
        <pt x="715" y="233" on="1"/>
        <pt x="715" y="226" on="0"/>
        <pt x="713" y="219" on="0"/>
      </contour>
    </TTGlyph>
    <TTGlyph name="arrowright.cap" xMin="64" yMin="108" xMax="715" yMax="558">
      <contour>
        <pt x="708" y="300" on="1"/>
        <pt x="515" y="108" on="1"/>
        <pt x="476" y="147" on="1"/>
        <pt x="609" y="296" on="1"/>
        <pt x="64" y="296" on="1"/>
        <pt x="64" y="367" on="1"/>
        <pt x="610" y="367" on="1"/>
        <pt x="476" y="519" on="1"/>
        <pt x="515" y="558" on="1"/>
        <pt x="715" y="358" on="1"/>
        <pt x="715" y="319" on="1"/>
        <pt x="715" y="312" on="0"/>
        <pt x="713" y="305" on="0"/>
      </contour>
    </TTGlyph>
    <TTGlyph name="arrowup" xMin="165" yMin="-82" xMax="615" yMax="569">
      <contour>
        <pt x="422" y="562" on="1"/>
        <pt x="615" y="369" on="1"/>
        <pt x="576" y="330" on="1"/>
        <pt x="429" y="463" on="1"/>
        <pt x="429" y="-82" on="1"/>
        <pt x="353" y="-82" on="1"/>
        <pt x="353" y="464" on="1"/>
        <pt x="203" y="330" on="1"/>
        <pt x="165" y="369" on="1"/>
        <pt x="364" y="569" on="1"/>
        <pt x="403" y="569" on="1"/>
        <pt x="411" y="569" on="0"/>
        <pt x="417" y="567" on="0"/>
      </contour>
    </TTGlyph>
    <TTGlyph name="arrowup.cap" xMin="165" yMin="4" xMax="615" yMax="655">
      <contour>
        <pt x="422" y="648" on="1"/>
        <pt x="615" y="455" on="1"/>
        <pt x="576" y="416" on="1"/>
        <pt x="429" y="549" on="1"/>
        <pt x="429" y="4" on="1"/>
        <pt x="353" y="4" on="1"/>
        <pt x="353" y="550" on="1"/>
        <pt x="203" y="416" on="1"/>
        <pt x="165" y="455" on="1"/>
        <pt x="364" y="655" on="1"/>
        <pt x="403" y="655" on="1"/>
        <pt x="411" y="655" on="0"/>
        <pt x="417" y="653" on="0"/>
      </contour>
    </TTGlyph>
    <TTGlyph name="asciicircum" xMin="69" yMin="412" xMax="463" yMax="673">
      <contour>
        <pt x="463" y="453" on="1"/>
        <pt x="402" y="412" on="1"/>
        <pt x="266" y="591" on="1"/>
        <pt x="265" y="591" on="1"/>
        <pt x="129" y="412" on="1"/>
        <pt x="69" y="453" on="1"/>
        <pt x="234" y="673" on="1"/>
        <pt x="298" y="673" on="1"/>
      </contour>
    </TTGlyph>
    <TTGlyph name="asciitilde" xMin="63" yMin="277" xMax="468" yMax="401">
      <contour>
        <pt x="468" y="384" on="1"/>
        <pt x="455" y="338" on="0"/>
        <pt x="387" y="280" on="0"/>
        <pt x="345" y="280" on="1"/>
        <pt x="322" y="280" on="0"/>
        <pt x="281" y="294" on="0"/>
        <pt x="241" y="310" on="0"/>
        <pt x="204" y="324" on="0"/>
        <pt x="186" y="324" on="1"/>
        <pt x="160" y="324" on="0"/>
        <pt x="127" y="302" on="0"/>
        <pt x="111" y="277" on="1"/>
        <pt x="63" y="294" on="1"/>
        <pt x="76" y="340" on="0"/>
        <pt x="144" y="398" on="0"/>
        <pt x="186" y="398" on="1"/>
        <pt x="208" y="398" on="0"/>
        <pt x="250" y="384" on="0"/>
        <pt x="290" y="368" on="0"/>
        <pt x="327" y="354" on="0"/>
        <pt x="345" y="354" on="1"/>
        <pt x="371" y="354" on="0"/>
        <pt x="404" y="376" on="0"/>
        <pt x="420" y="401" on="1"/>
      </contour>
    </TTGlyph>
    <TTGlyph name="asterisk" xMin="39" yMin="313" xMax="392" yMax="663">
      <contour>
        <pt x="311" y="321" on="1"/>
        <pt x="299" y="313" on="0"/>
        <pt x="290" y="326" on="1"/>
        <pt x="216" y="446" on="1"/>
        <pt x="134" y="314" on="1"/>
        <pt x="80" y="348" on="1"/>
        <pt x="72" y="353" on="0"/>
        <pt x="73" y="363" on="0"/>
        <pt x="80" y="370" on="1"/>
        <pt x="177" y="474" on="1"/>
        <pt x="39" y="512" on="1"/>
        <pt x="59" y="565" on="1"/>
        <pt x="63" y="574" on="0"/>
        <pt x="71" y="578" on="0"/>
        <pt x="82" y="573" on="1"/>
        <pt x="193" y="513" on="1"/>
        <pt x="177" y="663" on="1"/>
        <pt x="241" y="663" on="1"/>
        <pt x="250" y="663" on="0"/>
        <pt x="256" y="657" on="0"/>
        <pt x="255" y="649" on="1"/>
        <pt x="240" y="513" on="1"/>
        <pt x="367" y="578" on="1"/>
        <pt x="388" y="525" on="1"/>
        <pt x="392" y="516" on="0"/>
        <pt x="386" y="508" on="0"/>
        <pt x="377" y="506" on="1"/>
        <pt x="255" y="474" on="1"/>
        <pt x="364" y="356" on="1"/>
      </contour>
    </TTGlyph>
    <TTGlyph name="at" xMin="35" yMin="-99" xMax="718" yMax="584">
      <contour>
        <pt x="683" y="4" on="1"/>
        <pt x="656" y="-17" on="0"/>
        <pt x="588" y="-54" on="0"/>
        <pt x="511" y="-82" on="0"/>
        <pt x="428" y="-99" on="0"/>
        <pt x="386" y="-99" on="1"/>
        <pt x="311" y="-99" on="0"/>
        <pt x="183" y="-48" on="0"/>
        <pt x="89" y="42" on="0"/>
        <pt x="35" y="168" on="0"/>
        <pt x="35" y="243" on="1"/>
        <pt x="35" y="314" on="0"/>
        <pt x="87" y="438" on="0"/>
        <pt x="180" y="531" on="0"/>
        <pt x="310" y="584" on="0"/>
        <pt x="388" y="584" on="1"/>
        <pt x="460" y="584" on="0"/>
        <pt x="582" y="535" on="0"/>
        <pt x="669" y="451" on="0"/>
        <pt x="718" y="340" on="0"/>
        <pt x="718" y="277" on="1"/>
        <pt x="718" y="229" on="0"/>
        <pt x="691" y="155" on="0"/>
        <pt x="645" y="104" on="0"/>
        <pt x="584" y="77" on="0"/>
        <pt x="550" y="77" on="1"/>
        <pt x="521" y="77" on="0"/>
        <pt x="477" y="98" on="0"/>
        <pt x="463" y="114" on="1"/>
        <pt x="438" y="101" on="1"/>
        <pt x="417" y="90" on="0"/>
        <pt x="375" y="78" on="0"/>
        <pt x="352" y="78" on="1"/>
        <pt x="326" y="78" on="0"/>
        <pt x="282" y="95" on="0"/>
        <pt x="249" y="125" on="0"/>
        <pt x="231" y="166" on="0"/>
        <pt x="231" y="189" on="1"/>
        <pt x="231" y="234" on="0"/>
        <pt x="292" y="276" on="0"/>
        <pt x="337" y="276" on="1"/>
        <pt x="347" y="276" on="0"/>
        <pt x="375" y="274" on="0"/>
        <pt x="405" y="272" on="0"/>
        <pt x="434" y="268" on="0"/>
        <pt x="445" y="267" on="1"/>
        <pt x="445" y="285" on="1"/>
        <pt x="445" y="303" on="0"/>
        <pt x="438" y="326" on="0"/>
        <pt x="432" y="333" on="1"/>
        <pt x="424" y="342" on="0"/>
        <pt x="396" y="349" on="0"/>
        <pt x="378" y="349" on="1"/>
        <pt x="361" y="349" on="0"/>
        <pt x="325" y="342" on="0"/>
        <pt x="307" y="337" on="1"/>
        <pt x="273" y="327" on="1"/>
        <pt x="252" y="365" on="1"/>
        <pt x="283" y="386" on="0"/>
        <pt x="352" y="411" on="0"/>
        <pt x="385" y="411" on="1"/>
        <pt x="442" y="411" on="0"/>
        <pt x="514" y="350" on="0"/>
        <pt x="514" y="290" on="1"/>
        <pt x="514" y="184" on="1"/>
        <pt x="514" y="158" on="0"/>
        <pt x="526" y="146" on="1"/>
        <pt x="537" y="135" on="0"/>
        <pt x="558" y="135" on="1"/>
        <pt x="596" y="135" on="0"/>
        <pt x="650" y="201" on="0"/>
        <pt x="650" y="273" on="1"/>
        <pt x="650" y="328" on="0"/>
        <pt x="611" y="417" on="0"/>
        <pt x="540" y="480" on="0"/>
        <pt x="444" y="514" on="0"/>
        <pt x="387" y="514" on="1"/>
        <pt x="330" y="514" on="0"/>
        <pt x="230" y="479" on="0"/>
        <pt x="156" y="410" on="0"/>
        <pt x="114" y="310" on="0"/>
        <pt x="114" y="246" on="1"/>
        <pt x="114" y="181" on="0"/>
        <pt x="156" y="79" on="0"/>
        <pt x="230" y="8" on="0"/>
        <pt x="333" y="-30" on="0"/>
        <pt x="395" y="-30" on="1"/>
        <pt x="438" y="-30" on="0"/>
        <pt x="538" y="-8" on="0"/>
        <pt x="587" y="13" on="1"/>
        <pt x="659" y="45" on="1"/>
      </contour>
      <contour>
        <pt x="332" y="222" on="1"/>
        <pt x="313" y="222" on="0"/>
        <pt x="307" y="213" on="1"/>
        <pt x="300" y="204" on="0"/>
        <pt x="300" y="190" on="1"/>
        <pt x="300" y="165" on="0"/>
        <pt x="337" y="138" on="0"/>
        <pt x="366" y="138" on="1"/>
        <pt x="383" y="138" on="0"/>
        <pt x="422" y="147" on="0"/>
        <pt x="436" y="153" on="1"/>
        <pt x="441" y="155" on="0"/>
        <pt x="445" y="160" on="0"/>
        <pt x="445" y="166" on="1"/>
        <pt x="445" y="215" on="1"/>
        <pt x="445" y="222" on="0"/>
        <pt x="438" y="222" on="1"/>
      </contour>
    </TTGlyph>
    <TTGlyph name="at.cap" xMin="35" yMin="-10" xMax="718" yMax="673">
      <contour>
        <pt x="683" y="93" on="1"/>
        <pt x="656" y="72" on="0"/>
        <pt x="588" y="35" on="0"/>
        <pt x="511" y="7" on="0"/>
        <pt x="428" y="-10" on="0"/>
        <pt x="386" y="-10" on="1"/>
        <pt x="311" y="-10" on="0"/>
        <pt x="183" y="41" on="0"/>
        <pt x="89" y="131" on="0"/>
        <pt x="35" y="257" on="0"/>
        <pt x="35" y="332" on="1"/>
        <pt x="35" y="403" on="0"/>
        <pt x="87" y="527" on="0"/>
        <pt x="180" y="620" on="0"/>
        <pt x="310" y="673" on="0"/>
        <pt x="388" y="673" on="1"/>
        <pt x="460" y="673" on="0"/>
        <pt x="582" y="624" on="0"/>
        <pt x="669" y="540" on="0"/>
        <pt x="718" y="429" on="0"/>
        <pt x="718" y="366" on="1"/>
        <pt x="718" y="318" on="0"/>
        <pt x="691" y="244" on="0"/>
        <pt x="645" y="193" on="0"/>
        <pt x="584" y="166" on="0"/>
        <pt x="550" y="166" on="1"/>
        <pt x="521" y="166" on="0"/>
        <pt x="477" y="187" on="0"/>
        <pt x="463" y="203" on="1"/>
        <pt x="438" y="190" on="1"/>
        <pt x="417" y="179" on="0"/>
        <pt x="375" y="167" on="0"/>
        <pt x="352" y="167" on="1"/>
        <pt x="326" y="167" on="0"/>
        <pt x="282" y="184" on="0"/>
        <pt x="249" y="214" on="0"/>
        <pt x="231" y="255" on="0"/>
        <pt x="231" y="278" on="1"/>
        <pt x="231" y="323" on="0"/>
        <pt x="292" y="365" on="0"/>
        <pt x="337" y="365" on="1"/>
        <pt x="347" y="365" on="0"/>
        <pt x="375" y="363" on="0"/>
        <pt x="405" y="361" on="0"/>
        <pt x="434" y="357" on="0"/>
        <pt x="445" y="356" on="1"/>
        <pt x="445" y="374" on="1"/>
        <pt x="445" y="392" on="0"/>
        <pt x="438" y="415" on="0"/>
        <pt x="432" y="422" on="1"/>
        <pt x="424" y="431" on="0"/>
        <pt x="396" y="438" on="0"/>
        <pt x="378" y="438" on="1"/>
        <pt x="361" y="438" on="0"/>
        <pt x="325" y="431" on="0"/>
        <pt x="307" y="426" on="1"/>
        <pt x="273" y="416" on="1"/>
        <pt x="252" y="454" on="1"/>
        <pt x="283" y="475" on="0"/>
        <pt x="352" y="500" on="0"/>
        <pt x="385" y="500" on="1"/>
        <pt x="442" y="500" on="0"/>
        <pt x="514" y="439" on="0"/>
        <pt x="514" y="379" on="1"/>
        <pt x="514" y="273" on="1"/>
        <pt x="514" y="247" on="0"/>
        <pt x="526" y="235" on="1"/>
        <pt x="537" y="224" on="0"/>
        <pt x="558" y="224" on="1"/>
        <pt x="596" y="224" on="0"/>
        <pt x="650" y="290" on="0"/>
        <pt x="650" y="362" on="1"/>
        <pt x="650" y="417" on="0"/>
        <pt x="611" y="506" on="0"/>
        <pt x="540" y="569" on="0"/>
        <pt x="444" y="603" on="0"/>
        <pt x="387" y="603" on="1"/>
        <pt x="330" y="603" on="0"/>
        <pt x="230" y="568" on="0"/>
        <pt x="156" y="499" on="0"/>
        <pt x="114" y="399" on="0"/>
        <pt x="114" y="335" on="1"/>
        <pt x="114" y="270" on="0"/>
        <pt x="156" y="168" on="0"/>
        <pt x="230" y="97" on="0"/>
        <pt x="333" y="59" on="0"/>
        <pt x="395" y="59" on="1"/>
        <pt x="438" y="59" on="0"/>
        <pt x="538" y="81" on="0"/>
        <pt x="587" y="102" on="1"/>
        <pt x="659" y="134" on="1"/>
      </contour>
      <contour>
        <pt x="332" y="311" on="1"/>
        <pt x="313" y="311" on="0"/>
        <pt x="307" y="302" on="1"/>
        <pt x="300" y="293" on="0"/>
        <pt x="300" y="279" on="1"/>
        <pt x="300" y="254" on="0"/>
        <pt x="337" y="227" on="0"/>
        <pt x="366" y="227" on="1"/>
        <pt x="383" y="227" on="0"/>
        <pt x="422" y="236" on="0"/>
        <pt x="436" y="242" on="1"/>
        <pt x="441" y="244" on="0"/>
        <pt x="445" y="249" on="0"/>
        <pt x="445" y="255" on="1"/>
        <pt x="445" y="304" on="1"/>
        <pt x="445" y="311" on="0"/>
        <pt x="438" y="311" on="1"/>
      </contour>
    </TTGlyph>
    <TTGlyph name="atilde" xMin="33" yMin="-8" xMax="524" yMax="679">
      <component glyphName="a" x="0" y="0" flags="0x204"/>
      <component glyphName="tilde" x="62" y="0" flags="0x4"/>
    </TTGlyph>
    <TTGlyph name="b" xMin="67" yMin="-8" xMax="529" yMax="709">
      <contour>
        <pt x="155" y="127" on="1"/>
        <pt x="155" y="118" on="0"/>
        <pt x="161" y="111" on="0"/>
        <pt x="166" y="108" on="1"/>
        <pt x="192" y="94" on="0"/>
        <pt x="263" y="73" on="0"/>
        <pt x="297" y="73" on="1"/>
        <pt x="327" y="73" on="0"/>
        <pt x="378" y="89" on="0"/>
        <pt x="416" y="129" on="0"/>
        <pt x="438" y="194" on="0"/>
        <pt x="438" y="244" on="1"/>
        <pt x="438" y="292" on="0"/>
        <pt x="417" y="358" on="0"/>
        <pt x="379" y="397" on="0"/>
        <pt x="329" y="414" on="0"/>
        <pt x="299" y="414" on="1"/>
        <pt x="265" y="414" on="0"/>
        <pt x="192" y="393" on="0"/>
        <pt x="166" y="379" on="1"/>
        <pt x="161" y="376" on="0"/>
        <pt x="155" y="369" on="0"/>
        <pt x="155" y="360" on="1"/>
      </contour>
      <contour>
        <pt x="131" y="0" on="1"/>
        <pt x="67" y="0" on="1"/>
        <pt x="67" y="709" on="1"/>
        <pt x="155" y="709" on="1"/>
        <pt x="155" y="442" on="1"/>
        <pt x="181" y="456" on="1"/>
        <pt x="217" y="476" on="0"/>
        <pt x="283" y="496" on="0"/>
        <pt x="315" y="496" on="1"/>
        <pt x="360" y="496" on="0"/>
        <pt x="439" y="460" on="0"/>
        <pt x="496" y="394" on="0"/>
        <pt x="529" y="301" on="0"/>
        <pt x="529" y="244" on="1"/>
        <pt x="529" y="187" on="0"/>
        <pt x="498" y="94" on="0"/>
        <pt x="441" y="28" on="0"/>
        <pt x="362" y="-8" on="0"/>
        <pt x="313" y="-8" on="1"/>
        <pt x="281" y="-8" on="0"/>
        <pt x="218" y="10" on="0"/>
        <pt x="183" y="29" on="1"/>
        <pt x="149" y="47" on="1"/>
      </contour>
    </TTGlyph>
    <TTGlyph name="backslash" xMin="11" yMin="0" xMax="437" yMax="663">
      <contour>
        <pt x="346" y="0" on="1"/>
        <pt x="11" y="663" on="1"/>
        <pt x="102" y="663" on="1"/>
        <pt x="437" y="0" on="1"/>
      </contour>
    </TTGlyph>
    <TTGlyph name="bar" xMin="81" yMin="-229" xMax="162" yMax="709">
      <contour>
        <pt x="81" y="709" on="1"/>
        <pt x="162" y="709" on="1"/>
        <pt x="162" y="-229" on="1"/>
        <pt x="81" y="-229" on="1"/>
      </contour>
    </TTGlyph>
    <TTGlyph name="braceleft" xMin="42" yMin="-238" xMax="336" yMax="673">
      <contour>
        <pt x="42" y="246" on="1"/>
        <pt x="72" y="252" on="0"/>
        <pt x="112" y="268" on="0"/>
        <pt x="137" y="291" on="0"/>
        <pt x="147" y="323" on="0"/>
        <pt x="147" y="345" on="1"/>
        <pt x="147" y="368" on="0"/>
        <pt x="138" y="426" on="0"/>
        <pt x="128" y="485" on="0"/>
        <pt x="119" y="541" on="0"/>
        <pt x="119" y="561" on="1"/>
        <pt x="119" y="615" on="0"/>
        <pt x="187" y="673" on="0"/>
        <pt x="243" y="673" on="1"/>
        <pt x="264" y="673" on="0"/>
        <pt x="316" y="664" on="0"/>
        <pt x="336" y="659" on="1"/>
        <pt x="336" y="611" on="1"/>
        <pt x="237" y="596" on="1"/>
        <pt x="218" y="593" on="0"/>
        <pt x="204" y="578" on="0"/>
        <pt x="204" y="561" on="1"/>
        <pt x="204" y="545" on="0"/>
        <pt x="213" y="490" on="0"/>
        <pt x="223" y="428" on="0"/>
        <pt x="232" y="367" on="0"/>
        <pt x="232" y="344" on="1"/>
        <pt x="232" y="322" on="0"/>
        <pt x="222" y="286" on="0"/>
        <pt x="198" y="255" on="0"/>
        <pt x="158" y="229" on="0"/>
        <pt x="128" y="217" on="1"/>
        <pt x="158" y="205" on="0"/>
        <pt x="198" y="179" on="0"/>
        <pt x="222" y="149" on="0"/>
        <pt x="232" y="113" on="0"/>
        <pt x="232" y="91" on="1"/>
        <pt x="232" y="68" on="0"/>
        <pt x="223" y="7" on="0"/>
        <pt x="213" y="-55" on="0"/>
        <pt x="204" y="-110" on="0"/>
        <pt x="204" y="-126" on="1"/>
        <pt x="204" y="-143" on="0"/>
        <pt x="218" y="-158" on="0"/>
        <pt x="237" y="-161" on="1"/>
        <pt x="336" y="-176" on="1"/>
        <pt x="336" y="-224" on="1"/>
        <pt x="316" y="-229" on="0"/>
        <pt x="264" y="-238" on="0"/>
        <pt x="243" y="-238" on="1"/>
        <pt x="187" y="-238" on="0"/>
        <pt x="119" y="-180" on="0"/>
        <pt x="119" y="-126" on="1"/>
        <pt x="119" y="-106" on="0"/>
        <pt x="128" y="-50" on="0"/>
        <pt x="138" y="9" on="0"/>
        <pt x="147" y="67" on="0"/>
        <pt x="147" y="90" on="1"/>
        <pt x="147" y="133" on="0"/>
        <pt x="102" y="178" on="0"/>
        <pt x="42" y="189" on="1"/>
        <pt x="42" y="246" on="1"/>
      </contour>
    </TTGlyph>
    <TTGlyph name="braceleft.cap" xMin="42" yMin="-124" xMax="336" yMax="787">
      <component glyphName="braceleft" x="0" y="114" flags="0x204"/>
    </TTGlyph>
    <TTGlyph name="braceright" xMin="2" yMin="-238" xMax="296" yMax="673">
      <contour>
        <pt x="296" y="189" on="1"/>
        <pt x="236" y="178" on="0"/>
        <pt x="191" y="133" on="0"/>
        <pt x="191" y="90" on="1"/>
        <pt x="191" y="67" on="0"/>
        <pt x="200" y="9" on="0"/>
        <pt x="210" y="-50" on="0"/>
        <pt x="219" y="-106" on="0"/>
        <pt x="219" y="-126" on="1"/>
        <pt x="219" y="-180" on="0"/>
        <pt x="151" y="-238" on="0"/>
        <pt x="95" y="-238" on="1"/>
        <pt x="74" y="-238" on="0"/>
        <pt x="22" y="-229" on="0"/>
        <pt x="2" y="-224" on="1"/>
        <pt x="2" y="-176" on="1"/>
        <pt x="101" y="-161" on="1"/>
        <pt x="120" y="-158" on="0"/>
        <pt x="134" y="-143" on="0"/>
        <pt x="134" y="-126" on="1"/>
        <pt x="134" y="-110" on="0"/>
        <pt x="125" y="-55" on="0"/>
        <pt x="115" y="7" on="0"/>
        <pt x="106" y="68" on="0"/>
        <pt x="106" y="91" on="1"/>
        <pt x="106" y="113" on="0"/>
        <pt x="116" y="149" on="0"/>
        <pt x="140" y="180" on="0"/>
        <pt x="180" y="206" on="0"/>
        <pt x="210" y="218" on="1"/>
        <pt x="180" y="230" on="0"/>
        <pt x="140" y="256" on="0"/>
        <pt x="116" y="286" on="0"/>
        <pt x="106" y="322" on="0"/>
        <pt x="106" y="344" on="1"/>
        <pt x="106" y="367" on="0"/>
        <pt x="115" y="428" on="0"/>
        <pt x="125" y="490" on="0"/>
        <pt x="134" y="545" on="0"/>
        <pt x="134" y="561" on="1"/>
        <pt x="134" y="578" on="0"/>
        <pt x="120" y="593" on="0"/>
        <pt x="101" y="596" on="1"/>
        <pt x="2" y="611" on="1"/>
        <pt x="2" y="659" on="1"/>
        <pt x="22" y="664" on="0"/>
        <pt x="74" y="673" on="0"/>
        <pt x="95" y="673" on="1"/>
        <pt x="151" y="673" on="0"/>
        <pt x="219" y="615" on="0"/>
        <pt x="219" y="561" on="1"/>
        <pt x="219" y="541" on="0"/>
        <pt x="210" y="485" on="0"/>
        <pt x="200" y="426" on="0"/>
        <pt x="191" y="368" on="0"/>
        <pt x="191" y="345" on="1"/>
        <pt x="191" y="323" on="0"/>
        <pt x="201" y="291" on="0"/>
        <pt x="226" y="268" on="0"/>
        <pt x="266" y="252" on="0"/>
        <pt x="296" y="246" on="1"/>
      </contour>
    </TTGlyph>
    <TTGlyph name="braceright.cap" xMin="2" yMin="-124" xMax="296" yMax="787">
      <component glyphName="braceright" x="0" y="114" flags="0x204"/>
    </TTGlyph>
    <TTGlyph name="bracketleft" xMin="78" yMin="-229" xMax="297" yMax="663">
      <contour>
        <pt x="78" y="663" on="1"/>
        <pt x="297" y="663" on="1"/>
        <pt x="297" y="585" on="1"/>
        <pt x="164" y="585" on="1"/>
        <pt x="164" y="-151" on="1"/>
        <pt x="297" y="-151" on="1"/>
        <pt x="297" y="-229" on="1"/>
        <pt x="78" y="-229" on="1"/>
      </contour>
    </TTGlyph>
    <TTGlyph name="bracketleft.cap" xMin="78" yMin="-115" xMax="297" yMax="777">
      <component glyphName="bracketleft" x="0" y="114" flags="0x204"/>
    </TTGlyph>
    <TTGlyph name="bracketright" xMin="12" yMin="-229" xMax="231" yMax="663">
      <contour>
        <pt x="231" y="-229" on="1"/>
        <pt x="12" y="-229" on="1"/>
        <pt x="12" y="-151" on="1"/>
        <pt x="145" y="-151" on="1"/>
        <pt x="145" y="585" on="1"/>
        <pt x="12" y="585" on="1"/>
        <pt x="12" y="663" on="1"/>
        <pt x="231" y="663" on="1"/>
      </contour>
    </TTGlyph>
    <TTGlyph name="bracketright.cap" xMin="12" yMin="-115" xMax="231" yMax="777">
      <component glyphName="bracketright" x="0" y="114" flags="0x4"/>
    </TTGlyph>
    <TTGlyph name="breve" xMin="43" yMin="553" xMax="354" yMax="700">
      <contour>
        <pt x="199" y="553" on="1"/>
        <pt x="137" y="553" on="0"/>
        <pt x="54" y="628" on="0"/>
        <pt x="43" y="691" on="1"/>
        <pt x="97" y="700" on="1"/>
        <pt x="111" y="664" on="0"/>
        <pt x="162" y="622" on="0"/>
        <pt x="199" y="622" on="1"/>
        <pt x="236" y="622" on="0"/>
        <pt x="286" y="664" on="0"/>
        <pt x="300" y="700" on="1"/>
        <pt x="354" y="691" on="1"/>
        <pt x="343" y="628" on="0"/>
        <pt x="261" y="553" on="0"/>
      </contour>
    </TTGlyph>
    <TTGlyph name="breve.cap" xMin="43" yMin="733" xMax="354" yMax="880">
      <contour>
        <pt x="199" y="733" on="1"/>
        <pt x="137" y="733" on="0"/>
        <pt x="54" y="808" on="0"/>
        <pt x="43" y="871" on="1"/>
        <pt x="97" y="880" on="1"/>
        <pt x="111" y="844" on="0"/>
        <pt x="162" y="802" on="0"/>
        <pt x="199" y="802" on="1"/>
        <pt x="236" y="802" on="0"/>
        <pt x="286" y="844" on="0"/>
        <pt x="300" y="880" on="1"/>
        <pt x="354" y="871" on="1"/>
        <pt x="343" y="808" on="0"/>
        <pt x="261" y="733" on="0"/>
      </contour>
    </TTGlyph>
    <TTGlyph name="brokenbar" xMin="81" yMin="-229" xMax="162" yMax="709">
      <contour>
        <pt x="81" y="709" on="1"/>
        <pt x="162" y="709" on="1"/>
        <pt x="162" y="291" on="1"/>
        <pt x="81" y="291" on="1"/>
      </contour>
      <contour>
        <pt x="81" y="189" on="1"/>
        <pt x="162" y="189" on="1"/>
        <pt x="162" y="-229" on="1"/>
        <pt x="81" y="-229" on="1"/>
      </contour>
    </TTGlyph>
    <TTGlyph name="bullet" xMin="72" yMin="184" xMax="273" yMax="378">
      <contour>
        <pt x="273" y="184" on="1"/>
        <pt x="72" y="184" on="1"/>
        <pt x="72" y="378" on="1"/>
        <pt x="247" y="378" on="1"/>
        <pt x="263" y="378" on="0"/>
        <pt x="273" y="369" on="0"/>
        <pt x="273" y="355" on="1"/>
      </contour>
    </TTGlyph>
    <TTGlyph name="bullet.cap" xMin="72" yMin="234" xMax="273" yMax="428">
      <component glyphName="bullet" x="0" y="50" flags="0x204"/>
    </TTGlyph>
    <TTGlyph name="c" xMin="36" yMin="-8" xMax="486" yMax="496">
      <contour>
        <pt x="486" y="83" on="1"/>
        <pt x="441" y="43" on="0"/>
        <pt x="329" y="-8" on="0"/>
        <pt x="273" y="-8" on="1"/>
        <pt x="219" y="-8" on="0"/>
        <pt x="131" y="30" on="0"/>
        <pt x="70" y="98" on="0"/>
        <pt x="36" y="191" on="0"/>
        <pt x="36" y="246" on="1"/>
        <pt x="36" y="300" on="0"/>
        <pt x="72" y="392" on="0"/>
        <pt x="135" y="458" on="0"/>
        <pt x="222" y="496" on="0"/>
        <pt x="272" y="496" on="1"/>
        <pt x="308" y="496" on="0"/>
        <pt x="374" y="475" on="0"/>
        <pt x="428" y="436" on="0"/>
        <pt x="467" y="383" on="0"/>
        <pt x="477" y="351" on="1"/>
        <pt x="421" y="322" on="1"/>
        <pt x="386" y="355" on="1"/>
        <pt x="351" y="388" on="0"/>
        <pt x="299" y="418" on="0"/>
        <pt x="264" y="418" on="1"/>
        <pt x="204" y="418" on="0"/>
        <pt x="127" y="329" on="0"/>
        <pt x="127" y="248" on="1"/>
        <pt x="127" y="160" on="0"/>
        <pt x="208" y="72" on="0"/>
        <pt x="283" y="72" on="1"/>
        <pt x="333" y="72" on="0"/>
        <pt x="401" y="103" on="1"/>
        <pt x="456" y="128" on="1"/>
      </contour>
    </TTGlyph>
    <TTGlyph name="cacute" xMin="36" yMin="-8" xMax="486" yMax="723">
      <component glyphName="c" x="0" y="0" flags="0x204"/>
      <component glyphName="acute" x="78" y="0" flags="0x4"/>
    </TTGlyph>
    <TTGlyph name="caron" xMin="34" yMin="547" xMax="363" yMax="720">
      <contour>
        <pt x="363" y="685" on="1"/>
        <pt x="237" y="558" on="1"/>
        <pt x="229" y="550" on="0"/>
        <pt x="221" y="547" on="0"/>
        <pt x="211" y="547" on="1"/>
        <pt x="186" y="547" on="1"/>
        <pt x="176" y="547" on="0"/>
        <pt x="168" y="550" on="0"/>
        <pt x="160" y="558" on="1"/>
        <pt x="34" y="685" on="1"/>
        <pt x="70" y="720" on="1"/>
        <pt x="199" y="618" on="1"/>
        <pt x="200" y="618" on="1"/>
        <pt x="328" y="720" on="1"/>
      </contour>
    </TTGlyph>
    <TTGlyph name="caron.cap" xMin="34" yMin="727" xMax="363" yMax="900">
      <contour>
        <pt x="363" y="865" on="1"/>
        <pt x="237" y="738" on="1"/>
        <pt x="229" y="730" on="0"/>
        <pt x="221" y="727" on="0"/>
        <pt x="211" y="727" on="1"/>
        <pt x="186" y="727" on="1"/>
        <pt x="176" y="727" on="0"/>
        <pt x="168" y="730" on="0"/>
        <pt x="160" y="738" on="1"/>
        <pt x="34" y="865" on="1"/>
        <pt x="70" y="900" on="1"/>
        <pt x="199" y="798" on="1"/>
        <pt x="200" y="798" on="1"/>
        <pt x="328" y="900" on="1"/>
      </contour>
    </TTGlyph>
    <TTGlyph name="ccaron" xMin="36" yMin="-8" xMax="486" yMax="720">
      <component glyphName="c" x="0" y="0" flags="0x204"/>
      <component glyphName="caron" x="73" y="0" flags="0x4"/>
    </TTGlyph>
    <TTGlyph name="ccedilla" xMin="36" yMin="-228" xMax="486" yMax="496">
      <contour>
        <pt x="486" y="83" on="1"/>
        <pt x="441" y="44" on="0"/>
        <pt x="333" y="-6" on="0"/>
        <pt x="278" y="-8" on="1"/>
        <pt x="269" y="-22" on="0"/>
        <pt x="269" y="-32" on="1"/>
        <pt x="269" y="-43" on="0"/>
        <pt x="304" y="-55" on="0"/>
        <pt x="346" y="-72" on="0"/>
        <pt x="381" y="-102" on="0"/>
        <pt x="381" y="-132" on="1"/>
        <pt x="381" y="-174" on="0"/>
        <pt x="296" y="-228" on="0"/>
        <pt x="208" y="-228" on="1"/>
        <pt x="198" y="-178" on="1"/>
        <pt x="260" y="-166" on="1"/>
        <pt x="283" y="-161" on="0"/>
        <pt x="302" y="-148" on="0"/>
        <pt x="302" y="-139" on="1"/>
        <pt x="302" y="-129" on="0"/>
        <pt x="270" y="-116" on="0"/>
        <pt x="231" y="-101" on="0"/>
        <pt x="199" y="-79" on="0"/>
        <pt x="199" y="-60" on="1"/>
        <pt x="199" y="-47" on="0"/>
        <pt x="214" y="-18" on="0"/>
        <pt x="227" y="-4" on="1"/>
        <pt x="183" y="3" on="0"/>
        <pt x="112" y="47" on="0"/>
        <pt x="62" y="113" on="0"/>
        <pt x="36" y="197" on="0"/>
        <pt x="36" y="246" on="1"/>
        <pt x="36" y="300" on="0"/>
        <pt x="72" y="392" on="0"/>
        <pt x="136" y="458" on="0"/>
        <pt x="222" y="496" on="0"/>
        <pt x="272" y="496" on="1"/>
        <pt x="308" y="496" on="0"/>
        <pt x="374" y="475" on="0"/>
        <pt x="428" y="436" on="0"/>
        <pt x="467" y="383" on="0"/>
        <pt x="477" y="351" on="1"/>
        <pt x="421" y="322" on="1"/>
        <pt x="386" y="355" on="1"/>
        <pt x="351" y="388" on="0"/>
        <pt x="299" y="418" on="0"/>
        <pt x="264" y="418" on="1"/>
        <pt x="205" y="418" on="0"/>
        <pt x="127" y="329" on="0"/>
        <pt x="127" y="248" on="1"/>
        <pt x="127" y="160" on="0"/>
        <pt x="208" y="72" on="0"/>
        <pt x="283" y="72" on="1"/>
        <pt x="333" y="72" on="0"/>
        <pt x="401" y="103" on="1"/>
        <pt x="456" y="128" on="1"/>
      </contour>
    </TTGlyph>
    <TTGlyph name="ccircumflex" xMin="36" yMin="-8" xMax="486" yMax="714">
      <component glyphName="c" x="0" y="0" flags="0x204"/>
      <component glyphName="circumflex" x="72" y="0" flags="0x4"/>
    </TTGlyph>
    <TTGlyph name="cdotaccent" xMin="36" yMin="-8" xMax="486" yMax="660">
      <component glyphName="c" x="0" y="0" flags="0x204"/>
      <component glyphName="dotaccent" x="71" y="0" flags="0x4"/>
    </TTGlyph>
    <TTGlyph name="cedilla" xMin="107" yMin="-228" xMax="290" yMax="17">
      <contour>
        <pt x="200" y="9" on="1"/>
        <pt x="190" y="-3" on="0"/>
        <pt x="178" y="-24" on="0"/>
        <pt x="178" y="-32" on="1"/>
        <pt x="178" y="-43" on="0"/>
        <pt x="213" y="-55" on="0"/>
        <pt x="255" y="-72" on="0"/>
        <pt x="290" y="-102" on="0"/>
        <pt x="290" y="-132" on="1"/>
        <pt x="290" y="-174" on="0"/>
        <pt x="205" y="-228" on="0"/>
        <pt x="117" y="-228" on="1"/>
        <pt x="107" y="-178" on="1"/>
        <pt x="169" y="-166" on="1"/>
        <pt x="192" y="-161" on="0"/>
        <pt x="211" y="-148" on="0"/>
        <pt x="211" y="-139" on="1"/>
        <pt x="211" y="-129" on="0"/>
        <pt x="179" y="-116" on="0"/>
        <pt x="140" y="-101" on="0"/>
        <pt x="108" y="-79" on="0"/>
        <pt x="108" y="-60" on="1"/>
        <pt x="108" y="-43" on="0"/>
        <pt x="136" y="-2" on="0"/>
        <pt x="156" y="17" on="1"/>
      </contour>
    </TTGlyph>
    <TTGlyph name="cent" xMin="80" yMin="-116" xMax="530" yMax="602">
      <contour>
        <pt x="293" y="-6" on="1"/>
        <pt x="244" y="-2" on="0"/>
        <pt x="165" y="39" on="0"/>
        <pt x="110" y="106" on="0"/>
        <pt x="80" y="194" on="0"/>
        <pt x="80" y="246" on="1"/>
        <pt x="80" y="297" on="0"/>
        <pt x="112" y="385" on="0"/>
        <pt x="169" y="451" on="0"/>
        <pt x="247" y="491" on="0"/>
        <pt x="293" y="495" on="1"/>
        <pt x="301" y="602" on="1"/>
        <pt x="347" y="602" on="1"/>
        <pt x="347" y="493" on="1"/>
        <pt x="408" y="484" on="0"/>
        <pt x="501" y="408" on="0"/>
        <pt x="518" y="351" on="1"/>
        <pt x="462" y="322" on="1"/>
        <pt x="427" y="355" on="1"/>
        <pt x="404" y="377" on="0"/>
        <pt x="367" y="404" on="0"/>
        <pt x="347" y="410" on="1"/>
        <pt x="347" y="74" on="1"/>
        <pt x="389" y="78" on="0"/>
        <pt x="445" y="104" on="1"/>
        <pt x="500" y="129" on="1"/>
        <pt x="530" y="83" on="1"/>
        <pt x="491" y="48" on="0"/>
        <pt x="396" y="0" on="0"/>
        <pt x="347" y="-6" on="1"/>
        <pt x="339" y="-116" on="1"/>
        <pt x="293" y="-116" on="1"/>
      </contour>
      <contour>
        <pt x="171" y="248" on="1"/>
        <pt x="171" y="170" on="0"/>
        <pt x="234" y="85" on="0"/>
        <pt x="293" y="75" on="1"/>
        <pt x="293" y="416" on="1"/>
        <pt x="239" y="411" on="0"/>
        <pt x="171" y="324" on="0"/>
      </contour>
    </TTGlyph>
    <TTGlyph name="cent.lprop" xMin="46" yMin="-114" xMax="496" yMax="602">
      <contour>
        <pt x="259" y="-6" on="1"/>
        <pt x="210" y="-2" on="0"/>
        <pt x="131" y="39" on="0"/>
        <pt x="76" y="106" on="0"/>
        <pt x="46" y="194" on="0"/>
        <pt x="46" y="246" on="1"/>
        <pt x="46" y="297" on="0"/>
        <pt x="78" y="385" on="0"/>
        <pt x="135" y="451" on="0"/>
        <pt x="213" y="491" on="0"/>
        <pt x="259" y="495" on="1"/>
        <pt x="267" y="602" on="1"/>
        <pt x="313" y="602" on="1"/>
        <pt x="313" y="493" on="1"/>
        <pt x="374" y="484" on="0"/>
        <pt x="467" y="408" on="0"/>
        <pt x="484" y="351" on="1"/>
        <pt x="428" y="322" on="1"/>
        <pt x="393" y="355" on="1"/>
        <pt x="370" y="377" on="0"/>
        <pt x="333" y="404" on="0"/>
        <pt x="313" y="410" on="1"/>
        <pt x="313" y="74" on="1"/>
        <pt x="355" y="78" on="0"/>
        <pt x="411" y="104" on="1"/>
        <pt x="466" y="129" on="1"/>
        <pt x="496" y="83" on="1"/>
        <pt x="457" y="48" on="0"/>
        <pt x="362" y="0" on="0"/>
        <pt x="313" y="-6" on="1"/>
        <pt x="305" y="-114" on="1"/>
        <pt x="259" y="-114" on="1"/>
      </contour>
      <contour>
        <pt x="137" y="248" on="1"/>
        <pt x="137" y="170" on="0"/>
        <pt x="200" y="85" on="0"/>
        <pt x="259" y="75" on="1"/>
        <pt x="259" y="416" on="1"/>
        <pt x="205" y="411" on="0"/>
        <pt x="137" y="324" on="0"/>
      </contour>
    </TTGlyph>
    <TTGlyph name="cent.oprop" xMin="50" yMin="-116" xMax="456" yMax="540">
      <component glyphName="cent.otab" x="-52" y="0" flags="0x4"/>
    </TTGlyph>
    <TTGlyph name="cent.otab" xMin="102" yMin="-116" xMax="508" yMax="540">
      <contour>
        <pt x="508" y="71" on="1"/>
        <pt x="473" y="39" on="0"/>
        <pt x="388" y="-2" on="0"/>
        <pt x="344" y="-8" on="1"/>
        <pt x="337" y="-116" on="1"/>
        <pt x="297" y="-116" on="1"/>
        <pt x="297" y="-8" on="1"/>
        <pt x="253" y="-4" on="0"/>
        <pt x="181" y="32" on="0"/>
        <pt x="130" y="91" on="0"/>
        <pt x="102" y="170" on="0"/>
        <pt x="102" y="216" on="1"/>
        <pt x="102" y="262" on="0"/>
        <pt x="132" y="340" on="0"/>
        <pt x="184" y="399" on="0"/>
        <pt x="256" y="435" on="0"/>
        <pt x="297" y="438" on="1"/>
        <pt x="304" y="540" on="1"/>
        <pt x="344" y="540" on="1"/>
        <pt x="344" y="437" on="1"/>
        <pt x="371" y="433" on="0"/>
        <pt x="420" y="410" on="0"/>
        <pt x="461" y="377" on="0"/>
        <pt x="492" y="335" on="0"/>
        <pt x="500" y="311" on="1"/>
        <pt x="448" y="281" on="1"/>
        <pt x="420" y="309" on="1"/>
        <pt x="396" y="333" on="0"/>
        <pt x="362" y="356" on="0"/>
        <pt x="344" y="362" on="1"/>
        <pt x="344" y="66" on="1"/>
        <pt x="364" y="68" on="0"/>
        <pt x="408" y="83" on="0"/>
        <pt x="432" y="94" on="1"/>
        <pt x="481" y="117" on="1"/>
      </contour>
      <contour>
        <pt x="189" y="218" on="1"/>
        <pt x="189" y="152" on="0"/>
        <pt x="244" y="76" on="0"/>
        <pt x="297" y="68" on="1"/>
        <pt x="297" y="365" on="1"/>
        <pt x="247" y="360" on="0"/>
        <pt x="189" y="284" on="0"/>
      </contour>
    </TTGlyph>
    <TTGlyph name="circumflex" xMin="34" yMin="541" xMax="363" yMax="714">
      <contour>
        <pt x="328" y="541" on="1"/>
        <pt x="200" y="643" on="1"/>
        <pt x="199" y="643" on="1"/>
        <pt x="70" y="541" on="1"/>
        <pt x="34" y="576" on="1"/>
        <pt x="160" y="703" on="1"/>
        <pt x="168" y="711" on="0"/>
        <pt x="176" y="714" on="0"/>
        <pt x="186" y="714" on="1"/>
        <pt x="211" y="714" on="1"/>
        <pt x="221" y="714" on="0"/>
        <pt x="229" y="711" on="0"/>
        <pt x="237" y="703" on="1"/>
        <pt x="363" y="576" on="1"/>
      </contour>
    </TTGlyph>
    <TTGlyph name="circumflex.cap" xMin="34" yMin="721" xMax="363" yMax="894">
      <contour>
        <pt x="328" y="721" on="1"/>
        <pt x="200" y="823" on="1"/>
        <pt x="199" y="823" on="1"/>
        <pt x="70" y="721" on="1"/>
        <pt x="34" y="756" on="1"/>
        <pt x="160" y="883" on="1"/>
        <pt x="168" y="891" on="0"/>
        <pt x="176" y="894" on="0"/>
        <pt x="186" y="894" on="1"/>
        <pt x="211" y="894" on="1"/>
        <pt x="221" y="894" on="0"/>
        <pt x="229" y="891" on="0"/>
        <pt x="237" y="883" on="1"/>
        <pt x="363" y="756" on="1"/>
      </contour>
    </TTGlyph>
    <TTGlyph name="colon" xMin="59" yMin="0" xMax="159" yMax="425">
      <contour>
        <pt x="59" y="102" on="1"/>
        <pt x="139" y="102" on="1"/>
        <pt x="151" y="102" on="0"/>
        <pt x="159" y="95" on="0"/>
        <pt x="159" y="85" on="1"/>
        <pt x="159" y="0" on="1"/>
        <pt x="59" y="0" on="1"/>
      </contour>
      <contour>
        <pt x="59" y="425" on="1"/>
        <pt x="139" y="425" on="1"/>
        <pt x="151" y="425" on="0"/>
        <pt x="159" y="418" on="0"/>
        <pt x="159" y="408" on="1"/>
        <pt x="159" y="323" on="1"/>
        <pt x="59" y="323" on="1"/>
      </contour>
    </TTGlyph>
    <TTGlyph name="comma" xMin="24" yMin="-149" xMax="158" yMax="102">
      <contour>
        <pt x="158" y="29" on="1"/>
        <pt x="158" y="7" on="0"/>
        <pt x="150" y="-28" on="0"/>
        <pt x="128" y="-67" on="0"/>
        <pt x="88" y="-115" on="0"/>
        <pt x="55" y="-149" on="1"/>
        <pt x="24" y="-125" on="1"/>
        <pt x="85" y="-16" on="1"/>
        <pt x="89" y="-9" on="0"/>
        <pt x="87" y="-4" on="0"/>
        <pt x="82" y="-1" on="1"/>
        <pt x="68" y="8" on="1"/>
        <pt x="60" y="13" on="0"/>
        <pt x="56" y="22" on="0"/>
        <pt x="56" y="30" on="1"/>
        <pt x="56" y="102" on="1"/>
        <pt x="138" y="102" on="1"/>
        <pt x="150" y="102" on="0"/>
        <pt x="158" y="95" on="0"/>
        <pt x="158" y="85" on="1"/>
      </contour>
    </TTGlyph>
    <TTGlyph name="commaaccent" xMin="144" yMin="-269" xMax="253" yMax="-58">
      <contour>
        <pt x="144" y="-260" on="1"/>
        <pt x="171" y="-58" on="1"/>
        <pt x="233" y="-58" on="1"/>
        <pt x="241" y="-58" on="0"/>
        <pt x="249" y="-62" on="0"/>
        <pt x="251" y="-71" on="1"/>
        <pt x="252" y="-76" on="0"/>
        <pt x="253" y="-89" on="0"/>
        <pt x="253" y="-95" on="1"/>
        <pt x="253" y="-103" on="0"/>
        <pt x="250" y="-120" on="0"/>
        <pt x="243" y="-141" on="0"/>
        <pt x="231" y="-170" on="0"/>
        <pt x="222" y="-191" on="1"/>
        <pt x="187" y="-269" on="1"/>
      </contour>
    </TTGlyph>
    <TTGlyph name="copyright" xMin="35" yMin="-10" xMax="713" yMax="673">
      <contour>
        <pt x="507" y="246" on="1"/>
        <pt x="482" y="220" on="0"/>
        <pt x="413" y="185" on="0"/>
        <pt x="376" y="185" on="1"/>
        <pt x="345" y="185" on="0"/>
        <pt x="292" y="207" on="0"/>
        <pt x="254" y="246" on="0"/>
        <pt x="232" y="301" on="0"/>
        <pt x="232" y="334" on="1"/>
        <pt x="232" y="369" on="0"/>
        <pt x="255" y="424" on="0"/>
        <pt x="294" y="463" on="0"/>
        <pt x="347" y="483" on="0"/>
        <pt x="376" y="483" on="1"/>
        <pt x="418" y="483" on="0"/>
        <pt x="484" y="437" on="0"/>
        <pt x="499" y="399" on="1"/>
        <pt x="462" y="373" on="1"/>
        <pt x="434" y="399" on="1"/>
        <pt x="420" y="413" on="0"/>
        <pt x="391" y="426" on="0"/>
        <pt x="372" y="426" on="1"/>
        <pt x="341" y="426" on="0"/>
        <pt x="296" y="382" on="0"/>
        <pt x="296" y="334" on="1"/>
        <pt x="296" y="295" on="0"/>
        <pt x="338" y="243" on="0"/>
        <pt x="382" y="243" on="1"/>
        <pt x="408" y="243" on="0"/>
        <pt x="445" y="262" on="1"/>
        <pt x="484" y="282" on="1"/>
      </contour>
      <contour>
        <pt x="110" y="332" on="1"/>
        <pt x="110" y="272" on="0"/>
        <pt x="148" y="172" on="0"/>
        <pt x="218" y="100" on="0"/>
        <pt x="315" y="60" on="0"/>
        <pt x="374" y="60" on="1"/>
        <pt x="433" y="60" on="0"/>
        <pt x="530" y="100" on="0"/>
        <pt x="600" y="172" on="0"/>
        <pt x="638" y="272" on="0"/>
        <pt x="638" y="332" on="1"/>
        <pt x="638" y="392" on="0"/>
        <pt x="600" y="492" on="0"/>
        <pt x="530" y="564" on="0"/>
        <pt x="433" y="603" on="0"/>
        <pt x="374" y="603" on="1"/>
        <pt x="315" y="603" on="0"/>
        <pt x="218" y="564" on="0"/>
        <pt x="148" y="492" on="0"/>
        <pt x="110" y="392" on="0"/>
      </contour>
      <contour>
        <pt x="713" y="332" on="1"/>
        <pt x="713" y="261" on="0"/>
        <pt x="661" y="137" on="0"/>
        <pt x="569" y="44" on="0"/>
        <pt x="446" y="-10" on="0"/>
        <pt x="374" y="-10" on="1"/>
        <pt x="302" y="-10" on="0"/>
        <pt x="179" y="44" on="0"/>
        <pt x="87" y="137" on="0"/>
        <pt x="35" y="261" on="0"/>
        <pt x="35" y="332" on="1"/>
        <pt x="35" y="402" on="0"/>
        <pt x="87" y="527" on="0"/>
        <pt x="179" y="619" on="0"/>
        <pt x="302" y="673" on="0"/>
        <pt x="374" y="673" on="1"/>
        <pt x="446" y="673" on="0"/>
        <pt x="569" y="619" on="0"/>
        <pt x="661" y="527" on="0"/>
        <pt x="713" y="402" on="0"/>
      </contour>
    </TTGlyph>
    <TTGlyph name="currency" xMin="61" yMin="94" xMax="555" yMax="568">
      <contour>
        <pt x="508" y="331" on="1"/>
        <pt x="508" y="269" on="0"/>
        <pt x="481" y="224" on="1"/>
        <pt x="555" y="150" on="1"/>
        <pt x="499" y="94" on="1"/>
        <pt x="428" y="164" on="1"/>
        <pt x="377" y="125" on="0"/>
        <pt x="308" y="125" on="1"/>
        <pt x="239" y="125" on="0"/>
        <pt x="188" y="164" on="1"/>
        <pt x="117" y="94" on="1"/>
        <pt x="61" y="150" on="1"/>
        <pt x="135" y="224" on="1"/>
        <pt x="108" y="269" on="0"/>
        <pt x="108" y="331" on="1"/>
        <pt x="108" y="393" on="0"/>
        <pt x="135" y="438" on="1"/>
        <pt x="61" y="512" on="1"/>
        <pt x="117" y="568" on="1"/>
        <pt x="188" y="498" on="1"/>
        <pt x="239" y="537" on="0"/>
        <pt x="308" y="537" on="1"/>
        <pt x="377" y="537" on="0"/>
        <pt x="428" y="498" on="1"/>
        <pt x="499" y="568" on="1"/>
        <pt x="555" y="512" on="1"/>
        <pt x="481" y="438" on="1"/>
        <pt x="508" y="393" on="0"/>
      </contour>
      <contour>
        <pt x="427" y="331" on="1"/>
        <pt x="427" y="391" on="0"/>
        <pt x="366" y="463" on="0"/>
        <pt x="308" y="463" on="1"/>
        <pt x="250" y="463" on="0"/>
        <pt x="189" y="391" on="0"/>
        <pt x="189" y="331" on="1"/>
        <pt x="189" y="271" on="0"/>
        <pt x="250" y="199" on="0"/>
        <pt x="308" y="199" on="1"/>
        <pt x="366" y="199" on="0"/>
        <pt x="427" y="271" on="0"/>
      </contour>
    </TTGlyph>
    <TTGlyph name="d" xMin="37" yMin="-8" xMax="501" yMax="709">
      <contour>
        <pt x="413" y="709" on="1"/>
        <pt x="501" y="709" on="1"/>
        <pt x="501" y="0" on="1"/>
        <pt x="437" y="0" on="1"/>
        <pt x="420" y="48" on="1"/>
        <pt x="385" y="29" on="1"/>
        <pt x="348" y="9" on="0"/>
        <pt x="287" y="-8" on="0"/>
        <pt x="254" y="-8" on="1"/>
        <pt x="206" y="-8" on="0"/>
        <pt x="126" y="28" on="0"/>
        <pt x="69" y="94" on="0"/>
        <pt x="37" y="186" on="0"/>
        <pt x="37" y="242" on="1"/>
        <pt x="37" y="303" on="0"/>
        <pt x="75" y="397" on="0"/>
        <pt x="137" y="462" on="0"/>
        <pt x="217" y="496" on="0"/>
        <pt x="258" y="496" on="1"/>
        <pt x="292" y="496" on="0"/>
        <pt x="356" y="476" on="0"/>
        <pt x="388" y="459" on="1"/>
        <pt x="413" y="446" on="1"/>
      </contour>
      <contour>
        <pt x="413" y="361" on="1"/>
        <pt x="413" y="370" on="0"/>
        <pt x="409" y="378" on="0"/>
        <pt x="401" y="382" on="1"/>
        <pt x="372" y="397" on="0"/>
        <pt x="305" y="415" on="0"/>
        <pt x="274" y="415" on="1"/>
        <pt x="205" y="415" on="0"/>
        <pt x="128" y="331" on="0"/>
        <pt x="128" y="243" on="1"/>
        <pt x="128" y="152" on="0"/>
        <pt x="203" y="73" on="0"/>
        <pt x="269" y="73" on="1"/>
        <pt x="302" y="73" on="0"/>
        <pt x="376" y="93" on="0"/>
        <pt x="402" y="107" on="1"/>
        <pt x="409" y="111" on="0"/>
        <pt x="413" y="119" on="0"/>
        <pt x="413" y="127" on="1"/>
      </contour>
    </TTGlyph>
    <TTGlyph name="dagger" xMin="39" yMin="-229" xMax="508" yMax="663">
      <contour>
        <pt x="304" y="352" on="1"/>
        <pt x="309" y="278" on="1"/>
        <pt x="311" y="254" on="0"/>
        <pt x="313" y="207" on="0"/>
        <pt x="313" y="184" on="1"/>
        <pt x="313" y="19" on="1"/>
        <pt x="313" y="-5" on="0"/>
        <pt x="311" y="-50" on="0"/>
        <pt x="309" y="-72" on="1"/>
        <pt x="296" y="-229" on="1"/>
        <pt x="250" y="-229" on="1"/>
        <pt x="237" y="-72" on="1"/>
        <pt x="235" y="-49" on="0"/>
        <pt x="233" y="-3" on="0"/>
        <pt x="233" y="19" on="1"/>
        <pt x="233" y="184" on="1"/>
        <pt x="233" y="207" on="0"/>
        <pt x="235" y="254" on="0"/>
        <pt x="237" y="278" on="1"/>
        <pt x="242" y="352" on="1"/>
        <pt x="158" y="345" on="1"/>
        <pt x="124" y="342" on="0"/>
        <pt x="87" y="340" on="0"/>
        <pt x="71" y="340" on="1"/>
        <pt x="39" y="340" on="1"/>
        <pt x="39" y="416" on="1"/>
        <pt x="71" y="416" on="1"/>
        <pt x="87" y="416" on="0"/>
        <pt x="124" y="414" on="0"/>
        <pt x="158" y="411" on="1"/>
        <pt x="243" y="404" on="1"/>
        <pt x="238" y="474" on="1"/>
        <pt x="236" y="506" on="0"/>
        <pt x="233" y="563" on="0"/>
        <pt x="233" y="584" on="1"/>
        <pt x="233" y="663" on="1"/>
        <pt x="313" y="663" on="1"/>
        <pt x="313" y="583" on="1"/>
        <pt x="313" y="562" on="0"/>
        <pt x="310" y="507" on="0"/>
        <pt x="308" y="473" on="1"/>
        <pt x="304" y="404" on="1"/>
        <pt x="389" y="411" on="1"/>
        <pt x="423" y="414" on="0"/>
        <pt x="460" y="416" on="0"/>
        <pt x="476" y="416" on="1"/>
        <pt x="508" y="416" on="1"/>
        <pt x="508" y="340" on="1"/>
        <pt x="476" y="340" on="1"/>
        <pt x="460" y="340" on="0"/>
        <pt x="423" y="342" on="0"/>
        <pt x="389" y="345" on="1"/>
      </contour>
    </TTGlyph>
    <TTGlyph name="daggerdbl" xMin="39" yMin="-229" xMax="508" yMax="663">
      <contour>
        <pt x="304" y="84" on="1"/>
        <pt x="389" y="91" on="1"/>
        <pt x="423" y="94" on="0"/>
        <pt x="460" y="96" on="0"/>
        <pt x="476" y="96" on="1"/>
        <pt x="508" y="96" on="1"/>
        <pt x="508" y="20" on="1"/>
        <pt x="476" y="20" on="1"/>
        <pt x="460" y="20" on="0"/>
        <pt x="423" y="22" on="0"/>
        <pt x="389" y="25" on="1"/>
        <pt x="304" y="32" on="1"/>
        <pt x="308" y="-37" on="1"/>
        <pt x="310" y="-71" on="0"/>
        <pt x="313" y="-128" on="0"/>
        <pt x="313" y="-149" on="1"/>
        <pt x="313" y="-229" on="1"/>
        <pt x="233" y="-229" on="1"/>
        <pt x="233" y="-150" on="1"/>
        <pt x="233" y="-129" on="0"/>
        <pt x="236" y="-70" on="0"/>
        <pt x="238" y="-38" on="1"/>
        <pt x="243" y="32" on="1"/>
        <pt x="158" y="25" on="1"/>
        <pt x="124" y="22" on="0"/>
        <pt x="87" y="20" on="0"/>
        <pt x="71" y="20" on="1"/>
        <pt x="39" y="20" on="1"/>
        <pt x="39" y="96" on="1"/>
        <pt x="71" y="96" on="1"/>
        <pt x="87" y="96" on="0"/>
        <pt x="124" y="94" on="0"/>
        <pt x="158" y="91" on="1"/>
        <pt x="242" y="84" on="1"/>
        <pt x="237" y="126" on="1"/>
        <pt x="234" y="150" on="0"/>
        <pt x="232" y="194" on="0"/>
        <pt x="232" y="217" on="1"/>
        <pt x="232" y="240" on="0"/>
        <pt x="234" y="284" on="0"/>
        <pt x="237" y="308" on="1"/>
        <pt x="242" y="350" on="1"/>
        <pt x="158" y="343" on="1"/>
        <pt x="124" y="340" on="0"/>
        <pt x="87" y="338" on="0"/>
        <pt x="71" y="338" on="1"/>
        <pt x="39" y="338" on="1"/>
        <pt x="39" y="414" on="1"/>
        <pt x="71" y="414" on="1"/>
        <pt x="87" y="414" on="0"/>
        <pt x="124" y="412" on="0"/>
        <pt x="158" y="409" on="1"/>
        <pt x="243" y="402" on="1"/>
        <pt x="238" y="474" on="1"/>
        <pt x="236" y="506" on="0"/>
        <pt x="233" y="563" on="0"/>
        <pt x="233" y="584" on="1"/>
        <pt x="233" y="663" on="1"/>
        <pt x="313" y="663" on="1"/>
        <pt x="313" y="583" on="1"/>
        <pt x="313" y="562" on="0"/>
        <pt x="310" y="507" on="0"/>
        <pt x="308" y="473" on="1"/>
        <pt x="304" y="402" on="1"/>
        <pt x="389" y="409" on="1"/>
        <pt x="423" y="412" on="0"/>
        <pt x="460" y="414" on="0"/>
        <pt x="476" y="414" on="1"/>
        <pt x="508" y="414" on="1"/>
        <pt x="508" y="338" on="1"/>
        <pt x="476" y="338" on="1"/>
        <pt x="460" y="338" on="0"/>
        <pt x="423" y="340" on="0"/>
        <pt x="389" y="343" on="1"/>
        <pt x="304" y="350" on="1"/>
        <pt x="309" y="308" on="1"/>
        <pt x="312" y="284" on="0"/>
        <pt x="314" y="240" on="0"/>
        <pt x="314" y="217" on="1"/>
        <pt x="314" y="194" on="0"/>
        <pt x="312" y="150" on="0"/>
        <pt x="309" y="126" on="1"/>
      </contour>
    </TTGlyph>
    <TTGlyph name="dcaron" xMin="37" yMin="-8" xMax="662" yMax="709">
      <component glyphName="d" x="0" y="0" flags="0x4"/>
      <component glyphName="commaaccent" x="409" y="767" flags="0x4"/>
    </TTGlyph>
    <TTGlyph name="dcroat" xMin="37" yMin="-8" xMax="579" yMax="709">
      <contour>
        <pt x="413" y="572" on="1"/>
        <pt x="224" y="572" on="1"/>
        <pt x="224" y="632" on="1"/>
        <pt x="413" y="632" on="1"/>
        <pt x="413" y="709" on="1"/>
        <pt x="501" y="709" on="1"/>
        <pt x="501" y="631" on="1"/>
        <pt x="579" y="617" on="1"/>
        <pt x="579" y="572" on="1"/>
        <pt x="501" y="572" on="1"/>
        <pt x="501" y="0" on="1"/>
        <pt x="437" y="0" on="1"/>
        <pt x="420" y="48" on="1"/>
        <pt x="385" y="29" on="1"/>
        <pt x="348" y="9" on="0"/>
        <pt x="287" y="-8" on="0"/>
        <pt x="254" y="-8" on="1"/>
        <pt x="206" y="-8" on="0"/>
        <pt x="126" y="28" on="0"/>
        <pt x="69" y="94" on="0"/>
        <pt x="37" y="186" on="0"/>
        <pt x="37" y="242" on="1"/>
        <pt x="37" y="303" on="0"/>
        <pt x="75" y="397" on="0"/>
        <pt x="137" y="462" on="0"/>
        <pt x="216" y="496" on="0"/>
        <pt x="257" y="496" on="1"/>
        <pt x="292" y="496" on="0"/>
        <pt x="356" y="476" on="0"/>
        <pt x="388" y="459" on="1"/>
        <pt x="413" y="446" on="1"/>
      </contour>
      <contour>
        <pt x="413" y="360" on="1"/>
        <pt x="413" y="369" on="0"/>
        <pt x="409" y="377" on="0"/>
        <pt x="401" y="381" on="1"/>
        <pt x="372" y="396" on="0"/>
        <pt x="305" y="414" on="0"/>
        <pt x="274" y="414" on="1"/>
        <pt x="205" y="414" on="0"/>
        <pt x="128" y="331" on="0"/>
        <pt x="128" y="243" on="1"/>
        <pt x="128" y="152" on="0"/>
        <pt x="203" y="73" on="0"/>
        <pt x="269" y="73" on="1"/>
        <pt x="302" y="73" on="0"/>
        <pt x="376" y="93" on="0"/>
        <pt x="402" y="107" on="1"/>
        <pt x="409" y="111" on="0"/>
        <pt x="413" y="119" on="0"/>
        <pt x="413" y="127" on="1"/>
      </contour>
    </TTGlyph>
    <TTGlyph name="degree" xMin="53" yMin="341" xMax="393" yMax="673">
      <contour>
        <pt x="53" y="507" on="1"/>
        <pt x="53" y="544" on="0"/>
        <pt x="79" y="605" on="0"/>
        <pt x="125" y="649" on="0"/>
        <pt x="187" y="673" on="0"/>
        <pt x="223" y="673" on="1"/>
        <pt x="259" y="673" on="0"/>
        <pt x="321" y="649" on="0"/>
        <pt x="367" y="605" on="0"/>
        <pt x="393" y="544" on="0"/>
        <pt x="393" y="507" on="1"/>
        <pt x="393" y="470" on="0"/>
        <pt x="367" y="409" on="0"/>
        <pt x="321" y="365" on="0"/>
        <pt x="259" y="341" on="0"/>
        <pt x="223" y="341" on="1"/>
        <pt x="187" y="341" on="0"/>
        <pt x="125" y="365" on="0"/>
        <pt x="79" y="409" on="0"/>
        <pt x="53" y="470" on="0"/>
      </contour>
      <contour>
        <pt x="317" y="507" on="1"/>
        <pt x="317" y="552" on="0"/>
        <pt x="268" y="604" on="0"/>
        <pt x="223" y="604" on="1"/>
        <pt x="178" y="604" on="0"/>
        <pt x="129" y="552" on="0"/>
        <pt x="129" y="507" on="1"/>
        <pt x="129" y="462" on="0"/>
        <pt x="178" y="410" on="0"/>
        <pt x="223" y="410" on="1"/>
        <pt x="268" y="410" on="0"/>
        <pt x="317" y="462" on="0"/>
      </contour>
    </TTGlyph>
    <TTGlyph name="dieresis" xMin="55" yMin="571" xMax="342" yMax="667">
      <contour>
        <pt x="153" y="571" on="1"/>
        <pt x="55" y="571" on="1"/>
        <pt x="55" y="667" on="1"/>
        <pt x="135" y="667" on="1"/>
        <pt x="146" y="667" on="0"/>
        <pt x="153" y="661" on="0"/>
        <pt x="153" y="652" on="1"/>
      </contour>
      <contour>
        <pt x="342" y="571" on="1"/>
        <pt x="244" y="571" on="1"/>
        <pt x="244" y="667" on="1"/>
        <pt x="324" y="667" on="1"/>
        <pt x="335" y="667" on="0"/>
        <pt x="342" y="661" on="0"/>
        <pt x="342" y="652" on="1"/>
      </contour>
    </TTGlyph>
    <TTGlyph name="dieresis.cap" xMin="55" yMin="751" xMax="342" yMax="847">
      <contour>
        <pt x="153" y="751" on="1"/>
        <pt x="55" y="751" on="1"/>
        <pt x="55" y="847" on="1"/>
        <pt x="135" y="847" on="1"/>
        <pt x="146" y="847" on="0"/>
        <pt x="153" y="841" on="0"/>
        <pt x="153" y="832" on="1"/>
      </contour>
      <contour>
        <pt x="342" y="751" on="1"/>
        <pt x="244" y="751" on="1"/>
        <pt x="244" y="847" on="1"/>
        <pt x="324" y="847" on="1"/>
        <pt x="335" y="847" on="0"/>
        <pt x="342" y="841" on="0"/>
        <pt x="342" y="832" on="1"/>
      </contour>
    </TTGlyph>
    <TTGlyph name="divide" xMin="76" yMin="40" xMax="456" yMax="451">
      <contour>
        <pt x="456" y="281" on="1"/>
        <pt x="456" y="210" on="1"/>
        <pt x="76" y="210" on="1"/>
        <pt x="76" y="281" on="1"/>
      </contour>
      <contour>
        <pt x="313" y="40" on="1"/>
        <pt x="219" y="40" on="1"/>
        <pt x="219" y="134" on="1"/>
        <pt x="296" y="134" on="1"/>
        <pt x="307" y="134" on="0"/>
        <pt x="313" y="127" on="0"/>
        <pt x="313" y="119" on="1"/>
      </contour>
      <contour>
        <pt x="313" y="357" on="1"/>
        <pt x="219" y="357" on="1"/>
        <pt x="219" y="451" on="1"/>
        <pt x="296" y="451" on="1"/>
        <pt x="307" y="451" on="0"/>
        <pt x="313" y="444" on="0"/>
        <pt x="313" y="436" on="1"/>
      </contour>
    </TTGlyph>
    <TTGlyph name="dollar" xMin="66" yMin="-116" xMax="545" yMax="778">
      <contour>
        <pt x="154" y="93" on="1"/>
        <pt x="189" y="85" on="0"/>
        <pt x="254" y="73" on="0"/>
        <pt x="282" y="71" on="1"/>
        <pt x="282" y="321" on="1"/>
        <pt x="257" y="330" on="1"/>
        <pt x="214" y="345" on="0"/>
        <pt x="147" y="379" on="0"/>
        <pt x="100" y="420" on="0"/>
        <pt x="76" y="473" on="0"/>
        <pt x="76" y="508" on="1"/>
        <pt x="76" y="545" on="0"/>
        <pt x="107" y="604" on="0"/>
        <pt x="161" y="646" on="0"/>
        <pt x="237" y="669" on="0"/>
        <pt x="282" y="672" on="1"/>
        <pt x="290" y="778" on="1"/>
        <pt x="340" y="778" on="1"/>
        <pt x="340" y="672" on="1"/>
        <pt x="382" y="669" on="0"/>
        <pt x="472" y="649" on="0"/>
        <pt x="513" y="633" on="1"/>
        <pt x="498" y="574" on="1"/>
        <pt x="438" y="582" on="1"/>
        <pt x="413" y="585" on="0"/>
        <pt x="363" y="590" on="0"/>
        <pt x="340" y="591" on="1"/>
        <pt x="340" y="389" on="1"/>
        <pt x="392" y="372" on="0"/>
        <pt x="469" y="335" on="0"/>
        <pt x="520" y="288" on="0"/>
        <pt x="545" y="228" on="0"/>
        <pt x="545" y="188" on="1"/>
        <pt x="545" y="105" on="0"/>
        <pt x="436" y="0" on="0"/>
        <pt x="340" y="-8" on="1"/>
        <pt x="332" y="-116" on="1"/>
        <pt x="282" y="-116" on="1"/>
        <pt x="282" y="-9" on="1"/>
        <pt x="224" y="-5" on="0"/>
        <pt x="107" y="30" on="0"/>
        <pt x="66" y="54" on="1"/>
        <pt x="89" y="108" on="1"/>
      </contour>
      <contour>
        <pt x="458" y="187" on="1"/>
        <pt x="458" y="208" on="0"/>
        <pt x="446" y="241" on="0"/>
        <pt x="418" y="267" on="0"/>
        <pt x="373" y="289" on="0"/>
        <pt x="340" y="301" on="1"/>
        <pt x="340" y="73" on="1"/>
        <pt x="398" y="80" on="0"/>
        <pt x="458" y="139" on="0"/>
      </contour>
      <contour>
        <pt x="161" y="511" on="1"/>
        <pt x="161" y="493" on="0"/>
        <pt x="174" y="466" on="0"/>
        <pt x="202" y="443" on="0"/>
        <pt x="249" y="421" on="0"/>
        <pt x="282" y="409" on="1"/>
        <pt x="282" y="591" on="1"/>
        <pt x="222" y="588" on="0"/>
        <pt x="161" y="550" on="0"/>
      </contour>
    </TTGlyph>
    <TTGlyph name="dollar.lprop" xMin="49" yMin="-116" xMax="528" yMax="778">
      <component glyphName="dollar" x="-17" y="0" flags="0x4"/>
    </TTGlyph>
    <TTGlyph name="dollar.oprop" xMin="64" yMin="-116" xMax="453" yMax="604">
      <contour>
        <pt x="417" y="408" on="1"/>
        <pt x="371" y="414" on="1"/>
        <pt x="353" y="416" on="0"/>
        <pt x="309" y="420" on="0"/>
        <pt x="289" y="421" on="1"/>
        <pt x="289" y="289" on="1"/>
        <pt x="306" y="284" on="1"/>
        <pt x="345" y="272" on="0"/>
        <pt x="399" y="248" on="0"/>
        <pt x="416" y="233" on="1"/>
        <pt x="453" y="200" on="0"/>
        <pt x="453" y="142" on="1"/>
        <pt x="453" y="76" on="0"/>
        <pt x="362" y="-2" on="0"/>
        <pt x="289" y="-7" on="1"/>
        <pt x="282" y="-116" on="1"/>
        <pt x="240" y="-116" on="1"/>
        <pt x="240" y="-7" on="1"/>
        <pt x="195" y="-3" on="0"/>
        <pt x="103" y="26" on="0"/>
        <pt x="64" y="49" on="1"/>
        <pt x="86" y="100" on="1"/>
        <pt x="129" y="89" on="1"/>
        <pt x="166" y="79" on="0"/>
        <pt x="219" y="69" on="0"/>
        <pt x="240" y="67" on="1"/>
        <pt x="240" y="224" on="1"/>
        <pt x="217" y="231" on="1"/>
        <pt x="141" y="254" on="0"/>
        <pt x="71" y="313" on="0"/>
        <pt x="71" y="366" on="1"/>
        <pt x="71" y="398" on="0"/>
        <pt x="100" y="446" on="0"/>
        <pt x="124" y="462" on="1"/>
        <pt x="147" y="477" on="0"/>
        <pt x="207" y="493" on="0"/>
        <pt x="240" y="495" on="1"/>
        <pt x="247" y="604" on="1"/>
        <pt x="289" y="604" on="1"/>
        <pt x="289" y="495" on="1"/>
        <pt x="324" y="493" on="0"/>
        <pt x="399" y="477" on="0"/>
        <pt x="432" y="463" on="1"/>
      </contour>
      <contour>
        <pt x="372" y="142" on="1"/>
        <pt x="372" y="168" on="0"/>
        <pt x="335" y="195" on="0"/>
        <pt x="289" y="209" on="1"/>
        <pt x="289" y="67" on="1"/>
        <pt x="372" y="75" on="0"/>
      </contour>
      <contour>
        <pt x="151" y="367" on="1"/>
        <pt x="151" y="341" on="0"/>
        <pt x="198" y="317" on="0"/>
        <pt x="240" y="304" on="1"/>
        <pt x="240" y="421" on="1"/>
        <pt x="198" y="419" on="0"/>
        <pt x="151" y="394" on="0"/>
      </contour>
    </TTGlyph>
    <TTGlyph name="dollar.otab" xMin="113" yMin="-116" xMax="502" yMax="604">
      <contour>
        <pt x="466" y="408" on="1"/>
        <pt x="420" y="414" on="1"/>
        <pt x="402" y="416" on="0"/>
        <pt x="358" y="420" on="0"/>
        <pt x="338" y="421" on="1"/>
        <pt x="338" y="289" on="1"/>
        <pt x="355" y="284" on="1"/>
        <pt x="394" y="272" on="0"/>
        <pt x="448" y="248" on="0"/>
        <pt x="465" y="233" on="1"/>
        <pt x="502" y="200" on="0"/>
        <pt x="502" y="142" on="1"/>
        <pt x="502" y="76" on="0"/>
        <pt x="411" y="-2" on="0"/>
        <pt x="338" y="-7" on="1"/>
        <pt x="331" y="-116" on="1"/>
        <pt x="289" y="-116" on="1"/>
        <pt x="289" y="-7" on="1"/>
        <pt x="244" y="-3" on="0"/>
        <pt x="152" y="26" on="0"/>
        <pt x="113" y="49" on="1"/>
        <pt x="135" y="100" on="1"/>
        <pt x="178" y="89" on="1"/>
        <pt x="215" y="79" on="0"/>
        <pt x="268" y="69" on="0"/>
        <pt x="289" y="67" on="1"/>
        <pt x="289" y="224" on="1"/>
        <pt x="266" y="231" on="1"/>
        <pt x="190" y="254" on="0"/>
        <pt x="120" y="313" on="0"/>
        <pt x="120" y="366" on="1"/>
        <pt x="120" y="398" on="0"/>
        <pt x="149" y="446" on="0"/>
        <pt x="173" y="462" on="1"/>
        <pt x="196" y="477" on="0"/>
        <pt x="256" y="493" on="0"/>
        <pt x="289" y="495" on="1"/>
        <pt x="296" y="604" on="1"/>
        <pt x="338" y="604" on="1"/>
        <pt x="338" y="495" on="1"/>
        <pt x="373" y="493" on="0"/>
        <pt x="448" y="477" on="0"/>
        <pt x="481" y="463" on="1"/>
      </contour>
      <contour>
        <pt x="421" y="142" on="1"/>
        <pt x="421" y="168" on="0"/>
        <pt x="384" y="195" on="0"/>
        <pt x="338" y="209" on="1"/>
        <pt x="338" y="67" on="1"/>
        <pt x="421" y="75" on="0"/>
      </contour>
      <contour>
        <pt x="200" y="367" on="1"/>
        <pt x="200" y="341" on="0"/>
        <pt x="247" y="317" on="0"/>
        <pt x="289" y="304" on="1"/>
        <pt x="289" y="421" on="1"/>
        <pt x="247" y="419" on="0"/>
        <pt x="200" y="394" on="0"/>
      </contour>
    </TTGlyph>
    <TTGlyph name="dotaccent" xMin="146" yMin="559" xMax="252" yMax="660">
      <contour>
        <pt x="252" y="559" on="1"/>
        <pt x="146" y="559" on="1"/>
        <pt x="146" y="660" on="1"/>
        <pt x="234" y="660" on="1"/>
        <pt x="245" y="660" on="0"/>
        <pt x="252" y="652" on="0"/>
        <pt x="252" y="643" on="1"/>
      </contour>
    </TTGlyph>
    <TTGlyph name="dotaccent.cap" xMin="146" yMin="739" xMax="252" yMax="840">
      <contour>
        <pt x="252" y="739" on="1"/>
        <pt x="146" y="739" on="1"/>
        <pt x="146" y="840" on="1"/>
        <pt x="234" y="840" on="1"/>
        <pt x="245" y="840" on="0"/>
        <pt x="252" y="832" on="0"/>
        <pt x="252" y="823" on="1"/>
      </contour>
    </TTGlyph>
    <TTGlyph name="dotlessi" xMin="68" yMin="0" xMax="156" yMax="488">
      <contour>
        <pt x="68" y="488" on="1"/>
        <pt x="156" y="488" on="1"/>
        <pt x="156" y="0" on="1"/>
        <pt x="68" y="0" on="1"/>
      </contour>
    </TTGlyph>
    <TTGlyph name="e" xMin="36" yMin="-8" xMax="498" yMax="496">
      <contour>
        <pt x="490" y="73" on="1"/>
        <pt x="444" y="37" on="0"/>
        <pt x="333" y="-8" on="0"/>
        <pt x="279" y="-8" on="1"/>
        <pt x="223" y="-8" on="0"/>
        <pt x="134" y="30" on="0"/>
        <pt x="70" y="98" on="0"/>
        <pt x="36" y="190" on="0"/>
        <pt x="36" y="244" on="1"/>
        <pt x="36" y="300" on="0"/>
        <pt x="72" y="393" on="0"/>
        <pt x="135" y="459" on="0"/>
        <pt x="221" y="496" on="0"/>
        <pt x="271" y="496" on="1"/>
        <pt x="321" y="496" on="0"/>
        <pt x="404" y="460" on="0"/>
        <pt x="464" y="397" on="0"/>
        <pt x="498" y="313" on="0"/>
        <pt x="498" y="265" on="1"/>
        <pt x="498" y="240" on="0"/>
        <pt x="486" y="221" on="0"/>
        <pt x="474" y="221" on="1"/>
        <pt x="127" y="221" on="1"/>
        <pt x="132" y="155" on="0"/>
        <pt x="209" y="72" on="0"/>
        <pt x="286" y="72" on="1"/>
        <pt x="315" y="72" on="0"/>
        <pt x="379" y="88" on="0"/>
        <pt x="407" y="99" on="1"/>
        <pt x="461" y="120" on="1"/>
      </contour>
      <contour>
        <pt x="411" y="289" on="1"/>
        <pt x="407" y="346" on="0"/>
        <pt x="335" y="417" on="0"/>
        <pt x="272" y="417" on="1"/>
        <pt x="210" y="417" on="0"/>
        <pt x="133" y="350" on="0"/>
        <pt x="127" y="289" on="1"/>
      </contour>
    </TTGlyph>
    <TTGlyph name="eacute" xMin="36" yMin="-8" xMax="498" yMax="723">
      <component glyphName="e" x="0" y="0" flags="0x204"/>
      <component glyphName="acute" x="80" y="0" flags="0x4"/>
    </TTGlyph>
    <TTGlyph name="ebreve" xMin="36" yMin="-8" xMax="498" yMax="700">
      <component glyphName="e" x="0" y="0" flags="0x204"/>
      <component glyphName="breve" x="74" y="0" flags="0x4"/>
    </TTGlyph>
    <TTGlyph name="ecaron" xMin="36" yMin="-8" xMax="498" yMax="720">
      <component glyphName="e" x="0" y="0" flags="0x204"/>
      <component glyphName="caron" x="73" y="0" flags="0x4"/>
    </TTGlyph>
    <TTGlyph name="ecircumflex" xMin="36" yMin="-8" xMax="498" yMax="714">
      <component glyphName="e" x="0" y="0" flags="0x204"/>
      <component glyphName="circumflex" x="75" y="0" flags="0x4"/>
    </TTGlyph>
    <TTGlyph name="edieresis" xMin="36" yMin="-8" xMax="498" yMax="667">
      <component glyphName="e" x="0" y="0" flags="0x204"/>
      <component glyphName="dieresis" x="74" y="0" flags="0x4"/>
    </TTGlyph>
    <TTGlyph name="edotaccent" xMin="36" yMin="-8" xMax="498" yMax="660">
      <component glyphName="e" x="0" y="0" flags="0x204"/>
      <component glyphName="dotaccent" x="74" y="0" flags="0x4"/>
    </TTGlyph>
    <TTGlyph name="egrave" xMin="36" yMin="-8" xMax="498" yMax="723">
      <component glyphName="e" x="0" y="0" flags="0x204"/>
      <component glyphName="grave" x="75" y="0" flags="0x4"/>
    </TTGlyph>
    <TTGlyph name="eight" xMin="51" yMin="-10" xMax="561" yMax="673">
      <contour>
        <pt x="165" y="364" on="1"/>
        <pt x="129" y="390" on="0"/>
        <pt x="86" y="455" on="0"/>
        <pt x="86" y="499" on="1"/>
        <pt x="86" y="539" on="0"/>
        <pt x="123" y="604" on="0"/>
        <pt x="185" y="649" on="0"/>
        <pt x="265" y="673" on="0"/>
        <pt x="307" y="673" on="1"/>
        <pt x="351" y="673" on="0"/>
        <pt x="433" y="648" on="0"/>
        <pt x="495" y="603" on="0"/>
        <pt x="532" y="539" on="0"/>
        <pt x="532" y="500" on="1"/>
        <pt x="532" y="455" on="0"/>
        <pt x="479" y="373" on="0"/>
        <pt x="437" y="340" on="1"/>
        <pt x="463" y="328" on="0"/>
        <pt x="508" y="299" on="0"/>
        <pt x="542" y="262" on="0"/>
        <pt x="561" y="216" on="0"/>
        <pt x="561" y="186" on="1"/>
        <pt x="561" y="147" on="0"/>
        <pt x="522" y="76" on="0"/>
        <pt x="454" y="22" on="0"/>
        <pt x="360" y="-10" on="0"/>
        <pt x="305" y="-10" on="1"/>
        <pt x="253" y="-10" on="0"/>
        <pt x="161" y="19" on="0"/>
        <pt x="92" y="72" on="0"/>
        <pt x="51" y="146" on="0"/>
        <pt x="51" y="191" on="1"/>
        <pt x="51" y="218" on="0"/>
        <pt x="69" y="268" on="0"/>
        <pt x="100" y="312" on="0"/>
        <pt x="142" y="349" on="0"/>
      </contour>
      <contour>
        <pt x="471" y="184" on="1"/>
        <pt x="471" y="209" on="0"/>
        <pt x="442" y="246" on="0"/>
        <pt x="385" y="279" on="0"/>
        <pt x="297" y="310" on="0"/>
        <pt x="239" y="329" on="1"/>
        <pt x="227" y="333" on="0"/>
        <pt x="215" y="329" on="0"/>
        <pt x="205" y="321" on="1"/>
        <pt x="175" y="296" on="0"/>
        <pt x="140" y="237" on="0"/>
        <pt x="140" y="202" on="1"/>
        <pt x="140" y="142" on="0"/>
        <pt x="232" y="70" on="0"/>
        <pt x="309" y="70" on="1"/>
        <pt x="343" y="70" on="0"/>
        <pt x="402" y="87" on="0"/>
        <pt x="446" y="117" on="0"/>
        <pt x="471" y="159" on="0"/>
      </contour>
      <contour>
        <pt x="169" y="501" on="1"/>
        <pt x="169" y="476" on="0"/>
        <pt x="193" y="440" on="0"/>
        <pt x="240" y="411" on="0"/>
        <pt x="309" y="385" on="0"/>
        <pt x="355" y="371" on="1"/>
        <pt x="367" y="367" on="0"/>
        <pt x="375" y="368" on="0"/>
        <pt x="385" y="375" on="1"/>
        <pt x="397" y="384" on="0"/>
        <pt x="419" y="408" on="0"/>
        <pt x="437" y="436" on="0"/>
        <pt x="448" y="467" on="0"/>
        <pt x="448" y="483" on="1"/>
        <pt x="448" y="539" on="0"/>
        <pt x="369" y="594" on="0"/>
        <pt x="306" y="594" on="1"/>
        <pt x="278" y="594" on="0"/>
        <pt x="228" y="582" on="0"/>
        <pt x="191" y="558" on="0"/>
        <pt x="169" y="523" on="0"/>
      </contour>
    </TTGlyph>
    <TTGlyph name="eight.lprop" xMin="46" yMin="-10" xMax="556" yMax="673">
      <component glyphName="eight" x="-5" y="0" flags="0x4"/>
    </TTGlyph>
    <TTGlyph name="eight.oprop" xMin="45" yMin="-8" xMax="541" yMax="671">
      <component glyphName="eight.otab" x="-13" y="0" flags="0x4"/>
    </TTGlyph>
    <TTGlyph name="eight.otab" xMin="58" yMin="-8" xMax="554" yMax="671">
      <contour>
        <pt x="217" y="327" on="1"/>
        <pt x="184" y="298" on="0"/>
        <pt x="147" y="236" on="0"/>
        <pt x="147" y="198" on="1"/>
        <pt x="147" y="171" on="0"/>
        <pt x="169" y="124" on="0"/>
        <pt x="211" y="89" on="0"/>
        <pt x="271" y="69" on="0"/>
        <pt x="309" y="69" on="1"/>
        <pt x="344" y="69" on="0"/>
        <pt x="402" y="87" on="0"/>
        <pt x="443" y="118" on="0"/>
        <pt x="466" y="160" on="0"/>
        <pt x="466" y="184" on="1"/>
        <pt x="466" y="205" on="0"/>
        <pt x="444" y="239" on="0"/>
        <pt x="399" y="270" on="0"/>
        <pt x="331" y="299" on="0"/>
        <pt x="285" y="316" on="1"/>
        <pt x="242" y="332" on="1"/>
        <pt x="228" y="337" on="0"/>
      </contour>
      <contour>
        <pt x="379" y="377" on="1"/>
        <pt x="408" y="404" on="0"/>
        <pt x="442" y="465" on="0"/>
        <pt x="442" y="497" on="1"/>
        <pt x="442" y="545" on="0"/>
        <pt x="368" y="594" on="0"/>
        <pt x="308" y="594" on="1"/>
        <pt x="247" y="594" on="0"/>
        <pt x="176" y="544" on="0"/>
        <pt x="176" y="502" on="1"/>
        <pt x="176" y="479" on="0"/>
        <pt x="199" y="444" on="0"/>
        <pt x="238" y="417" on="0"/>
        <pt x="291" y="394" on="0"/>
        <pt x="322" y="383" on="1"/>
        <pt x="349" y="373" on="1"/>
        <pt x="362" y="368" on="0"/>
        <pt x="374" y="372" on="0"/>
      </contour>
      <contour>
        <pt x="58" y="192" on="1"/>
        <pt x="58" y="221" on="0"/>
        <pt x="77" y="272" on="0"/>
        <pt x="109" y="315" on="0"/>
        <pt x="151" y="351" on="0"/>
        <pt x="174" y="365" on="1"/>
        <pt x="140" y="387" on="0"/>
        <pt x="90" y="450" on="0"/>
        <pt x="90" y="500" on="1"/>
        <pt x="90" y="539" on="0"/>
        <pt x="127" y="603" on="0"/>
        <pt x="189" y="647" on="0"/>
        <pt x="268" y="671" on="0"/>
        <pt x="310" y="671" on="1"/>
        <pt x="352" y="671" on="0"/>
        <pt x="430" y="647" on="0"/>
        <pt x="490" y="604" on="0"/>
        <pt x="526" y="541" on="0"/>
        <pt x="526" y="502" on="1"/>
        <pt x="526" y="457" on="0"/>
        <pt x="473" y="375" on="0"/>
        <pt x="428" y="342" on="1"/>
        <pt x="455" y="329" on="0"/>
        <pt x="501" y="300" on="0"/>
        <pt x="535" y="264" on="0"/>
        <pt x="554" y="218" on="0"/>
        <pt x="554" y="190" on="1"/>
        <pt x="554" y="149" on="0"/>
        <pt x="517" y="77" on="0"/>
        <pt x="452" y="23" on="0"/>
        <pt x="362" y="-8" on="0"/>
        <pt x="308" y="-8" on="1"/>
        <pt x="256" y="-8" on="0"/>
        <pt x="165" y="22" on="0"/>
        <pt x="97" y="75" on="0"/>
        <pt x="58" y="148" on="0"/>
      </contour>
    </TTGlyph>
    <TTGlyph name="ellipsis" xMin="59" yMin="0" xMax="583" yMax="102">
      <contour>
        <pt x="59" y="102" on="1"/>
        <pt x="139" y="102" on="1"/>
        <pt x="151" y="102" on="0"/>
        <pt x="159" y="95" on="0"/>
        <pt x="159" y="85" on="1"/>
        <pt x="159" y="0" on="1"/>
        <pt x="59" y="0" on="1"/>
      </contour>
      <contour>
        <pt x="271" y="102" on="1"/>
        <pt x="351" y="102" on="1"/>
        <pt x="363" y="102" on="0"/>
        <pt x="371" y="95" on="0"/>
        <pt x="371" y="85" on="1"/>
        <pt x="371" y="0" on="1"/>
        <pt x="271" y="0" on="1"/>
      </contour>
      <contour>
        <pt x="483" y="102" on="1"/>
        <pt x="563" y="102" on="1"/>
        <pt x="575" y="102" on="0"/>
        <pt x="583" y="95" on="0"/>
        <pt x="583" y="85" on="1"/>
        <pt x="583" y="0" on="1"/>
        <pt x="483" y="0" on="1"/>
      </contour>
    </TTGlyph>
    <TTGlyph name="emacron" xMin="36" yMin="-8" xMax="498" yMax="651">
      <component glyphName="e" x="0" y="0" flags="0x204"/>
      <component glyphName="macron" x="73" y="0" flags="0x4"/>
    </TTGlyph>
    <TTGlyph name="emdash" xMin="57" yMin="207" xMax="1057" yMax="281">
      <contour>
        <pt x="57" y="207" on="1"/>
        <pt x="57" y="281" on="1"/>
        <pt x="1057" y="281" on="1"/>
        <pt x="1057" y="207" on="1"/>
      </contour>
    </TTGlyph>
    <TTGlyph name="emdash.cap" xMin="57" yMin="294" xMax="1057" yMax="368">
      <component glyphName="emdash" x="0" y="87" flags="0x204"/>
    </TTGlyph>
    <TTGlyph name="endash" xMin="57" yMin="207" xMax="557" yMax="281">
      <contour>
        <pt x="57" y="207" on="1"/>
        <pt x="57" y="281" on="1"/>
        <pt x="557" y="281" on="1"/>
        <pt x="557" y="207" on="1"/>
      </contour>
    </TTGlyph>
    <TTGlyph name="endash.cap" xMin="57" yMin="294" xMax="557" yMax="368">
      <component glyphName="endash" x="0" y="87" flags="0x204"/>
    </TTGlyph>
    <TTGlyph name="eng" xMin="67" yMin="-185" xMax="495" yMax="496">
      <contour>
        <pt x="131" y="488" on="1"/>
        <pt x="146" y="446" on="1"/>
        <pt x="177" y="461" on="1"/>
        <pt x="206" y="475" on="0"/>
        <pt x="273" y="496" on="0"/>
        <pt x="305" y="496" on="1"/>
        <pt x="349" y="496" on="0"/>
        <pt x="422" y="469" on="0"/>
        <pt x="447" y="445" on="1"/>
        <pt x="470" y="422" on="0"/>
        <pt x="495" y="358" on="0"/>
        <pt x="495" y="308" on="1"/>
        <pt x="495" y="-26" on="1"/>
        <pt x="495" y="-66" on="0"/>
        <pt x="478" y="-127" on="0"/>
        <pt x="457" y="-149" on="1"/>
        <pt x="421" y="-185" on="0"/>
        <pt x="352" y="-185" on="1"/>
        <pt x="335" y="-185" on="0"/>
        <pt x="293" y="-180" on="0"/>
        <pt x="279" y="-176" on="1"/>
        <pt x="279" y="-130" on="1"/>
        <pt x="329" y="-121" on="1"/>
        <pt x="352" y="-116" on="0"/>
        <pt x="382" y="-106" on="0"/>
        <pt x="391" y="-97" on="1"/>
        <pt x="400" y="-87" on="0"/>
        <pt x="407" y="-57" on="0"/>
        <pt x="407" y="-31" on="1"/>
        <pt x="407" y="304" on="1"/>
        <pt x="407" y="338" on="0"/>
        <pt x="395" y="374" on="0"/>
        <pt x="382" y="387" on="1"/>
        <pt x="368" y="401" on="0"/>
        <pt x="319" y="413" on="0"/>
        <pt x="290" y="413" on="1"/>
        <pt x="289" y="413" on="1"/>
        <pt x="257" y="413" on="0"/>
        <pt x="187" y="397" on="0"/>
        <pt x="164" y="386" on="1"/>
        <pt x="158" y="383" on="0"/>
        <pt x="155" y="376" on="0"/>
        <pt x="155" y="370" on="1"/>
        <pt x="155" y="0" on="1"/>
        <pt x="67" y="0" on="1"/>
        <pt x="67" y="488" on="1"/>
      </contour>
    </TTGlyph>
</ttFont>
